<svg xmlns="http://www.w3.org/2000/svg" width="1440" height="684" viewBox="0 0 1440 684">
    <defs>
        <linearGradient id="a" x1="100%" x2="0%" y1="58.521%" y2="58.521%">
            <stop offset="0%" stop-color="#C2E4F1"/>
            <stop offset="100%" stop-color="#C69EC9"/>
        </linearGradient>
    </defs>
    <g fill="none" fill-rule="evenodd">
        <path fill="url(#a)" d="M0 19c243.372 24.11 442.372 34.943 597 32.5C828.941 47.835 1061.5 0 1202.5 0c94 0 177.167 6.333 249.5 19v638c-317.444 18-558.111 27-722 27s-407.222-9-730-27V19z"/>
        <text fill="#000" font-family="Muli-Black, Muli Black" font-size="34" font-weight="700" letter-spacing="-.737">
            <tspan x="146" y="173">agenda</tspan>
        </text>
        <text fill="#000" font-family="Muli-Black, Muli Black" font-size="24" font-weight="700" letter-spacing="-.52">
            <tspan x="146" y="286">March 5th</tspan>
        </text>
        <text fill="#000" font-family="Muli-Black, Muli Black" font-size="24" font-weight="700" letter-spacing="-.52">
            <tspan x="533" y="243">March 6th</tspan>
        </text>
        <text fill="#000" font-family="Muli-Black, Muli Black" font-size="24" font-weight="700" letter-spacing="-.52">
            <tspan x="1021" y="181">March 7th</tspan>
        </text>
        <text fill="#000" font-family="Muli-SemiBold, Muli SemiBold" font-size="18" font-weight="500" letter-spacing="-.24">
            <tspan x="145" y="334">19:00 Start</tspan> <tspan x="145" y="366">19:00 - 19:30 Welcome</tspan> <tspan x="145" y="398">19:30 - 20:15 Speech 1</tspan> <tspan x="145" y="430">20:30 - 21:15 Speech 2</tspan>
        </text>
        <text fill="#000" font-family="Muli-SemiBold, Muli SemiBold" font-size="18" font-weight="500" letter-spacing="-.24">
            <tspan x="533" y="291">9:00 Breakfast</tspan> <tspan x="533" y="323">10:15 - 11:45 Welcome Speech</tspan> <tspan x="533" y="355">12:00 - 13:00 Lunch</tspan> <tspan x="533" y="387">13:15 - 15:30 Interviews</tspan> <tspan x="533" y="419">16:30 - 18:00 Workshop</tspan> <tspan x="533" y="451">19:00 - … Dinner and kicker</tspan>
        </text>
        <text fill="#000" font-family="Muli-SemiBold, Muli SemiBold" font-size="18" font-weight="500" letter-spacing="-.24">
            <tspan x="1021" y="229">9:00 Breakfast</tspan> <tspan x="1021" y="261">10:15 - 11:00 Speech 1</tspan> <tspan x="1021" y="293">11:15 - 12:00 Speech 2</tspan> <tspan x="1021" y="325">12:15 - 13:00 Speech 3</tspan> <tspan x="1021" y="357">13:00 - 14:00 Lunch</tspan> <tspan x="1021" y="389">14:00 - 14:30 Preparation</tspan> <tspan x="1021" y="421">14:30 - 18:00 Challenge</tspan> <tspan x="1021" y="453">18:00 - 19:00 Jury</tspan> <tspan x="1021" y="485">19:00 - 20:00 Pitches</tspan> <tspan x="1021" y="517">20:00 - 21:30 Dinner</tspan> <tspan x="1021" y="549">21:30 Party</tspan>
        </text>
    </g>
</svg>
