<svg xmlns="http://www.w3.org/2000/svg" width="419" height="420" viewBox="0 0 419 420">
    <defs>
        <linearGradient id="a" x1="88.801%" x2="1.812%" y1="54.501%" y2="36.479%">
            <stop offset="0%" stop-color="#FFF"/>
            <stop offset="32%" stop-color="#F0F0F0"/>
            <stop offset="33%" stop-color="#EDEFF0"/>
            <stop offset="43%" stop-color="#DAEBF1"/>
            <stop offset="55%" stop-color="#CDE7F2"/>
            <stop offset="71%" stop-color="#C5E6F2"/>
            <stop offset="100%" stop-color="#C3E5F2"/>
        </linearGradient>
    </defs>
    <g fill="none" fill-rule="nonzero">
        <path fill="url(#a)" d="M18 273.774L291.687 420H470l-.871-107.358L267.179 254z"/>
        <path fill="#FFF" d="M268 203.5c0 9.824-12.172 18.823-32.338 25.731a197.109 197.109 0 0 1-23.836 6.417 333.033 333.033 0 0 1-39.171 5.672c-12.252 1.094-25.235 1.68-38.695 1.68-40.649 0-77.086-5.34-101.701-13.769C12.189 222.291 0 213.291 0 203.5 0 181.682 60.004 164 134.008 164 208.012 164 268 181.65 268 203.5z"/>
        <path fill="#C3E5F2" d="M268 202v51.484C268 275.31 208.012 293 134.008 293 60.004 293 0 275.279 0 253.452V202c0 9.828 12.188 18.83 32.354 25.742 24.567 8.433 61.005 13.774 101.702 13.774 40.696 0 77.086-5.341 101.701-13.774C255.843 220.799 268 211.796 268 202z"/>
        <path fill="#222323" d="M140.038 79.096c0-6.179-.978-10.372-.978-15.296 0-4.924.978-23.825.41-26.398a5.559 5.559 0 0 0-3.013-3.176 36.347 36.347 0 0 0-6.2-2.558A99.712 99.712 0 0 0 115.76 29s-10.743 3.177-12.825 3.653a7.117 7.117 0 0 0-4.496 5.194 4.285 4.285 0 0 0-.11.985c0 2.668-.836 21.204-1.956 21.204s-10.459-7.72-10.459-7.72l-.142.16c.28.435.459.93.52 1.445l-3.454 5.32-.615-1.175c-.12.311-.194.637-.221.97-.142 2.239 7.887 7.464 9.638 8.735 1.751 1.27 5.648 5.432 11.295 4.463 0 0-3.155 11.643-3.155 16.423v10.531h.663c4.496-.095 28.915-.699 33.127-1.08.457 2.827.93 4.892 1.325 4.892h.331c1.436-.095 4.733-.651 5.569-.81H141s-.962-16.9-.962-23.094zm-8.282 5.845a11.314 11.314 0 0 1-.52-2.748c0-1.08.204.286.52 2.748z" opacity=".95"/>
        <path fill="#DDA678" d="M120.422.346a8.13 8.13 0 0 0-4.696 0c-1.916.862-7.059 3.135-7.139 7.179-.08 4.044-1.916 20.375-3.05 21.05-1.134.673-8.832 2.962-8.528 5.61a8.11 8.11 0 0 1 0 3.339s4.2-4.702 5.494-4.451c1.293.25 6.979-2.054 6.979-2.054s-3.194 3.762-4.791 3.762h-1.597s9.933-.502 11.498-1.708a25.776 25.776 0 0 1 5.383-2.477s3.912 4.702 4.008 7.947c.096 3.244.351 6.269.351 6.269h6.82a6.77 6.77 0 0 0 0-2.727l-.256-1.881a41.88 41.88 0 0 1 1.134 4.608c-.095.423 4.967 0 4.967 0a41.037 41.037 0 0 0-1.916-12.649c-1.949-5.156-2.731-33.76-14.661-31.817z"/>
        <path fill="#040505" d="M104 72.069s2.882-.269 2.882-2.493C106.882 67.352 109 55 109 55s-.218 23-1.698 23S104 72.069 104 72.069zM137 201.732l-.464.158-11.57 3.813-2.688.901-1.168.396-.304-.775-.992-2.373-6.017-4.398s2.625-9.05 2.625-10.52a20.954 20.954 0 0 0-.737-2.911c-.912-3.26-2.576-8.622-4.032-13.368s-2.672-8.891-2.736-9.682c-.176-1.978-5.857-15.346-7.857-17.861-2-2.515-2.96-18.367-3.057-22.844-.096-4.477 1.873-22.639 1.873-23.16L133.736 98s.592 2.152 1.36 4.857c.208.822.464 1.708.704 2.594.608 2.215 0 5.79-.688 8.891-.496 2.167-1.008 4.097-1.152 5.157a111.652 111.652 0 0 0-1.6 15.457c0 6.201-1.745 50.624-1.6 52.696.143 2.073 6.24 14.08 6.24 14.08z" opacity=".95"/>
        <path fill="#222323" d="M117 112s1.215 23.379 1.215 26.563c0 3.185-.347 6.306 0 6.968a8.775 8.775 0 0 1 1.452 5.408 9.23 9.23 0 0 0 1.12 5.754C121.907 159.278 125 172 125 172s-5.16-22.701-5.065-27.683C120.03 139.336 117 112 117 112zM118.826 195.422A51.532 51.532 0 0 0 121 206l-1.132-2.39-6.868-4.344s2.995-8.953 2.995-10.391a20.323 20.323 0 0 0-.821-2.875c.146.156 3.652 5.984 3.652 9.422z" opacity=".95"/>
        <path fill="#E94575" d="M120.495 206.505v-.01l.01.01z"/>
        <path fill="#040505" d="M119 203.852a16.88 16.88 0 0 1-3.883 1.899 4.961 4.961 0 0 1-1.417.249c-.94 0-1.341-.43-1.988-.513-.91-.097-2.712-1.62-2.712-2.439 0-.817.616-2.341 2.203-2.341 1.587 0 2.003-.707 2.003-.707l5.794 3.852z" opacity=".95"/>
        <path fill="#222323" d="M121 208l-6-.93a3.15 3.15 0 0 0 1.305-.357c1.274-.673 2.477-1.586 3.574-2.713l1.121 4z" opacity=".95"/>
        <path fill="#040505" d="M136 203l-.131.235c-.868.564-2.523 1.66-3.98 2.818-2.114 1.676-5.407 7.14-7.11 8.58a17.487 17.487 0 0 1-5.963 3.367h-.476c-1.26-.11-1.392-.799-1.326-2.067.065-1.268 1.294-1.268 2.162-1.894.328-.22 2.949-2.036 3.276-3.492.432-1.27.98-2.501 1.638-3.68L136 203z" opacity=".95"/>
        <path fill="#E94575" d="M118.355 216.495h.29a1 1 0 0 1-.29 0z"/>
        <path fill="#CF816A" d="M124 205a26.068 26.068 0 0 0-1.667 4.105c-.4 1.624-3.066 3.65-3.333 3.895.198-.844.53-1.647.983-2.376a18.122 18.122 0 0 0 1.234-4.628L124 205z"/>
        <path fill="#222323" d="M135.6 212.121l-2.32.464-1.799-2.988a20.291 20.291 0 0 0-1.982 4.793c-.677 2.652-2.536 2.172-3.904 2.763A26.038 26.038 0 0 1 120 218a16.097 16.097 0 0 0 5.595-3.37c1.537-1.47 4.61-7.045 6.67-8.755 1.368-1.182 2.92-2.3 3.735-2.875a11.377 11.377 0 0 0-1.199 4.17c.06 1.679.33 3.343.8 4.951zM86 54.282L82.605 59 82 57.958c.123-.316.273-.622.45-.916A26.116 26.116 0 0 1 85.55 53c.255.391.408.83.45 1.282z" opacity=".95"/>
        <path fill="#E2A293" d="M85 52.327a29.746 29.746 0 0 0-3.248 4.626A7.224 7.224 0 0 0 81.281 58l-1.624-2.804-9.224-.58a5.415 5.415 0 0 1-3.898-1.515c-2.176-2.627-1.04-1.966-1.04-2.707a4.417 4.417 0 0 0-.373-2.256c-.373-.564.195-1.225.568-1.129.374.097 2.924 1.129 4.743 1.612 1.604.329 3.234.518 4.872.564a9.024 9.024 0 0 1-2.648-1.321c-.86-.742 1.625-.468 3.395 0a28.49 28.49 0 0 1 6.918 2.626A5.312 5.312 0 0 1 85 52.327z"/>
    </g>
</svg>
