<svg id="Layer_1" data-name="Layer 1" xmlns="http://www.w3.org/2000/svg" xmlns:xlink="http://www.w3.org/1999/xlink" viewBox="0 0 139.76 170.89"><defs><style>.cls-1{fill:url(#radial-gradient);}.cls-2,.cls-3{fill:#c2e4f1;}.cls-2{opacity:0.53;}.cls-4{fill:#fff;}.cls-5{fill:url(#radial-gradient-2);}</style><radialGradient id="radial-gradient" cx="48.5" cy="46.79" r="97.4" gradientUnits="userSpaceOnUse"><stop offset="0.44" stop-color="#fff"/><stop offset="1" stop-color="#c2e4f1"/></radialGradient><radialGradient id="radial-gradient-2" cx="219.67" cy="82.29" r="97.4" gradientTransform="translate(-172.23 -35.42)" gradientUnits="userSpaceOnUse"><stop offset="0.44" stop-color="#fff" stop-opacity="0"/><stop offset="1" stop-color="#00ade2" stop-opacity="0.4"/></radialGradient></defs><title>unicon_globe</title><circle class="cls-1" cx="62.4" cy="74.99" r="62.06"/><path class="cls-2" d="M237.47,186.74V197h15.26v8.61H215.65V197h15.53l0-16.64h0v-8.83h6v8.83h.28A73.56,73.56,0,0,0,284,157.27c12-12.79,19.5-29.7,19.5-47.86,0-36.4-30.13-64.77-66.3-68v6.32h-6v-13h6v.07c41.26,2.16,74,35.35,74,76S278.62,184.46,237.47,186.74Z" transform="translate(-171.51 -34.73)"/><g id="p7FEy9"><path class="cls-3" d="M267.34,129.51c-1.5,1-2.54.08-3.63-.46C264.83,129.31,266.08,128.87,267.34,129.51Z" transform="translate(-171.51 -34.73)"/><path class="cls-3" d="M272.61,81.32l0,0,.05,0Zm-1.24-20.65,0,0h0Zm-52.73,80.46-.29.25.29-.25Z" transform="translate(-171.51 -34.73)"/><path class="cls-3" d="M210.37,52.41l1.42-.6h0ZM211.66,57l0,0,0,0Zm-2.15-2.45h0l0,0h0Z" transform="translate(-171.51 -34.73)"/><path class="cls-3" d="M213.54,52.48c0-.58-.45-.41-.78-.44s-.72.15-1-.23h0l-1.42.6L209,53a61.48,61.48,0,0,0-22.35,16.52,51.93,51.93,0,0,0-7.14,10.53c.33-.06.55-.11.56.41s.63.58,1,.7.54-.28.62-.58c.53-1.85,1.85-3.2,3-4.68s2.74-2.69,3.38-4.32c.73-1.85,2.14-2.16,3.56-2.78.53-.23,1.07-.1,1.67-.36,1.68-.72,2.7-2.19,4.16-3.15.8-.52,2.4-.9,2-2.15L200,63l.5-.14.78-.23,1-.31q.7-.23,1.38-.48l.33-.13,0,0,.27-.1,0,0,.76-.32.29-.12.43-.2.06,0s0,0,0,0l.46-.22c.32-.15.63-.32,1-.49l.46-.26.55-.32h0l.45-.28c.15-.1.3-.19.44-.3s.3-.2.44-.31c.3-.21.58-.42.87-.65l.59-.49.05,0,.57-.5,0,0-.19-.09a1.82,1.82,0,0,0-.37-.13h0l-.4-.08-.27,0-.33,0c-.69,0-1.41.12-2.14.11a1.34,1.34,0,0,0,.78-.44l.11-.13a1.19,1.19,0,0,0,.13-.25l0-.12a1.34,1.34,0,0,0,.07-.18c0-.05,0-.11,0-.16l.06-.21a1809454171009.49,1809454171009.49,0,0,1,.14-.4l.09-.18a.33.33,0,0,1,.06-.1l0,0h0l0,0-.16-.18c.21-.05.23,0,.16.18h0l.1,0a.56.56,0,0,1,.48,0l.09.06.09.09,0,.07a.47.47,0,0,1,.06.09l.12.2a1,1,0,0,0,.08.14c.39.7,1.17,1.5,1.93,1.11a1.58,1.58,0,0,0,.41-2.25c-.24-.39-.34-.71.32-.8C213.63,53.16,213.55,52.8,213.54,52.48Zm-1.21.38c-.08,0-.15-.11-.22-.16s.1-.16.21-.05a2.71,2.71,0,0,0,.25.17C212.49,52.84,212.4,52.89,212.33,52.86Z" transform="translate(-171.51 -34.73)"/><path class="cls-3" d="M239.28,48.14c-1.51.5-3,.07-4.56.17-2.13.13-4.3-.39-6.41.33a.38.38,0,0,1-.51-.39A30.78,30.78,0,0,1,239.28,48.14Z" transform="translate(-171.51 -34.73)"/><path class="cls-3" d="M224.79,176.31l-.28-1.08c-.67,0-.17.77-.68.87a3.29,3.29,0,0,1-.06-1.76C225.19,175,225.19,175,224.79,176.31Z" transform="translate(-171.51 -34.73)"/><path class="cls-3" d="M190.42,153.8c.19-.05.25,0,.2.21S190.38,154,190.42,153.8Z" transform="translate(-171.51 -34.73)"/><path class="cls-3" d="M190.72,154.11c.19,0,.29,0,.27.22C190.79,154.38,190.7,154.31,190.72,154.11Z" transform="translate(-171.51 -34.73)"/><path class="cls-3" d="M226.84,48.32l-.31,0C226.62,48.19,226.72,48.15,226.84,48.32Z" transform="translate(-171.51 -34.73)"/><path class="cls-3" d="M234.25,98.62v0l0,0Z" transform="translate(-171.51 -34.73)"/><path class="cls-3" d="M272.7,81.31v0l-.05,0,0,0Z" transform="translate(-171.51 -34.73)"/><path class="cls-3" d="M296.05,110.12a30.74,30.74,0,0,0-.31-8,62.56,62.56,0,0,0-7.85-23.28,29,29,0,0,0-5.37-7.42c-.48.12-.77.33-.37.85l1.06,1.35c-1.48-.14-2.46-1.18-3.63-1.81a1,1,0,0,0,.27,1.53c.56.44,1.22,1,.57,1.57s-1.43,0-2-.45a4.62,4.62,0,0,1-1.91-2.94,2.39,2.39,0,0,0-1.64-2,1.21,1.21,0,0,1-.6-.45c-.19-.38-.95-.54-.62-1.08s.85-.07,1.2.12a26.64,26.64,0,0,0,4.58,2.09,2.58,2.58,0,0,0,2.22-.07,5.72,5.72,0,0,0-.44-.77,58.43,58.43,0,0,0-9.25-8.67c-.22.32-.38.15-.54,0-.94.2-1.83-.43-2.85-.1.16-.85,1.34-.42,1.29-1.28a8,8,0,0,0-2.39-1.8,61.45,61.45,0,0,0-20.66-8.42,23.28,23.28,0,0,0-6.8-.85c.25.71.6,1.37,1.47,1.34a2.43,2.43,0,0,1,1.7.81,19.83,19.83,0,0,0,7,3.62c1.38.43,2.86.27,4.19.81s2.41,1.16,3.83.78c.58-.16.84.33.89.76a.56.56,0,0,1-.71.61c-1.7-.56-2.25.92-3.17,1.72-.58.5-1.73,1-.16,1.77.37.18.09.67,0,1a9.33,9.33,0,0,1-3.09,4.16c-1,.71-1.12,2.32-2.38,2.94l.21.22c-.37.56-1.23.12-1.56.77-1.13,2.17-3.91,2.39-5.28,4.37A7.61,7.61,0,0,1,242,75c-.37.34-1-.3-1.35.79s-1,2-.11,2.89,1.42,1.65-.64,2.27c1.31.25,2.16.49,1.18,1.63-.43.49.08.94.43,1.1a2.51,2.51,0,0,0,2.56.15c1.18-.7,2.45-1.25,3.75-1.9a10.79,10.79,0,0,0,.09,1.14c.43,2.07,2.52,3.6,1.92,6a.5.5,0,0,0,.59.67c.47,0,1.15.22,1.26-.51.17-1.09.79-1.26,1.75-1.18.44,0,1.38,0,1.23-.49-.36-1.33.57-2.46.34-3.71-.14-.78.18-1.23,1-1.09,1.41.24,1.58-1,1.71-1.7.17-.9-.62-1.62-1.56-1.91-.27-.08-.77.07-.74-.33.11-1.51-.29-3.1.63-4.5,1-.82,1.63-2,3.08-2.27a1.27,1.27,0,0,0,.78-1.73,1.92,1.92,0,0,1,1.24-2.36,2.85,2.85,0,0,1,2.87.6,1.16,1.16,0,0,1,.16,1.54c-1.09,1.12-1.6,2.71-3,3.57-.35.22-.82.65-.5,1.14.87,1.34-.37,3.66,2,4.29.09,0,.18.22.2.34.21,1.36.92,1.67,2.09.93a4,4,0,0,1,4.94,0,1.73,1.73,0,0,0,1.29.36c-.61,1.1-1.89,1.2-2.81,1.37s-1.92,0-2.87.09c-2.07.25-2.09.37-1.31,2.31a2.26,2.26,0,0,1-.26,2.46c-.74.59-1.35-.31-1.76-1s-.7-.23-1,.11a3.86,3.86,0,0,0-.8,3.54c.21,1.41-2,1.1-1.62,2.53.06.25-.42.14-.65.19s-.55.14-.59.07c-.94-1.46-1.92-.26-2.82,0-1.34.39-2.6.82-4,.11-.5-.26-1.09-.62-1.8,0a1.64,1.64,0,0,1-2.62-1.25c0-1.12-.37-2.46.93-3.26.3-.19.19-.36,0-.59a1.6,1.6,0,0,1-.14-2.08c.14-.23,0-1.13-.31-.81-.76.92-2.22.71-2.83,1.84.44.16,1-.13,1.08.26s-.32.52-.71.5-.66.39-.5.57c.62.69.13,1.55.6,2.36,1.37,2.32.38,4.1-2,4.16s-2.69.33-3.5,2.5c-.09.24.13.82-.48.76-1.48-.15-2.7.63-4,1.11.24.3.73.57.33,1a7.54,7.54,0,0,1-1.87,1.66,2.06,2.06,0,0,1-2.39-.51c.64,1.41.78,2.45-1.19,2.42,0,0-.09.06-.13.09-.73.33-2.35-.51-1.85,1.41,1.23.53,2.41,1.1,2.54,2.67a.56.56,0,0,0,.29.32c2,1,1.53,2.86,1.34,4.53-.16,1.37-.78,1.51-2.15,1.26-2.63-.47-5.28-1.18-8-.32-.81.26-1,.64-.73,1.31a7.91,7.91,0,0,1,.53,4.23c-.18,1.54-1.44,3-.08,4.6,0,0,0,.09,0,.14-.11,1.44.39,2,1.76,1.61,1.08-.32,1.52.09,2,.89.24.47.57,1,1.19.63a4.1,4.1,0,0,1,2.88-.59,1,1,0,0,0,1.1-.43c.36-.75,1.24-1,1.6-1.53.56-.81,1.73-1.56,1.47-2.58a1.92,1.92,0,0,1,.36-1.76,7.08,7.08,0,0,1,2.89-2.67,1.4,1.4,0,0,0,1-1.37c0-2.07,1.09-2.71,3-1.79.41.2.85.67,1.24.25.67-.73,1.78-.85,2.32-1.64s1-.62,1.66-.27a3.36,3.36,0,0,1,1.47,2,6.46,6.46,0,0,0,3.8,4.1c2,.73,3.14,3.33,2.69,5.47-.06.25-.18.55.1.68a.56.56,0,0,0,.79-.25c.47-1,1.41-1.94.36-3.12a.84.84,0,0,1-.11-1.24c.38-.44.72-.16,1.1,0a.67.67,0,0,0,.82-.24,16.39,16.39,0,0,0-3.12-2.58,4.37,4.37,0,0,1-2.22-2.16c-.25-.5-.51-1.26-.92-1.37-2-.56-1.1-2-1.08-3.16,0-.61.78-.56,1.21-.64.77-.15.17.44.26.68s.25.73.35,1c.73.08.69-.7,1.2-1.13.23,1.33.4,2.69,1.38,3.19,1.5.76,2.59,2.09,4.16,2.71a1.61,1.61,0,0,1,1.09,2.16,2,2,0,0,0,.5,2.06c1.13,1.64,2.4,3.3,1.88,5.55.45,0,1,.19,1.25,0,.49-.3,1.76-.09,1.14-1.35a1.46,1.46,0,0,0,2-.4c.29-.56-.63-.89-1.07-1.3s-1.09-.47-1-1.22c-.67-1.42,2-1.42,1.23-2.89,0,0,.1-.06.15,0,.89.06,2.17-.21,2.62.27,1.3,1.43,1.85-.16,2.62-.49s0-1-.15-1.37c-.47-.85-.06-1.44.32-2.09.21-.35.56-.66.63-1a17.36,17.36,0,0,1,1.86-4.17,1.9,1.9,0,0,1,2.25-1.12c-.11,1.11,2.33.81,1.34,2.4l.44.11c.37.12.68.36.64.76-.1,1.1.52.7,1,.53a12.38,12.38,0,0,0,2-.71,2,2,0,0,1,2.64.61,13.59,13.59,0,0,0,3.5,2.94,1.7,1.7,0,0,1,.93,1.8,1.79,1.79,0,0,1-1.48,1.41,7.71,7.71,0,0,1-5.34-.65,7,7,0,0,0-2.91-.9c-.31.41-.64.47-1,0l-.61.16c-.08.39-.36.46-.69.46a.21.21,0,0,0-.27.09c-1.3.86-3.14.42-4.28,1.71-.07.09-.3,0-.45.06-3,.45-3.17,0-2.25,3.22,0,.16.22.28.34.42-1.32.64.25.84.2,1.29-.28,1.42.67,1.73,1.75,1.9.15-.33-.05-.89.57-.91a.34.34,0,0,1,.38.38c0,.61-.56.45-.92.57a2.78,2.78,0,0,1,.42.42c.6.91,1.15,1.5,2,.15.48-.78,1.27-.38,1.75,0a2.34,2.34,0,0,0,3.21,0,10.21,10.21,0,0,1,1.94-.81,5.25,5.25,0,0,0-.37,1.66c.43,2.2-.61,4.06-1.31,6-.51,1.41-1.25,2.46-3.14,2.19a5.48,5.48,0,0,0-3.37.35c-.55.3-1.07.6-1.65.1a3.57,3.57,0,0,1-3.71-.82l-.67-.05a14.17,14.17,0,0,0-4.88-2.17c-1.06-.27-2,1.15-1.82,2.4a1.43,1.43,0,0,1-1.69,1.58c-1.78-.43-3.79-.48-4.75-2.47-.26-.54-.81-.62-1.25-.83-1.43-.68-3.17-.67-4.27-2-.22-.29-.7-.66-.45-.86,1.63-1.28-.19-3.36,1.16-4.68.14-.14.07-.49-.15-.49-.86,0-1.41-1.13-2.51-.45a5.12,5.12,0,0,1-2.68.22c-3.16,0-6.29-.34-9.24,1.28-1.54.85-3.11,1.78-5.08,1.42-.76-.13-1.54.1-2-.79-.27-.58-.6-.25-.79,0a3.1,3.1,0,0,0-.69,1.33,3.18,3.18,0,0,1-2.38,2.85c-1.22.47-2.4,2.7-1.87,3.88,1,2.19.08,3.69-1.34,5.1l-.21.2h0l-.29.25a11.8,11.8,0,0,0-2,1.79c-1.21,1.59-1.14,3.59-2.14,5.2-.4.66-.66.9-1.5.83a28.34,28.34,0,0,0-12.51,1.69c-2.8,1.09-5.88,1.52-8.38,3.39-.17.12-.49.06-.74.08a1.57,1.57,0,0,0,.25.52,64.23,64.23,0,0,0,15,10.4A62.67,62.67,0,0,0,240,171.42a60.51,60.51,0,0,0,25.05-8,54.35,54.35,0,0,0,12.87-9.9c0-1.49.49-3.12-1.13-4.18a.24.24,0,0,1,0-.15c.22-3.34-1.35-6.25-2.25-9.32,0-.13,0-.29.07-.46.62.12.47.72.71,1.06s.38,1,1.22.47,1.07.26,1.36.91a49,49,0,0,0,2.38,5.34c.66,1.11-.09,2.34,0,3.52,1-.26,1.46-1.11,2-1.8a62,62,0,0,0,13.54-32.21c-.77-.31-.91-1-1.07-1.7s.08-1.3-.79-1.87c-.58-.38.4-1.49.56-2.29C294.68,109.75,295.23,109.74,296.05,110.12ZM251.3,82a1.63,1.63,0,0,1-1.53,1c-.37,0-.41-.38-.28-.54a5.53,5.53,0,0,1,1.36-1.33C251.06,81,251.34,81.52,251.3,82ZM273,81.29c-.1.13-.21.23-.33.06l0,0h.09a1,1,0,0,0-.3-1c-.23-.45-.42-.92-.68-1.36s-.66-.53-.15-1,.78-.1,1.12,0a2.88,2.88,0,0,1,.74.53c.6.49,1.3,1.07,1.26,1.82C274.65,81.26,273.52,80.9,273,81.29Zm9.71,3.9c.28.22.09.62-.19.78-1.05.58-1.19-.63-2.05-.89A1.57,1.57,0,0,1,282.68,85.19Zm-5.92-6.68,1.24-1c-.07.93,1.57,1.37.86,2.88A7.39,7.39,0,0,0,276.76,78.51Zm5.92,32.06a3,3,0,0,1-3.84,0c-.29-.33-.86-.4-.91-1.1,1.34.38,2.37-.55,3.59-.73.53-.07,1-.51,1.55-.06C282.42,109.18,283.26,110,282.68,110.57Zm9.42,15.61c-.35.2-.59,0-.72-.28a3.61,3.61,0,0,1-.45-2.25c.93.38,1,1.24,1.45,1.82C292.64,125.82,292.39,126,292.1,126.18Z" transform="translate(-171.51 -34.73)"/><path class="cls-3" d="M234.25,98.62c-2.92-.56-5.66.54-8.53.92,0-.61.52-.89.76-1.3.42-.73.41-.87-.27-1.38-.35-.26-.39-.67.07-.84,1.72-.65.25-2.15,1.13-3.07.71.51,1.6.79,1.87-.75.1-.53-1-2-1.42-1.89-1.31.31-1.66-.08-1.13-1.33.09-.2-.06-.49-.09-.75l.09-.32-.35,0c-.2,0-.42.08-.46-.23a7.35,7.35,0,0,1,1.23-5.34,1.43,1.43,0,0,1,1.94-.5c.66.53-.2,1-.5,1.34s-.7.46-.57,1c.14.26.32.14.5,0,.69-.33,1.63-.44,2,0s-.07,1.23-.51,1.87a1.82,1.82,0,0,0,.09,2.26c1.24,1.83,3.08,3.4,3.38,5.76.08.59.2.39.48.27a.92.92,0,0,1,1.29.48,1.31,1.31,0,0,1-.42,1.51c-.46.44-2,.53-.42,1.54.06,0-.13.46-.21.71Z" transform="translate(-171.51 -34.73)"/><path class="cls-3" d="M218,68.34c-1.54.93-2.78,2.54-4.87,2.34,0,0-.13-.05-.14,0-1.12,2-2.41,1-3.74.27a.9.9,0,0,0-1.11.29s-.39-.08-.54-.2-.12-.35.11-.45.92-.15.65-.74a1,1,0,0,0-1.2-.47,5,5,0,0,1-.56.06,2.09,2.09,0,0,0,.76-1.72A1.52,1.52,0,0,1,210,66.63c.83.76.88-.35,1.37-.43,1.4-.22,3,.11,4.15-.82.61-.5.74-.33,1.19,0,.61.51.54,1.5,1.42,1.82C218.26,67.29,218.37,68.12,218,68.34Z" transform="translate(-171.51 -34.73)"/><path class="cls-3" d="M219.89,93.31c0-.71,1.39-.71.56-1.62,0,0,.08-.25.09-.25,1.46.31,1.61-1,2.29-1.71s2.58.21,2.72,1.27c0,.25.17.55-.14.64-1.37.41-1.1,1.36-.86,2.35a1.31,1.31,0,0,1-.63,1.59c-1.11.59-1.89,2-3.47,1.46-.75-.27-1.39-.49-.38-1.44S221.05,93.86,219.89,93.31Z" transform="translate(-171.51 -34.73)"/><path class="cls-3" d="M243.88,120.81c.2-1.16-.59-2,.54-2.58.3-.14.54-.28.83-.09.74.5.65,3.59-.17,3.77C243.85,122.17,243.84,121.24,243.88,120.81Z" transform="translate(-171.51 -34.73)"/><path class="cls-3" d="M252.65,124a2.1,2.1,0,0,1-.34,2.17c-.58.44-1.19-.47-1.82-.73a6.15,6.15,0,0,1-.88-.59c-.28-.17-.57-.36-.4-.7s.57-.21.82-.13A3.7,3.7,0,0,0,252.65,124Z" transform="translate(-171.51 -34.73)"/><path class="cls-3" d="M245.14,114.47a2.25,2.25,0,0,1,.25,1.51c-.08.51.06,1.16-.55,1.44-.13.06-.52-.17-.6-.36-.28-.58-.54-1.23,0-1.82A8.46,8.46,0,0,1,245.14,114.47Z" transform="translate(-171.51 -34.73)"/><path class="cls-3" d="M249.36,89.55c.27.46-.2,1-.75,1s-1.25-.29-1.22-1c0-.88,1.15-.62,1.62-1.26C249.23,88,249.29,88.88,249.36,89.55Z" transform="translate(-171.51 -34.73)"/><path class="cls-3" d="M229,103.3c-.73.33-2.35-.51-1.85,1.41-.3.09-.85.42-.77-.15s-.31-1.3.5-1.55A2,2,0,0,1,229,103.3Z" transform="translate(-171.51 -34.73)"/><path class="cls-3" d="M277.09,128.91c.15.69-.21.91-.65,1.13s-1.23.42-1.46-.21.61-.52,1-.7A4.19,4.19,0,0,1,277.09,128.91Z" transform="translate(-171.51 -34.73)"/><path class="cls-3" d="M269.87,136.5a3.57,3.57,0,0,1-3.71-.82C267.45,135.7,268.54,136.64,269.87,136.5Z" transform="translate(-171.51 -34.73)"/><path class="cls-3" d="M262.09,85.09c-.52-.18-.93-.48-.92-1,0-.64.69-.43,1.06-.58s.73,0,.68.37A1.57,1.57,0,0,1,262.09,85.09Z" transform="translate(-171.51 -34.73)"/><path class="cls-3" d="M253.08,60.45c.39.24,1.06.07.92.7a1.15,1.15,0,0,1-1.16.86c-.31,0-.7-.12-.56-.51S252.47,60.47,253.08,60.45Z" transform="translate(-171.51 -34.73)"/><path class="cls-3" d="M257.78,85.88c-.15.59-.15,1.24-.88,1.28-.4,0-.41-.44-.37-.7a1.29,1.29,0,0,1,.86-1.13C257.82,85.23,257.76,85.66,257.78,85.88Z" transform="translate(-171.51 -34.73)"/><path class="cls-3" d="M277.59,117.08c-.31.41-.64.47-1,0A.75.75,0,0,1,277.59,117.08Z" transform="translate(-171.51 -34.73)"/><path class="cls-3" d="M276,117.25c-.08.39-.36.46-.69.46Z" transform="translate(-171.51 -34.73)"/><path class="cls-3" d="M211.69,57l.07-.21c.23.18,0,.15-.09.19Z" transform="translate(-171.51 -34.73)"/><path class="cls-3" d="M271.32,125.87c0,.61-.56.45-.92.57l0,0c.15-.33-.05-.89.57-.91A.34.34,0,0,1,271.32,125.87Z" transform="translate(-171.51 -34.73)"/><path class="cls-3" d="M273,81.29c-.1.13-.21.23-.33.06l0,0h.09Z" transform="translate(-171.51 -34.73)"/></g><path class="cls-4" d="M230.86,117s0,.07,0,.09a1.53,1.53,0,0,0,.48.11s.06,0,.06,0,0,0-.05,0a.59.59,0,0,1-.33.15c-.1,0-.11.07-.11.15a3.31,3.31,0,0,0,.18.84c0,.09.11.14.17.21a.22.22,0,0,1,.05.14.11.11,0,0,0,0,.08.44.44,0,0,1-.15.39.89.89,0,0,1-.33.15.07.07,0,0,1-.06,0l-.18-.15,0,0c0-.18-.15-.27-.24-.39l-.38-.45-.06-.06c0,.15,0,.28,0,.42s0,.39,0,.59a.46.46,0,0,0,.11.28l.83,1.09c.06.07.05.07,0,.1a3.58,3.58,0,0,1-1,.16l-.06,2.28-.68-2.23h-.32a.19.19,0,0,0-.15-.15,2.81,2.81,0,0,1-.74-.32s0,0,0,0,0,0,.08,0h.28s.07,0,.07-.06,0,0-.06,0a5.72,5.72,0,0,0-.58,0,.24.24,0,0,0-.09,0,1.19,1.19,0,0,1-.22.12v0l.05-.08a2.15,2.15,0,0,1,.45-.62c.09-.08.09-.16,0-.27l-.11.1s-.09.13-.15.12-.07-.12-.11-.18-.05-.09,0-.15a1.18,1.18,0,0,1,.27-.52s0,0,0-.07-.07-.09-.17,0,0,0-.05,0,0,0,0-.06a.3.3,0,0,1,.16-.22c.11-.07.11-.07,0-.17l-.24-.27h0l.13,0a.27.27,0,0,0,.38,0,.15.15,0,0,0,0-.09c0-.07,0-.14,0-.22s0-.07-.07,0a2,2,0,0,0-.26.11s-.07,0-.07,0,0-.19.06-.26l.11-.12a.57.57,0,0,1,.45-.27.17.17,0,0,0,.14-.16.06.06,0,0,0,0-.08l-.21,0c.1,0,.2-.11.3-.07a.4.4,0,0,0,.37,0l.15-.07s.07,0,.06,0,0,0-.07,0h-.21s0,0,0,0a.28.28,0,0,1,.29-.09l.34.09c0-.07-.07-.11-.08-.18h.06a2.28,2.28,0,0,1,.68.23c.11.07.23.11.34.17s.08,0,.13,0l.89-.69.61-.45a.67.67,0,0,1-.14.19Z" transform="translate(-171.51 -34.73)"/><path class="cls-4" d="M232.78,103.12c-.05.06,0,.07,0,.1a1.52,1.52,0,0,0,.47.1s.06,0,.07,0,0,0,0,.05a.53.53,0,0,1-.34.15c-.09,0-.1.07-.1.15a2.93,2.93,0,0,0,.18.84c0,.09.11.14.16.21a.15.15,0,0,1,.05.14V105a.4.4,0,0,1-.15.39.92.92,0,0,1-.33.16l-.05,0-.18-.15s0,0,0,0c0-.17-.15-.27-.25-.39l-.38-.45,0-.06c0,.15,0,.28,0,.42s0,.39,0,.59a.45.45,0,0,0,.1.28l.84,1.09c.05.07.05.08,0,.1a3.46,3.46,0,0,1-1,.16l-.06,2.28-.67-2.23h-.32a.21.21,0,0,0-.15-.15,2.68,2.68,0,0,1-.74-.32s0,0,0,0,.05,0,.08,0h.28s.06,0,.06-.06,0,0-.05,0a5.72,5.72,0,0,0-.58,0,.18.18,0,0,0-.1,0,1.39,1.39,0,0,1-.21.11v0a.35.35,0,0,1,0-.08,2,2,0,0,1,.45-.62.19.19,0,0,0,0-.27l-.11.1c-.05,0-.09.13-.16.12s-.06-.12-.1-.18a.16.16,0,0,1,0-.15,1.18,1.18,0,0,1,.27-.52,0,0,0,0,0,0-.07c-.06-.09-.07-.09-.17,0s0,0,0,0,0,0,0-.06a.29.29,0,0,1,.15-.22c.12-.07.12-.07,0-.17l-.24-.27h0a.35.35,0,0,1,.13,0,.28.28,0,0,0,.38-.06.15.15,0,0,0,0-.09c0-.07,0-.14,0-.22s0-.07-.07,0a2,2,0,0,0-.26.11s-.07,0-.07,0,0-.19.06-.26l.11-.12a.57.57,0,0,1,.45-.27.17.17,0,0,0,.14-.16.06.06,0,0,0-.05-.08l-.21,0c.1,0,.19-.11.3-.07a.4.4,0,0,0,.37,0l.15-.07s.07,0,.06,0,0,0-.07,0h-.21s0,0,0,0a.28.28,0,0,1,.29-.09l.34.1c0-.08-.07-.12-.08-.18h.06a2,2,0,0,1,.68.24l.33.16a.09.09,0,0,0,.13,0l.9-.69.61-.45a.55.55,0,0,1-.15.19Z" transform="translate(-171.51 -34.73)"/><path class="cls-4" d="M243.73,101.6c0,.05,0,.07,0,.09a1.53,1.53,0,0,0,.48.11s.06,0,.06,0,0,0-.05.06a.59.59,0,0,1-.33.15c-.1,0-.11.07-.11.15a3.31,3.31,0,0,0,.19.84c0,.09.1.14.16.21a.22.22,0,0,1,.05.14.11.11,0,0,0,0,.08.44.44,0,0,1-.15.39.89.89,0,0,1-.33.15,0,0,0,0,1,0,0l-.19-.14,0,0c0-.18-.15-.27-.24-.39s-.25-.31-.38-.45a.17.17,0,0,0-.06-.06c0,.15,0,.28,0,.42l0,.59a.4.4,0,0,0,.1.28c.28.36.56.72.83,1.09.06.07.06.07,0,.1a3.58,3.58,0,0,1-1,.16l-.06,2.28-.68-2.23h-.32c0-.08-.06-.12-.14-.15a2.55,2.55,0,0,1-.74-.32s0,0,0,0,.06,0,.08,0h.28s.07,0,.07-.06,0-.05-.06-.05a5.62,5.62,0,0,0-.58,0,.32.32,0,0,0-.09,0,1.19,1.19,0,0,1-.22.12v0l.05-.08a2.18,2.18,0,0,1,.46-.62.2.2,0,0,0,0-.27l-.12.1s-.09.13-.15.12-.07-.12-.1-.18a.16.16,0,0,1,0-.15,1.13,1.13,0,0,1,.27-.52s0,0,0-.07-.06-.09-.17,0a0,0,0,0,1-.05,0s0,0,0-.06a.27.27,0,0,1,.15-.22c.11-.07.11-.07,0-.17l-.23-.27v0l.13,0a.27.27,0,0,0,.38,0s0-.05,0-.09,0-.15,0-.22,0-.07-.07,0a1.19,1.19,0,0,0-.26.11s-.07,0-.07,0,0-.19.07-.26a.64.64,0,0,0,.1-.13.59.59,0,0,1,.45-.26.16.16,0,0,0,.14-.16s0-.07,0-.08l-.22,0c.1,0,.2-.11.3-.07a.4.4,0,0,0,.37,0l.16-.07s.06,0,.06,0,0,0-.08,0h-.21s0,0,0,0a.3.3,0,0,1,.3-.09l.34.09c0-.07-.08-.11-.09-.18h.06a2.28,2.28,0,0,1,.68.23c.11.07.23.11.34.17s.08,0,.13,0l.89-.69.61-.46a.48.48,0,0,1-.14.2C244.42,100.79,244.08,101.2,243.73,101.6Z" transform="translate(-171.51 -34.73)"/><path class="cls-4" d="M250.43,102.36c-.05,0,0,.07,0,.09a1.6,1.6,0,0,0,.48.11s.06,0,.07,0,0,0-.05,0a.62.62,0,0,1-.34.15c-.09,0-.1.07-.1.15a2.93,2.93,0,0,0,.18.84c0,.09.11.14.16.21a.17.17,0,0,1,.05.14v.08a.42.42,0,0,1-.15.39.82.82,0,0,1-.33.15s0,0,0,0l-.18-.15s0,0,0,0c0-.18-.15-.27-.25-.39l-.38-.45a.17.17,0,0,0-.06-.06c0,.15,0,.28,0,.42l0,.59a.4.4,0,0,0,.1.28l.84,1.09c0,.07,0,.07,0,.1a3.52,3.52,0,0,1-1,.16l-.06,2.28-.68-2.23h-.32c0-.08-.06-.12-.14-.15a2.55,2.55,0,0,1-.74-.32s0,0,0,0a.12.12,0,0,1,.08,0h.29a.05.05,0,0,0,.06-.06s0,0-.06,0a5.43,5.43,0,0,0-.57,0,.29.29,0,0,0-.1,0,.78.78,0,0,1-.22.12v0l.06-.08a2,2,0,0,1,.45-.62.19.19,0,0,0,0-.27l-.11.1c-.06,0-.1.13-.16.12s-.07-.12-.1-.18a.16.16,0,0,1,0-.15,1.32,1.32,0,0,1,.28-.52,0,0,0,0,0,0-.07c0-.09-.06-.09-.16,0s0,0-.06,0,0,0,0-.06a.29.29,0,0,1,.15-.22c.12-.07.12-.07,0-.17l-.24-.27h0a.25.25,0,0,1,.13,0,.28.28,0,0,0,.38-.06s0,0,0-.09a1.8,1.8,0,0,1,0-.22s0-.07-.07,0a2,2,0,0,0-.26.11s-.07,0-.07,0,0-.19.06-.26l.11-.12a.56.56,0,0,1,.45-.27.17.17,0,0,0,.14-.16s0-.07-.05-.08l-.21,0c.1,0,.19-.11.3-.07a.38.38,0,0,0,.36,0l.16-.07s.07,0,.06-.05,0,0-.08,0h-.21s0,0,0,0a.28.28,0,0,1,.29-.09l.34.09c0-.07-.07-.11-.08-.18H249a2.38,2.38,0,0,1,.68.23,3.41,3.41,0,0,0,.33.17.1.1,0,0,0,.13,0l.9-.69.61-.45a.55.55,0,0,1-.15.19Z" transform="translate(-171.51 -34.73)"/><path class="cls-4" d="M233.24,91.25c-.05.06-.05.08,0,.1a2,2,0,0,0,.48.11s.06,0,.07,0,0,0-.05.06a.65.65,0,0,1-.34.15c-.09,0-.11.06-.11.15a3.52,3.52,0,0,0,.19.84,1.06,1.06,0,0,0,.16.21.21.21,0,0,1,.05.13.27.27,0,0,0,0,.09.39.39,0,0,1-.15.38,1.12,1.12,0,0,1-.33.16s0,0,0,0l-.18-.15s0,0,0,0c0-.18-.15-.27-.25-.4l-.38-.45s0,0-.06-.06c0,.15,0,.29,0,.42l0,.59a.45.45,0,0,0,.1.29l.83,1.08c.06.07.06.08,0,.1a3.18,3.18,0,0,1-1,.16l-.06,2.28-.68-2.23-.05,0h-.27a.16.16,0,0,0-.14-.15,3.25,3.25,0,0,1-.74-.32s0,0,0,0h.37s.06,0,.06,0,0-.06-.06-.06a5.52,5.52,0,0,0-.58,0,.18.18,0,0,0-.09,0,1.14,1.14,0,0,1-.22.12v0a.35.35,0,0,0,.05-.08,2.33,2.33,0,0,1,.46-.62.19.19,0,0,0,0-.26l-.11.09c-.06,0-.1.13-.16.12s-.07-.11-.1-.18a.16.16,0,0,1,0-.15,1,1,0,0,1,.28-.51.06.06,0,0,0,0-.08c0-.09-.06-.09-.17,0s0,0-.05,0,0,0,0-.07a.28.28,0,0,1,.15-.22c.12-.07.11-.07,0-.16l-.24-.27v0a.25.25,0,0,1,.13,0,.28.28,0,0,0,.38-.06s0,0,0-.08,0-.15,0-.22,0-.07-.06-.06-.18.06-.27.11-.06,0-.07,0,0-.19.07-.26a.58.58,0,0,0,.1-.12.57.57,0,0,1,.46-.27c.07,0,.13-.08.14-.16s0-.06-.05-.07l-.22-.05c.1,0,.2-.11.31-.07a.41.41,0,0,0,.36,0l.16-.08s.07,0,.06,0a.09.09,0,0,0-.08,0h-.21s0,0,0,0a.28.28,0,0,1,.29-.09l.34.1c0-.08-.07-.12-.08-.18a0,0,0,0,1,0,0h0a2.13,2.13,0,0,1,.68.24l.33.17a.11.11,0,0,0,.13,0l.9-.68.6-.46c0,.08-.09.13-.14.19Z" transform="translate(-171.51 -34.73)"/><path class="cls-4" d="M293.69,106.49c-.05.06-.05.07,0,.1a1.58,1.58,0,0,0,.48.1s.06,0,.07,0,0,0-.05,0a.56.56,0,0,1-.34.15c-.09,0-.1.07-.1.15a2.93,2.93,0,0,0,.18.84c0,.09.11.14.16.21a.22.22,0,0,1,.05.14s0,.06,0,.08a.42.42,0,0,1-.15.39,1.12,1.12,0,0,1-.33.16l-.05,0-.18-.15s0,0,0,0c0-.17-.15-.27-.25-.39l-.38-.45-.06-.06c0,.15,0,.28,0,.42l0,.59a.4.4,0,0,0,.1.28l.84,1.09c0,.07,0,.08,0,.1a3.52,3.52,0,0,1-1,.16l-.06,2.28-.68-2.23h-.32a.16.16,0,0,0-.14-.14,2.89,2.89,0,0,1-.74-.33s0,0,0,0a.12.12,0,0,1,.08,0h.29a.05.05,0,0,0,.06-.06s0-.05-.06-.05a5.52,5.52,0,0,0-.58,0,.18.18,0,0,0-.09,0,1.13,1.13,0,0,1-.22.11v0l.06-.08a2.1,2.1,0,0,1,.45-.62.2.2,0,0,0,0-.27l-.11.1c-.06,0-.1.13-.16.12s-.07-.12-.1-.18a.16.16,0,0,1,0-.15,1.2,1.2,0,0,1,.28-.52s0,0,0-.07-.06-.09-.16,0,0,0-.06,0,0,0,0-.06a.27.27,0,0,1,.15-.22c.12-.07.11-.07,0-.17l-.24-.27h0a.25.25,0,0,1,.13,0,.28.28,0,0,0,.38-.06s0-.05,0-.09a1.49,1.49,0,0,1,0-.21c0-.06,0-.08-.07-.06a2,2,0,0,0-.26.11s-.07,0-.08,0,0-.19.07-.26l.1-.12a.57.57,0,0,1,.46-.27.18.18,0,0,0,.14-.16s0-.07,0-.08l-.22,0c.1,0,.2-.11.31-.07a.38.38,0,0,0,.36,0l.16-.07s.07,0,.06,0,0,0-.08,0h-.21s0,0,0,0a.28.28,0,0,1,.29-.09l.34.1c0-.08-.07-.12-.08-.18h.06a2.13,2.13,0,0,1,.68.24c.1.06.22.1.33.16a.09.09,0,0,0,.13,0l.9-.69.6-.45c0,.08-.09.13-.14.19Z" transform="translate(-171.51 -34.73)"/><path class="cls-4" d="M249.87,139.35c-.05.06,0,.08,0,.1a1.89,1.89,0,0,0,.47.11s.06,0,.07,0,0,0-.05.06a.59.59,0,0,1-.34.15c-.09,0-.1.06-.1.15a3.08,3.08,0,0,0,.18.84,1.06,1.06,0,0,0,.16.21.14.14,0,0,1,.05.13v.09a.38.38,0,0,1-.15.38.92.92,0,0,1-.33.16s0,0-.05,0l-.18-.15,0,0c0-.18-.15-.28-.25-.4l-.38-.45-.05-.06c0,.15,0,.29,0,.42s0,.4,0,.59a.59.59,0,0,0,.1.29l.84,1.08c0,.07,0,.08,0,.1a3.13,3.13,0,0,1-1,.16l-.06,2.28-.67-2.23,0,0h-.27a.18.18,0,0,0-.15-.15,3.45,3.45,0,0,1-.74-.32s0,0,0,0,.05,0,.08,0h.28s.06,0,.06,0,0-.06-.05-.06a5.72,5.72,0,0,0-.58,0,.18.18,0,0,0-.1,0,1.43,1.43,0,0,1-.21.12v0a.35.35,0,0,1,.05-.08,2.1,2.1,0,0,1,.45-.62.18.18,0,0,0,0-.26l-.11.09c-.05,0-.09.13-.16.12s-.06-.11-.1-.18a.16.16,0,0,1,0-.15,1.1,1.1,0,0,1,.27-.51.05.05,0,0,0,0-.08c-.06-.09-.07-.09-.17,0s0,0,0,0,0,0,0-.07a.31.31,0,0,1,.15-.22c.12-.07.12-.07,0-.17l-.24-.26,0,0a.35.35,0,0,1,.13.05.28.28,0,0,0,.38-.06s0-.05,0-.08,0-.15,0-.22,0-.07-.07-.06a2,2,0,0,0-.26.11s-.07,0-.07,0a.27.27,0,0,1,.06-.26.63.63,0,0,0,.11-.12.57.57,0,0,1,.45-.27c.08,0,.13-.08.14-.16s0-.06-.05-.08l-.21,0c.1,0,.19-.11.3-.07a.4.4,0,0,0,.37,0L248,139s.07,0,.06,0,0-.05-.07-.05h-.21s0,0,0,0a.28.28,0,0,1,.29-.09l.34.1c0-.08-.07-.12-.08-.18h.06a2,2,0,0,1,.68.24l.33.17a.11.11,0,0,0,.13,0l.9-.68L251,138a.55.55,0,0,1-.15.19C250.56,138.55,250.21,139,249.87,139.35Z" transform="translate(-171.51 -34.73)"/><path class="cls-4" d="M239.07,160.35c0,.05,0,.07,0,.09a1.6,1.6,0,0,0,.48.11s.06,0,.07,0,0,0,0,.06a.62.62,0,0,1-.34.15c-.09,0-.1.07-.1.15a2.93,2.93,0,0,0,.18.84c0,.09.11.14.16.21a.17.17,0,0,1,0,.13v.09a.42.42,0,0,1-.15.39.82.82,0,0,1-.33.15s0,0-.05,0l-.18-.14s0,0,0,0c0-.18-.15-.27-.25-.39l-.38-.46-.06-.05c0,.15,0,.28,0,.42l0,.59a.4.4,0,0,0,.1.28l.84,1.09c.05.07.05.07,0,.1a3.52,3.52,0,0,1-1,.16l-.06,2.28-.68-2.23H237a.17.17,0,0,0-.14-.15,2.55,2.55,0,0,1-.74-.32s0,0-.05,0a.12.12,0,0,1,.08,0h.29a.05.05,0,0,0,.06-.06s0,0-.06-.06h-.58l-.09,0a.78.78,0,0,1-.22.12v0l.06-.08a2,2,0,0,1,.45-.62.2.2,0,0,0,0-.27l-.11.1c-.06,0-.1.13-.16.12s-.07-.12-.1-.18a.16.16,0,0,1,0-.15,1.19,1.19,0,0,1,.28-.52,0,0,0,0,0,0-.07c-.05-.09-.06-.09-.16,0a.07.07,0,0,1-.06,0s0,0,0-.06a.29.29,0,0,1,.15-.22c.12-.07.11-.07,0-.17l-.24-.27v0l.13,0a.26.26,0,0,0,.38-.06.09.09,0,0,0,.05-.08,1.64,1.64,0,0,1,0-.22c0-.05,0-.07-.07-.05a1.19,1.19,0,0,0-.26.11s-.07,0-.08,0,0-.19.07-.26l.11-.13a.56.56,0,0,1,.45-.26.17.17,0,0,0,.14-.16s0-.07,0-.08l-.21,0c.1,0,.19-.11.3-.07a.38.38,0,0,0,.36,0l.16-.07s.07,0,.06-.05,0,0-.08,0H237s0,0,0,0a.28.28,0,0,1,.29-.09l.34.09c0-.07-.07-.11-.08-.18h.06a2.38,2.38,0,0,1,.68.23,3.41,3.41,0,0,0,.33.17.1.1,0,0,0,.13,0l.9-.69.61-.46a.59.59,0,0,1-.15.2Z" transform="translate(-171.51 -34.73)"/><path class="cls-4" d="M234.05,137.68c-.05,0-.05.07,0,.09a1.6,1.6,0,0,0,.48.11s.06,0,.07,0,0,0-.05.05a.62.62,0,0,1-.34.15c-.09,0-.1.07-.1.15a2.93,2.93,0,0,0,.18.84c0,.09.11.14.16.21a.17.17,0,0,1,.05.14.21.21,0,0,0,0,.08.42.42,0,0,1-.15.39.82.82,0,0,1-.33.15,0,0,0,0,1,0,0l-.18-.15,0,0c0-.18-.15-.27-.25-.39s-.25-.31-.38-.45l-.06-.06c0,.15,0,.28,0,.42l0,.59a.4.4,0,0,0,.1.28l.84,1.09c0,.07,0,.07,0,.1a3.52,3.52,0,0,1-1,.16l-.06,2.28-.68-2.23H232c0-.08-.06-.12-.14-.15a2.55,2.55,0,0,1-.74-.32s0,0,0,0a.12.12,0,0,1,.08,0h.29a.05.05,0,0,0,.06-.06s0-.05-.06-.05a5.52,5.52,0,0,0-.58,0l-.09,0a.78.78,0,0,1-.22.12v0l.06-.08a2,2,0,0,1,.45-.62.2.2,0,0,0,0-.27l-.11.1c-.06,0-.1.13-.16.12s-.07-.12-.1-.18a.16.16,0,0,1,0-.15,1.25,1.25,0,0,1,.28-.52,0,0,0,0,0,0-.07c-.05-.09-.06-.09-.16,0a.07.07,0,0,1-.06,0s0,0,0-.06a.29.29,0,0,1,.15-.22c.12-.07.11-.07,0-.17l-.24-.27h0a.4.4,0,0,1,.13,0,.27.27,0,0,0,.38-.05s0,0,0-.09a1.8,1.8,0,0,1,0-.22s0-.07-.07,0a2,2,0,0,0-.26.11s-.07,0-.08,0,0-.19.07-.26l.11-.12a.54.54,0,0,1,.45-.27.18.18,0,0,0,.14-.16s0-.07,0-.08l-.21,0c.09,0,.19-.11.3-.07a.38.38,0,0,0,.36,0l.16-.07s.07,0,.06-.05,0,0-.08,0H232s0,0,0,0a.28.28,0,0,1,.29-.09l.34.09c0-.07-.07-.11-.08-.18h.06a2.38,2.38,0,0,1,.68.23,3.41,3.41,0,0,0,.33.17.1.1,0,0,0,.13,0l.9-.69.6-.45c0,.08-.09.13-.14.19Z" transform="translate(-171.51 -34.73)"/><path class="cls-4" d="M245.37,75.15c-.05.06,0,.08,0,.1a2,2,0,0,0,.48.11s.06,0,.07,0,0,0-.05.05a.63.63,0,0,1-.34.16c-.09,0-.1.06-.1.15a3.08,3.08,0,0,0,.18.84.78.78,0,0,0,.16.2.19.19,0,0,1,.05.14V77a.4.4,0,0,1-.15.38,1,1,0,0,1-.33.16s0,0-.05,0l-.18-.15s0,0,0,0c0-.17-.15-.27-.25-.39l-.38-.45s0,0-.06-.06c0,.15,0,.29,0,.42l0,.59a.45.45,0,0,0,.1.29l.84,1.08c0,.07,0,.08,0,.1a3.52,3.52,0,0,1-1,.16l-.06,2.28-.68-2.23-.05,0h-.27a.16.16,0,0,0-.14-.15,3.25,3.25,0,0,1-.74-.32s0,0,0-.05a.12.12,0,0,1,.08,0h.29a.05.05,0,0,0,.06-.06s0,0-.06,0a5.52,5.52,0,0,0-.58,0,.18.18,0,0,0-.09,0,1.13,1.13,0,0,1-.22.11v0l.06-.08a2.1,2.1,0,0,1,.45-.62.18.18,0,0,0,0-.26l-.11.09c-.06,0-.1.13-.16.12s-.07-.11-.1-.18a.16.16,0,0,1,0-.15,1.32,1.32,0,0,1,.28-.52,0,0,0,0,0,0-.07c0-.09-.06-.09-.16,0s0,0-.06,0,0,0,0-.06a.29.29,0,0,1,.15-.22c.12-.07.11-.07,0-.17L242,76.2v0a.25.25,0,0,1,.13,0,.28.28,0,0,0,.38-.06s.05,0,.05-.09a1.49,1.49,0,0,1,0-.21c0-.06,0-.08-.07-.06a2,2,0,0,0-.26.11s-.07,0-.08,0,0-.19.07-.26a1.31,1.31,0,0,0,.11-.12.56.56,0,0,1,.45-.27.17.17,0,0,0,.14-.16.07.07,0,0,0-.05-.08l-.21,0c.1,0,.19-.11.3-.07a.38.38,0,0,0,.36,0l.16-.07s.07,0,.06,0,0-.05-.08-.05h-.21s0,0,0,0a.28.28,0,0,1,.29-.09l.34.1c0-.08-.07-.12-.08-.18a0,0,0,0,1,0,0h0a2.13,2.13,0,0,1,.68.24,3.36,3.36,0,0,0,.33.16.09.09,0,0,0,.13,0l.9-.69.61-.45a.55.55,0,0,1-.15.19Z" transform="translate(-171.51 -34.73)"/><path class="cls-4" d="M222.94,118.2c-.05.06,0,.08,0,.1a1.53,1.53,0,0,0,.48.11s.05,0,.06,0,0,0,0,.06a.59.59,0,0,1-.33.15c-.1,0-.11.07-.11.15a3.4,3.4,0,0,0,.18.84c0,.09.11.14.16.21a.14.14,0,0,1,0,.13v.09a.39.39,0,0,1-.14.38.92.92,0,0,1-.33.16s0,0-.06,0l-.18-.14,0,0c0-.18-.15-.27-.24-.39l-.38-.46a.34.34,0,0,1-.06-.06c0,.15,0,.29,0,.42s0,.4,0,.6a.52.52,0,0,0,.11.28l.83,1.08c.06.07.05.08,0,.11a3.58,3.58,0,0,1-1,.15l-.05,2.28-.68-2.23,0,0h-.27a.19.19,0,0,0-.15-.15,3.19,3.19,0,0,1-.74-.32s0,0,0,0,.05,0,.08,0h.28s.07,0,.07,0a.05.05,0,0,0-.06-.06,5.66,5.66,0,0,0-.58,0,.19.19,0,0,0-.1,0,.88.88,0,0,1-.21.12v0a.56.56,0,0,0,0-.08A2.1,2.1,0,0,1,220,121a.18.18,0,0,0,0-.26l-.11.09c-.05,0-.09.14-.15.12s-.07-.11-.11-.17-.05-.1,0-.16a1.1,1.1,0,0,1,.27-.51.05.05,0,0,0,0-.08c-.06-.08-.07-.09-.17,0s0,0,0,0,0,0,0-.06a.3.3,0,0,1,.16-.22c.11-.07.11-.08,0-.17l-.24-.27,0,0,.13,0a.28.28,0,0,0,.38-.06.1.1,0,0,0,0-.08c0-.08,0-.15,0-.22s0-.07-.07,0a1.19,1.19,0,0,0-.26.11s-.07,0-.07,0a.27.27,0,0,1,.06-.26.63.63,0,0,0,.11-.12.6.6,0,0,1,.45-.27c.08,0,.13-.08.14-.16s0-.06-.05-.07l-.21,0c.1,0,.19-.11.3-.06a.44.44,0,0,0,.37,0l.15-.07s.07,0,.06,0,0,0-.07,0h-.21s0,0,0,0a.33.33,0,0,1,.29-.09l.34.1c0-.08-.07-.12-.08-.18h.06a2.3,2.3,0,0,1,.68.24l.33.17a.12.12,0,0,0,.14,0l.89-.69.61-.46a.67.67,0,0,1-.14.19C223.63,117.4,223.28,117.8,222.94,118.2Z" transform="translate(-171.51 -34.73)"/><ellipse class="cls-5" cx="62.32" cy="75.51" rx="62.32" ry="62.31"/></svg>