<svg xmlns="http://www.w3.org/2000/svg" xmlns:xlink="http://www.w3.org/1999/xlink" width="581" height="236" viewBox="0 0 581 236">
    <defs>
        <path id="b" d="M145.609 180.7c-.154.258-.311.52-.468.79a585.759 585.759 0 0 1-4.592 7.436 54.106 54.106 0 0 1-1.643-3.127c-1.174-2.461-2.8-3.021-4.27-2.87l7.904-4.945c.246.023.488.074.722.151 1.47.465 2.1 1.778 2.347 2.565z"/>
        <filter id="a" width="200.2%" height="200.5%" x="-50.1%" y="-32%" filterUnits="objectBoundingBox">
            <feOffset dy="2" in="SourceAlpha" result="shadowOffsetOuter1"/>
            <feGaussianBlur in="shadowOffsetOuter1" result="shadowBlurOuter1" stdDeviation="1.5"/>
            <feColorMatrix in="shadowBlurOuter1" values="0 0 0 0 0 0 0 0 0 0 0 0 0 0 0 0 0 0 0.5 0"/>
        </filter>
    </defs>
    <g fill="none" fill-rule="nonzero">
        <path fill="#B3E2ED" d="M74.382 184.665c36.81-17.282 74.021-34.703 113.795-43.173 27.191-5.79 55.099-7.28 82.88-8.235 24.467-.84 49.073-1.255 73.318 2.139 24.245 3.394 48.278 10.763 68.6 24.41 10.875 7.303 20.81 16.65 26.273 28.56.635 1.38 1.218 2.898.904 4.385-.361 1.72-1.82 2.963-3.217 4.03-17.671 13.481-39.41 20.691-61.281 24.662-53.544 9.727-108.46 1.28-162.84-.896-36.064-1.442-72.626-.154-107.744-8.487-5.6-1.33-11.92-3.567-13.932-8.96-1.022-2.738-.7-5.818-1.6-8.599-1.808-5.6-9.116-8.607-14.344-5.91l-.812-3.926z"/>
        <path fill="#B3E2ED" d="M193.92 142.984c-99.464 36.238-120.098 83.812-120.098 83.812l-.039.236L0 228c8.507-28.105 26.107-48.239 52.8-60.4 40.04-18.242 84.176-35.654 127.142-27.814 2.731.503 5.445 1.073 8.143 1.711M387.627 227.04h-237.44c16.05-37.125 67.637-76.048 67.637-76.048l.28-.162a737.14 737.14 0 0 1 13.392 5.087 2122.343 2122.343 0 0 1 57.548 23.316 2149.85 2149.85 0 0 1 58.52 25.723c10.576 4.836 21.174 9.8 31.027 15.927 3.08 1.92 6.104 3.959 9.022 6.16l.014-.003z"/>
        <path fill="#B3E2ED" d="M580.8 228l-46-.8-331.982-.16a948.475 948.475 0 0 1 10.19-6.482c24.53-15.4 49.775-29.616 76.04-41.317 16.911-7.535 34.243-14.025 52.08-19.113 1.976-.56 3.96-1.107 5.95-1.64 15.38-4.088 30.99-7.076 46.728-9.31l1.14-.16c25.351-3.542 68.254-3.418 93.054.582 14.744 2.378 76.854 70.619 92.8 78.4z"/>
        <path fill="#BCC0C0" d="M218.106 150.83l-.28.162s-51.59 38.923-67.628 76.048H73.783l.04-.235s20.633-47.583 120.097-83.821c8.168 2.2 16.212 4.92 24.186 7.846zM247.996 161.8s1.473-18.889 6.625-28.21l5.642-.49 10.548 39.25-22.815-10.55zM551.2 228l-42.59-.187-.81-.773c-6.524-6.25-51.374-48.563-80.713-59.46-31.701-11.775-83.784-7.7-83.784-7.7s-.919.111-2.181.248c1.976-.56 3.96-1.107 5.95-1.64 15.38-4.088 30.99-7.076 46.729-9.31l1.14-.16c67.143-2.962 129.063 51.167 129.063 51.167L551.2 228z"/>
        <path fill="#282828" d="M449.37 165.577c-.894.56-3.876-6.23-7.3-15.207-4.396-11.48-9.52-26.55-11.99-34.417-.145-.468-.28-.91-.411-1.319-3.94-12.88-7.61-34.138-7.61-34.138.52-2.363 25.992-2.626 25.992-2.626l-.65 1.453-5.387 11.937s-.263 7.09-.263 12.6c0 1.215.803 4.317 2.063 8.472 4.48 14.717 14.824 42.56 16.053 45.624 1.576 3.94-8.4 6.302-10.497 7.621z"/>
        <path fill="#060707" d="M430.08 115.953c2.467 7.868 7.594 22.937 11.99 34.417l-.577 12.844h-.025c-.56-.095-9.436-1.68-9.694-5.247 0 0-2.105-17.066-2.105-28.093.011-3.354.168-8.464.411-13.921zM450.96 79.444s-6.569 22.321-6.832 26.79c-.05.773-.154 2.974-.3 6.101-1.26-4.155-2.063-7.257-2.063-8.473 0-5.513.263-12.6.263-12.6l5.387-11.936 3.545.118z"/>
        <path fill="#FFF" d="M449.367 165.574l-1.168 3.64c-.775 2.428-1.358 4.175-2.814 4.273-1.456.098-4.858.193-3.206 2.912 1.652 2.719 4.08 3.301 6.7 3.01 2.621-.291 8.157-6.118 11.458-7.672 3.301-1.554 3.206-2.038 1.943-4.855-1.262-2.817-4.08-6.02-4.08-6.02l-8.833 4.712zM440.04 169.604c-2.724.481-7.185-2.716-11.365-3.005-4.18-.288-4.567-1.85-4.855-3.987-.289-2.136 1.358-1.456 3.883-1.65 2.526-.192 4.066-3.004 4.066-3.004.257 3.568 9.139 5.152 9.693 5.248h.026s1.274 5.916-1.448 6.398z"/>
        <path fill="#C9DEEF" d="M470.28 70.136c-1.551.731-4.172.538-6.028.482h-.661c-3.005 0-3.36-10.08-4.517-13.546-1.156-3.467-5.208-7.177-5.208-7.177s-2.315 6.72-2.548 10.184c-.232 3.463.465 16.444.465 19.684 0 3.24-25.695 2.315-30.332 2.427-4.637.112-.115-14 .12-18.519.235-4.519.577-14.588.577-14.588s-3.472 5.096-5.32 10.416c-1.848 5.32-2.08 7.067-2.892 9.495-.28.787-.91 1.165-1.714 1.31-1.47.25-3.48-.28-4.74-.532-.18-.03-.348-.064-.493-.08-1.736-.233-.465-4.862-.465-4.862s.812-5.908.812-9.727 10.304-24.892 10.884-26.74c.58-1.848 11.807-6.487 14.82-6.6 3.013-.111 10.53-.111 10.53-.111s12.273 5.552 14 7.98c1.728 2.427 8.104 14.708 8.68 17.603.578 2.895 3.473 14.812 5.097 19.564.613 1.834.053 2.822-1.067 3.337z"/>
        <path fill="#F7B8A0" d="M442.594 21.78l-10.425.18-.033-.62a8.478 8.478 0 0 0-2.218-.136c-1.12.103-1.12-1.224-1.12-2.453 0-1.23-.202-5.659 0-7.048.24-1.233.54-2.454.902-3.657.184-.652.327-1.12.327-1.12.412.07 1.294 1.703 1.294 1.703.384-.164.782-.29 1.19-.378.854-.202.17 3.64.17 4.67 0 1.03 1.776 3.987 3.134 5.354 1.358 1.366 6.51-.073 6.51-.073l.042.56.227 3.018z"/>
        <path fill="#282828" d="M447.69 8.945c-.12 2.573-4.727 9.22-4.727 9.22l-.602.611-.042-.56s-5.143 1.43-6.51.073c-1.366-1.358-3.133-4.329-3.133-5.365 0-1.036.683-4.872-.17-4.67a6.555 6.555 0 0 0-1.19.378s-.883-1.633-1.294-1.703c0 0-.143.465-.328 1.12l-.202-1.495a7.157 7.157 0 0 1 .958-3.64c1.075-1.912 5.152-2.274 6.824-2.274 1.671 0 3.606-1.092 5.801 1.56 2.195 2.652 4.735 4.172 4.615 6.745z"/>
        <path fill="#F7B8A0" d="M414.23 79.34c0 .636-.42 1.873-.7 1.938-.28.064-.224-1.594-.224-1.874s-.7-1.142-.7-.764c0 .378 1.148 3.842.761 4.575-.386.734-2.54 1.238-3.206.32-.666-.919-1.904-1.96-2.54-3.022-.635-1.061.065-4.163.065-5.04 0-.817-.193-5.04-.224-5.698 1.26.241 3.27.781 4.74.532-.064.795-.145 1.759-.232 2.716-.218 2.386.86 2.604 1.271 3.497.412.894.989 2.184.989 2.82zM472.366 92.78c-.412 1.22-2.918 2.8-5.25 2.8s-1.518-1.168-.53-3.265c.95-2.002-.48-3.841-.626-4.001.047.199.459 1.831.459 2.604 0 .773-.412 1.574-.877 1.63-.464.056-.588-2.627-.588-4.436 0-1.808 1.4-4.261 1.4-6.067 0-1.658-1.808-10.041-2.114-11.424 1.857.056 4.48.249 6.029-.482.409 3.304 1.092 8.873 1.453 10.794.532 2.8 1.285 2.63 1.464 6.07.18 3.442-.411 4.545-.82 5.777z"/>
        <path fill="#D0E9F4" d="M262.878 123.72c0 .574-.618.512-1.22.316l-1.907-3.64.778 3.145s.871 4.177.871 5.939c0 1.76-6.577 1.643-8.4 1.702-1.823.059-.585-1.644-.118-3.581.194-.798.398-1.68.56-2.45-.324.056-1.136-.367-1.565-.367-.529 0 0-3.464 0-4.052 0-.588.412-3.463.412-4.169 0-.705 3.228-1.232 3.228-1.232s4.99 0 5.401.82c.412.821 1.96 6.449 1.96 7.569z"/>
        <path fill="#060707" d="M261.613 135.31c-.263 1.234-.188 3.56-.434 5.168l-1.885-4.86s-.28-.77-.28-.454-1.75 1.318-1.75 1.318l-.033 1.056c-.034-.126-.056-.196-.056-.196l.053.328c.12.77.395 2.696.28 3.516-.04.423 0 .85.118 1.258.256.89.39 1.81.4 2.735-.03 1.607-.036 4.083-.036 4.701v.143l-1.812-.075s0-.037-.036-.107c-.227-.7-1.473-4.628-1.4-6.877.075-2.478.445-3.032-.185-4.214-.63-1.181-1.997-8.06-1.997-8.06l8.468-1.12s1.03 3.67.585 5.74z"/>
        <path fill="#F8FCFC" d="M258.32 135.463c.022.84-1.739 1.462-2.28 1.14a.512.512 0 0 1-.206-.235c-.208-.451.078-1.269.408-1.843.4-.7.079-.621.12-1.461.043-.84 1.6-.639 1.6-.639.062.076.12.156.173.238.04.428.022.86-.053 1.283-.095.758.204.677.238 1.517z"/>
        <path fill="#71C0E8" d="M258.121 132.663a2.783 2.783 0 0 0-.173-.238.314.314 0 0 1 .173.238zM258.247 136.023c-.174.26-.382.495-.619.7 0 0-1.54.42-1.78-.199a.448.448 0 0 1-.028-.156c.042.098.115.18.207.235.54.322 2.301-.3 2.279-1.14-.022-.84-.32-.759-.238-1.517.075-.424.093-.855.053-1.283.19.278.322.591.387.921.1.62-.26.7-.12 1.04.248.45.192 1.007-.14 1.4z"/>
        <path fill="#D0E9F4" d="M258.393 152.185s-1.249.246-1.717.151c-.467-.095-.224-.384-.61-.725-.386-.342-1.075-.56-.82-1.1.235-.51.576-.121.896-.67.025.07.036.107.036.107l1.812.075v-.143c.072.045.114.076.114.076s1.036 2.016.289 2.229z"/>
        <path fill="#282828" d="M261.179 140.478c-.171 1.086-.487 1.842-1.157 1.708-1.663-.333-2.142-1.296-2.326-2.55a16.192 16.192 0 0 0-.462-2.098l.033-1.056s1.75-1.005 1.75-1.318c0-.314.28.453.28.453l1.882 4.861z"/>
        <path fill="#71C0E8" d="M251.482 126.128l1.426.28"/>
        <path fill="#F8FCFC" d="M251.482 121.225s.824-.745 1.426-.28c.602.465.504 2.753.484 3.699a2.9 2.9 0 0 1-.462 1.546l-1.308-.222s-.462-3.558-.14-4.743z"/>
        <path fill="#71C0E8" d="M254.235 118.865l-1.117 2.61.28 3.614z"/>
        <path fill="#F7B8A0" d="M251.715 126s-.235.615-.375.946c-.14.33-.56.966-.362 1.232.2.266 1.288.865 1.608.49.319-.376.165-1.151.28-1.12.114.03.254.456.196-.135-.06-.59-.118-1.229-.118-1.229s-1.218-.3-1.23-.185z"/>
        <path fill="#060707" d="M254.266 115.645s-1.255-1.364-1.078-2.663c.176-1.3-.023-2.66 1.254-3.058 1.277-.397 3.718-.218 3.718 1.232s-.968 2.862-.33 4.268c.638 1.405 3.29 4.6 3.29 4.6l-6.854-4.38z"/>
        <path fill="#71C0E8" d="M261.658 124.042a7.84 7.84 0 0 1-1.12-.49l-.779-3.144 1.899 3.634z"/>
        <path fill="#282828" d="M170.252 137.524c0 1.82-.222 4.598-.588 7.893-.737 6.583-2.064 15.207-3.464 22.38-1.058 5.477-2.142 10.111-3.016 12.32-2.584 6.603-23.066 33.441-23.066 35.558 0 .79-.745.21-1.87-.896-1.921-1.873-4.942-5.275-7.311-6.16a.596.596 0 0 1-.325-.294c-.56-1.106 1.201-4.783 3.85-9.372 1.476-2.562 3.226-5.41 4.998-8.26l1.09-1.755a585.759 585.759 0 0 0 4.591-7.437c.157-.28.314-.532.468-.79 1.008-1.697 1.876-3.225 2.52-4.48l.145-.28c.647-1.313 1.025-2.304 1.025-2.859 0-.77-.022-1.96-.059-3.388-.173-6.386-.646-17.556-.646-17.556l-4.945-4.004c-4.942-4-8.943-8.008-8.476-15.066.468-7.06 8.946-16.24 8.946-16.24 4.71 0 24.248 4.706 26.133 7.767 1.884 3.06 0 4.679 0 12.919z"/>
        <path fill="#060707" d="M167.785 166.865l-1.585.933c1.4-7.174 2.722-15.8 3.458-22.38 2.596 3.774 6.079 9.203 6.532 11.798.748 4.206-8.405 9.65-8.405 9.65zM149.3 173.064c0 .56-.379 1.546-1.026 2.86l-2.142-2.748 3.108-3.5c.037 1.428.06 2.618.06 3.388z"/>
        <path fill="#C9DEEF" d="M190.93 112.8c0 2.542-2.456 2.881-3.982 3.64-1.526.759-4.068-1.442-4.323-2.206a14.56 14.56 0 0 1-.171-1.795c.16-.661.322-1.431.473-2.288.538-3.08.636-18.544.636-18.544l-1.865 4.48s-.426 1.19-1.36 3.396c-.936 2.207-7.205 12.04-8.138 14.658-.932 2.618-.506 14.75-2.035 13.65-1.529-1.1-27.292-8.055-30.176-8.055-2.884 0 5.427-7.97 6.53-11.27 1.019-3.058 1.895-15.014 2.016-16.8l.28-.146.173-5.477-13.52 6.009.162.087c-1.96.932-6.964 8.067-8.784 8.54a.86.86 0 0 1-.753-.065c-.75-.58.095-3.116-.6-4.855a1.91 1.91 0 0 0-1.629-1.246 4.295 4.295 0 0 0-1.935.314c.087-.678 8.901-10.76 10.43-11.2 1.445-.395 23.397-8.271 27.104-9.08.144-.039.291-.062.44-.07.792 0 3.452.167 6.294.35.216.016.426.027.641.039 3.055.204 6.16.414 7.222.456.728.028 2.654.484 4.905 1.12 4.265 1.201 9.683 3.027 10.346 3.802 1.03 1.196.434 7.636 1.529 14.356s.09 15.68.09 18.2z"/>
        <path fill="#71C0E8" d="M148.582 108.482a.997.997 0 0 1-.145.314c-.087.106-.028-.011.145-.314z"/>
        <path fill="#060707" d="M181.054 61.025c.002.375-.027.75-.087 1.12-.588 3.976-4.222 6.14-5.068 6.496-.707.38-1.379.824-2.007 1.325-1.18.865-2.38 1.825-2.38 1.825s-.77.77-4.153 2.772c-.176.104-.35.21-.512.325l-.21.14a9.76 9.76 0 0 0-2.411 2.433c-1.4 2.002-2.45 4.797-3.791 8.96-1.907 5.922-10.475 19.659-11.853 22.056.754-2.24 1.68-14.135 2.548-19.681.63-4.05 5.39-10.388 8.342-14.227.134-.177.263-.345.392-.507.635-.823 1.162-1.5 1.506-1.98a2.52 2.52 0 0 0 .454-.75c0-.694-1.616-8.308-1.616-11.388s6.079-10.539 11.998-9.15c5.92 1.389 8.848 5.536 8.848 10.231z"/>
        <path fill="#F7B8A0" d="M180.967 62.145c-.045 1.703-.389 10.873-1.993 14.314l-.387-.107c-2.089-.728-3.769-4.099-4.695-6.386.628-.5 1.3-.944 2.007-1.325.846-.361 4.48-2.52 5.068-6.496z"/>
        <path fill="#CEA79B" d="M178.587 76.352c-2.08-.576-3.83-.98-4.519-1.008-1.061-.042-4.166-.252-7.221-.456.162-.115.336-.221.512-.325 3.383-2.002 4.153-2.772 4.153-2.772s1.2-.96 2.38-1.825c.926 2.287 2.606 5.658 4.695 6.386z"/>
        <path fill="#D0E9F4" d="M148.997 86.054l-.174 5.466-.28.146c0-.146.02-.227.02-.227l-.597.087c-.588.08-10.34.506-11.95.506a.84.84 0 0 0-.37.107l-.162-.087 13.513-5.998zM183.56 91.624s-.098 15.47-.636 18.544a37.82 37.82 0 0 1-.473 2.288c-.302-4.61-.756-16.347-.756-16.347l1.865-4.485z"/>
        <path fill="#EFE5E9" d="M150.565 229.997c-.28 3.144-1.23 5.465-4.234 5.465s-5.32.07-7.313.07c-1.994 0-19.483-7.518-19.483-7.518s4.853-11.964 6.286-11.69c.132.023.263.052.392.087 1.3.322 2.52 1.045 3.027 2.783.56 1.913 1.982 3.08 3.828 1.983 1.66-.98 2.326-2.627 3.936-1.557.206.138.399.293.577.465 2.047 1.915 3.758 5.261 6.698 6.219 2.94.957 6.56.548 6.286 3.693z"/>
        <path fill="#CEA79B" d="M138.248 214.779l-1.244 4.841c-1.61-1.07-2.276.577-3.936 1.557-1.846 1.103-3.268-.07-3.828-1.977-.496-1.739-1.728-2.461-3.027-2.783l4.399-8.092c.067.135.183.24.325.294 2.369.885 5.39 4.287 7.31 6.16z"/>
        <path fill="#D0E9F4" d="M140.55 188.926l-1.09 1.756c-1.772 2.85-3.522 5.698-4.998 8.26-.042-1.215-.106-3.758.028-5.39.174-2.206-1.196-7.042-1.196-7.042s-.24-3.394 1.255-3.576a.398.398 0 0 1 .081 0c1.47-.15 3.097.41 4.27 2.87a59.879 59.879 0 0 0 1.65 3.122z"/>
        <path fill="#F7B8A0" d="M148.21 172.972l-.081 3.242c-.644 1.26-1.512 2.8-2.52 4.48-.247-.786-.877-2.1-2.347-2.564l4.948-5.158z"/>
        <g>
            <use fill="#000" filter="url(#a)" xlink:href="#b"/>
            <use fill="#EFE5E9" xlink:href="#b"/>
        </g>
        <path fill="#F7B8A0" d="M126.101 100.626c-.344.669-.669 1.282-.899 1.643-.722 1.168-1.38 2.772-3.57 5.25s-4.152 1.896-5.32 1.896c-1.167 0-5.39-.221-6.778-1.313-1.39-1.092 4.734.148 3.43-.216-1.305-.364-4.377-1.96-5.32-4.012-.944-2.053 4.519 1.022 5.18.512.66-.51 6.056-4.007 6.056-4.007l5.004-5.855a1.91 1.91 0 0 1 1.63 1.246c.682 1.74-.163 4.276.587 4.856z"/>
    </g>
</svg>
