<svg xmlns="http://www.w3.org/2000/svg" width="320" height="275" viewBox="0 0 320 275">
    <defs>
        <linearGradient id="a" x1="0%" y1="50%" y2="50%">
            <stop offset="0%" stop-color="#C3E5F2"/>
            <stop offset="22%" stop-color="#C4DCED"/>
            <stop offset="58.269%" stop-color="#C5C4DF"/>
            <stop offset="100%" stop-color="#E7317B"/>
        </linearGradient>
    </defs>
    <g fill="none" fill-rule="evenodd" transform="translate(-977)">
        <path fill="url(#a)" fill-opacity=".5" fill-rule="nonzero" d="M.223 96.365C78.873 82.97 230.67 76.272 455.616 76.272c123.624 0 294.874 16.114 499.632 20.16 93.064 1.839 263.115-8.157 468.048-9.408 27.62-.169 66.148 3.303 115.584 10.416v169.68c-8.96 7.84-47.488 10.864-115.584 9.072-68.096-1.792-390.656-4.816-967.68-9.072L.223 96.365z" opacity=".93"/>
        <path fill="#71C0E8" d="M1290.752.151a4.94 4.94 0 0 0 1.16 1.45 1065.69 1065.69 0 0 0 8.227 9.285c.378.416.328.567-.201.731a14.326 14.326 0 0 1-3.78.82c-.19 0-.492 0-.53.188-.037.19.253.29.391.416a5.04 5.04 0 0 0 2.697 1.172c.743.126.844.504.844 1.146a22.49 22.49 0 0 1-1.474 6.426c-.202.668-.857 1.071-1.26 1.6a1.36 1.36 0 0 0-.378 1.021 3.78 3.78 0 0 1 0 .655 3.05 3.05 0 0 0 1.26 2.974 8.266 8.266 0 0 0 2.633 1.184c.151 0 .302 0 .428-.138.48-.378.97-.744 1.437-1.122.1-.075.24-.201.252-.302.126-1.336 1.26-2.066 1.99-2.986.996-1.185 2.017-2.331 3.037-3.49.152-.155.312-.302.479-.441 0 1.159-.088 2.18-.139 3.2-.088 1.512-.201 3.037-.252 4.549a3.427 3.427 0 0 1-.806 2.18c-2.268 2.734-4.473 5.506-6.703 8.278-.441.554-.416.592.277.806a28.98 28.98 0 0 0 7.787 1.197c1.978 0 3.944.252 5.922.39.132.027.262.06.39.101h2.193a1.26 1.26 0 0 1 1.134-1.134 23.335 23.335 0 0 0 5.77-2.507c.152-.076.366-.1.391-.328a.995.995 0 0 0-.655-.088h-2.255c-.315 0-.53-.088-.542-.44-.013-.354.189-.404.479-.43 1.55-.138 3.087-.1 4.636-.113.27.029.528.12.756.265a8.404 8.404 0 0 0 1.74.895v-.265a6.438 6.438 0 0 1-.417-.605 17.451 17.451 0 0 0-3.628-4.75 1.36 1.36 0 0 1-.152-2.016c.29.24.58.504.882.718.303.214.756 1.02 1.26.933.504-.089.555-.895.832-1.361a1.26 1.26 0 0 0 .202-1.172c-.58-1.399-.908-2.936-2.205-3.956a.365.365 0 0 1 0-.567c.466-.668.541-.693 1.348-.315.138.063.29.214.44.126.152-.089 0-.315 0-.48a2.155 2.155 0 0 0-1.26-1.688c-.919-.516-.881-.554-.188-1.26.693-.705 1.26-1.348 1.89-2.028l-.088-.139a5.04 5.04 0 0 0-1.059.366 2.28 2.28 0 0 1-3.036-.441.932.932 0 0 1-.391-.668c0-.542 0-1.096-.1-1.638-.102-.542.113-.567.541-.416.72.214 1.42.492 2.092.832.214.126.554.315.592-.164 0-.706.176-1.45-.53-2.004a4.435 4.435 0 0 1-.869-.945 4.65 4.65 0 0 0-3.616-2.028 1.336 1.336 0 0 1-1.134-1.26.454.454 0 0 1 .39-.567c.568-.164 1.147-.214 1.727-.353-.807-.252-1.575-.819-2.445-.517-.93.4-1.99.358-2.885-.113-.403-.227-.844-.34-1.26-.542-.176-.088-.53-.088-.466-.365.063-.277.34-.353.605-.353h1.701c.252 0 .277-.113.126-.302a2.52 2.52 0 0 0-2.37-.693l-2.72.743c.1-.605.579-.907.654-1.386 0 0-.088-.076-.126-.076a1.562 1.562 0 0 0-.34 0 18.119 18.119 0 0 0-5.468 1.802c-.857.492-1.802.832-2.684 1.26a.857.857 0 0 1-1.046-.088c-2.381-1.777-4.788-3.515-7.182-5.267l-4.952-3.402zM1111.669 37.006c.217.421.512.797.869 1.109 2.066 2.344 4.141 4.683 6.224 7.018.29.315.252.429-.15.555-.936.345-1.917.553-2.911.617-.139 0-.353 0-.391.139-.038.138.189.214.29.327.581.485 1.29.79 2.041.882.567.088.643.378.643.87a16.884 16.884 0 0 1-1.122 4.85c-.151.517-.642.807-.97 1.26a1.008 1.008 0 0 0-.29.77c.013.167.013.335 0 .503-.148.86.203 1.729.907 2.243a6.224 6.224 0 0 0 1.979.895.353.353 0 0 0 .34-.101l1.083-.844c.076 0 .177-.152.19-.24.088-1.008.907-1.562 1.499-2.255.756-.895 1.524-1.764 2.293-2.634.088-.1.189-.176.365-.34 0 .882 0 1.65-.1 2.42-.063 1.146-.152 2.293-.19 3.452a2.52 2.52 0 0 1-.617 1.638 315.045 315.045 0 0 0-5.04 6.3c-.34.428-.315.44.202.605 1.915.57 3.899.88 5.897.92 1.499 0 2.986.188 4.473.29.103.012.205.038.302.075h1.575c.066-.446.412-.798.857-.87a17.552 17.552 0 0 0 4.548-1.94c.114 0 .278 0 .29-.24.013-.239-.327-.062-.491-.075h-1.714c-.227 0-.39 0-.403-.328-.013-.327.151-.302.365-.327 1.16-.101 2.331-.076 3.503-.088.202.024.395.093.567.201.394.272.817.5 1.26.68v-.201a3.654 3.654 0 0 1-.315-.454 13.104 13.104 0 0 0-2.747-3.59 1.033 1.033 0 0 1-.113-1.525c.214.176.441.378.668.542.227.163.58.768.945.693.365-.076.416-.668.617-1.021a.907.907 0 0 0 .164-.895 6.54 6.54 0 0 0-1.676-2.986c-.151-.126-.164-.252 0-.428.353-.504.416-.53 1.02-.24.114 0 .215.164.328.101.114-.063 0-.24 0-.365a1.6 1.6 0 0 0-.92-1.26c-.705-.39-.68-.429-.15-.983l1.436-1.537-.076-.101a3.289 3.289 0 0 0-.794.277 1.739 1.739 0 0 1-2.305-.34.718.718 0 0 1-.29-.491c0-.416 0-.832-.088-1.26-.089-.429.1-.429.428-.315.543.161 1.07.372 1.575.63.164.088.416.239.441-.126.025-.366.139-1.097-.403-1.512a3.503 3.503 0 0 1-.643-.719 3.528 3.528 0 0 0-2.747-1.524 1.02 1.02 0 0 1-.844-.933.353.353 0 0 1 .29-.44c.428-.114.857-.164 1.26-.265-.617-.19-1.197-.618-1.852-.39a2.52 2.52 0 0 1-2.218-.165c-.302-.163-.63-.252-.945-.403-.315-.151-.403 0-.365-.277a.466.466 0 0 1 .466-.265h.718c.189.013.378.013.567 0 .164 0 .214-.088.101-.226a1.89 1.89 0 0 0-1.79-.53l-2.066.567c.076-.453.441-.693.504-1.058h-.352c-1.44.235-2.835.694-4.133 1.36-.655.379-1.374.643-2.041.984a.643.643 0 0 1-.782-.076c-1.801-1.336-3.628-2.659-5.443-3.982l-3.603-2.608z"/>
        <path fill="#71C0E8" d="M1134.11 96.44l.251-10.584.114 24.293s-.076-34.196.138-36.792c.214-2.595 0-7.56 0-7.56l-16.027.605.353 29.673 15.17.365z"/>
        <path fill="#71C0E8" fill-rule="nonzero" d="M1134.613 65.747s1.45 6.602 2.067 9.614c.617 3.011-3.516 8.82-3.516 8.82l-.617-11.403 2.066-7.031z"/>
        <path fill="#71C0E8" d="M1265.3 0a5.04 5.04 0 0 1-1.096 1.462 1354.028 1354.028 0 0 1-7.862 9.298c-.366.416-.328.555.189.719 1.178.457 2.418.738 3.679.831.176 0 .454 0 .491.19.038.188-.226.289-.365.415a4.675 4.675 0 0 1-2.583 1.172c-.706.126-.794.504-.794 1.159.147 2.196.606 4.36 1.361 6.426.202.68.819 1.071 1.26 1.6.26.274.392.644.365 1.02a2.848 2.848 0 0 0 0 .656 3.2 3.2 0 0 1-1.146 2.986 7.812 7.812 0 0 1-2.52 1.185c-.151.063-.29 0-.416-.139l-1.323-1.121c-.088-.089-.227-.202-.227-.303-.126-1.348-1.159-2.079-1.902-2.999-.958-1.184-1.928-2.33-2.898-3.49-.114-.126-.24-.24-.467-.453 0 1.171.089 2.192.139 3.213.076 1.524.189 3.036.227 4.56.01.794.285 1.562.781 2.18 2.155 2.735 4.271 5.52 6.4 8.291.43.555.391.593-.264.807a27.065 27.065 0 0 1-7.434 1.26c-1.89 0-3.78.252-5.657.39-.13.016-.258.05-.378.101h-2.092a1.26 1.26 0 0 0-1.083-1.146c-2-.568-3.91-1.416-5.67-2.52-.139-.089-.353-.101-.366-.328.19-.151.416-.088.63-.088h2.142c.303 0 .517-.088.517-.441s-.177-.403-.454-.429c-1.474-.138-2.948-.113-4.435-.113a1.512 1.512 0 0 0-.718.265c-.52.359-1.077.659-1.663.894v-.264a6.3 6.3 0 0 0 .403-.605 16.758 16.758 0 0 1 3.465-4.75 1.436 1.436 0 0 0 .151-2.029c-.29.24-.554.504-.857.718-.302.214-.718 1.02-1.184.933-.466-.089-.53-.882-.794-1.361a1.26 1.26 0 0 1-.252-1.172c.567-1.399.87-2.923 2.117-3.956.201-.164.201-.328 0-.567-.441-.668-.517-.693-1.26-.315-.126.075-.265.226-.416.126-.151-.101 0-.315 0-.467a2.142 2.142 0 0 1 1.172-1.7c.882-.517.857-.555.189-1.26l-1.802-2.08a.517.517 0 0 0 .088-.138c.352.092.694.218 1.02.378.93.658 2.215.457 2.899-.454a.92.92 0 0 0 .365-.655c0-.554 0-1.096.114-1.65.113-.555-.114-.568-.53-.416-.689.211-1.355.49-1.99.831-.215.126-.542.315-.567-.151 0-.718-.164-1.462.504-2.016.318-.272.594-.591.819-.945a4.397 4.397 0 0 1 3.465-2.029 1.26 1.26 0 0 0 1.07-1.26c0-.315 0-.478-.365-.567-.542-.163-1.083-.226-1.65-.365.768-.252 1.499-.819 2.33-.517a3.112 3.112 0 0 0 2.81-.214c.366-.214.794-.34 1.185-.529.176-.088.516-.088.453-.378-.063-.29-.315-.34-.58-.34h-.906c-.24.012-.48.012-.719 0-.201 0-.264-.101-.113-.29a2.28 2.28 0 0 1 2.255-.706l2.596.756c-.088-.617-.542-.92-.617-1.398 0 0 .088-.076.126-.076.104-.012.21-.012.315 0a16.77 16.77 0 0 1 5.229 1.928c.831.491 1.726.844 2.52 1.26a.781.781 0 0 0 .995-.1c2.285-1.765 4.574-3.52 6.867-5.268L1265.3 0z"/>
        <path fill="#71C0E8" d="M1235.262 96.44l1.386-31.752-.139 32.18s.089-45.296-.176-48.736c-.265-3.44 0-10.08 0-10.08l20.236.794.214 57.582-21.521.012z"/>
        <path fill="#71C0E8" fill-rule="nonzero" d="M1236.333 38.065s-1.827 8.744-2.608 12.713c-.781 3.969 4.435 11.668 4.435 11.668l.781-15.12-2.608-9.261z"/>
        <path fill="#71C0E8" d="M1074.171 35.557c-.228.479-.55.907-.945 1.26-2.23 2.671-4.486 5.33-6.741 7.976-.315.365-.277.479.164.63a11.34 11.34 0 0 0 3.15.706c.151 0 .39 0 .428.163.038.164-.201.24-.315.353a4.032 4.032 0 0 1-2.217 1.008c-.605.114-.68.429-.68.983a20.16 20.16 0 0 0 1.196 5.519c.177.58.706.92 1.059 1.373.222.233.336.548.315.87a2.823 2.823 0 0 0 0 .567 2.734 2.734 0 0 1-.983 2.52c-.65.47-1.38.816-2.155 1.02-.138 0-.252 0-.365-.126l-1.172-.957c-.088 0-.202-.164-.202-.265-.1-1.147-.995-1.777-1.638-2.52a79.373 79.373 0 0 0-2.52-2.999c-.125-.139-.26-.27-.403-.39 0 1.008.088 1.877.126 2.759.063 1.26.164 2.608.202 3.906-.004.68.233 1.34.668 1.865 1.852 2.356 3.654 4.737 5.48 7.119.366.479.34.516-.214.693-2.07.645-4.22.993-6.388 1.033-1.613 0-3.238.214-4.85.34a1.058 1.058 0 0 0-.328.088h-1.79a1.096 1.096 0 0 0-.932-.982 19.14 19.14 0 0 1-4.864-2.105c-.113-.075-.29-.088-.315-.29.164-.125.366-.062.542-.075h1.84c.264 0 .44-.076.44-.378s-.15-.34-.39-.365c-1.26-.114-2.52-.089-3.78-.101-.22.03-.43.107-.617.227-.442.312-.92.57-1.424.768v-.227c.12-.164.23-.337.328-.516a14.88 14.88 0 0 1 2.986-4.083 1.26 1.26 0 0 0 .126-1.726l-.731.618c-.353.264-.617.869-1.02.793-.404-.075-.454-.768-.681-1.171a1.084 1.084 0 0 1-.164-1.008 7.56 7.56 0 0 1 1.802-3.39c.176-.151.176-.29 0-.491-.39-.58-.454-.605-1.109-.265-.113 0-.24.177-.365.101-.126-.076 0-.265 0-.403a1.865 1.865 0 0 1 1.008-1.462c.756-.44.73-.479.164-1.109-.567-.63-1.034-1.159-1.55-1.751l.075-.113c.297.07.585.176.857.315a1.814 1.814 0 0 0 2.52-.378.794.794 0 0 0 .315-.567c0-.48 0-.945.088-1.424.089-.479-.088-.479-.453-.353-.586.192-1.155.432-1.701.718-.19.101-.454.277-.479-.138 0-.605-.151-1.26.428-1.727.271-.235.508-.506.706-.806a3.78 3.78 0 0 1 2.974-1.739c.511-.102.89-.537.92-1.058 0-.277 0-.416-.328-.492-.328-.075-.933-.189-1.411-.315.667-.214 1.26-.693 2.003-.44.784.329 1.679.263 2.407-.177.315-.189.68-.302 1.02-.466.151-.076.441-.076.39-.315a.479.479 0 0 0-.503-.303h-.769a5.166 5.166 0 0 1-.617 0c-.177 0-.227-.1-.101-.252a1.966 1.966 0 0 1 1.928-.604l2.23.642c-.076-.516-.466-.781-.53-1.197 0 0 .076-.063.102-.063a.983.983 0 0 1 .277 0c1.569.264 3.084.783 4.485 1.537.706.429 1.475.731 2.193 1.122a.68.68 0 0 0 .857-.088 521.087 521.087 0 0 1 5.896-4.524c1.374-.907 2.71-1.915 4.045-2.898z"/>
        <path fill="#71C0E8" d="M1050.03 96.44l-.442-5.392.441 5.392s-.491-16.644-.705-19.593c-.214-2.948 0-8.643 0-8.643l17.35.68.265 27.556h-16.91z"/>
        <path fill="#71C0E8" fill-rule="nonzero" d="M1049.324 68.204s-1.575 7.497-2.243 10.911c-.668 3.415 3.78 10.005 3.78 10.005l.668-12.953-2.205-7.963z"/>
        <path fill="#71C0E8" d="M1235.955 41.58a3.44 3.44 0 0 1-.87 1.084 597.884 597.884 0 0 1-6.3 6.88c-.29.314-.264.415.152.541.94.34 1.925.543 2.923.605.139 0 .365 0 .403.138.038.139-.189.215-.302.315-.586.484-1.3.786-2.054.87-.554.088-.643.365-.643.844a16.38 16.38 0 0 0 1.134 4.763c.152.504.643.794.97 1.184a.983.983 0 0 1 .303.756 2.142 2.142 0 0 0 0 .492 2.28 2.28 0 0 1-.92 2.205c-.606.406-1.28.7-1.99.869a.353.353 0 0 1-.34-.1l-1.097-.832c-.076 0-.176-.139-.189-.227-.088-.983-.92-1.525-1.512-2.205-.756-.882-1.537-1.726-2.306-2.596l-.365-.327c0 .856 0 1.625.1 2.381.064 1.121.152 2.243.19 3.377.004.59.224 1.16.617 1.6 1.726 2.029 3.402 4.095 5.103 6.136.34.416.315.441-.202.605-1.93.556-3.925.857-5.934.895-1.512 0-3.012.176-4.511.29a1.323 1.323 0 0 0-.302.075h-1.664a.995.995 0 0 0-.856-.857 17.892 17.892 0 0 1-4.524-1.814c-.113 0-.277 0-.302-.24a.781.781 0 0 1 .504-.063h1.789c.24 0 .403 0 .416-.327.012-.328-.151-.303-.366-.315-1.171-.101-2.356-.088-3.528-.088-.206.02-.404.09-.58.201-.415.266-.859.486-1.322.655v-.201c.115-.14.22-.287.315-.441a12.6 12.6 0 0 1 2.772-3.516 1.008 1.008 0 0 0 .113-1.499c-.227.176-.44.365-.68.53-.24.163-.58.755-.945.692-.366-.063-.429-.655-.63-1.008a.895.895 0 0 1-.164-.87 6.3 6.3 0 0 1 1.688-2.935c.152-.113.164-.24 0-.416-.352-.504-.415-.516-1.033-.24-.1 0-.214.165-.327.102-.114-.063 0-.24 0-.353.072-.553.424-1.03.932-1.26.706-.378.68-.416.151-.958l-1.461-1.537.075-.1c.278.063.548.156.807.276a1.777 1.777 0 0 0 2.318-.327.743.743 0 0 0 .29-.492c0-.403 0-.819.088-1.26.088-.44-.1-.415-.428-.302-.545.159-1.076.36-1.588.605-.164.1-.416.24-.441-.101-.025-.34-.139-1.084.403-1.5a3.05 3.05 0 0 0 .643-.692 3.566 3.566 0 0 1 2.772-1.5c.46-.077.812-.455.857-.92 0-.226 0-.352-.303-.428-.302-.076-.87-.164-1.26-.265.605-.176 1.26-.604 1.852-.378a2.633 2.633 0 0 0 2.243-.163c.29-.152.63-.252.945-.391.315-.139.416-.063.366-.277-.05-.214-.265-.252-.467-.252h-1.298c-.163 0-.214-.088-.088-.227a1.915 1.915 0 0 1 1.802-.517l2.067.555c-.076-.441-.441-.68-.492-1.033h.353a14.59 14.59 0 0 1 4.158 1.335c.655.366 1.373.618 2.041.958a.668.668 0 0 0 .794-.076c1.814-1.26 3.641-2.595 5.481-3.893a183.68 183.68 0 0 1 3.654-2.495z"/>
        <path fill="#71C0E8" d="M1212.128 97.285l.996-7.875.302 6.199s-.34-15.901-.554-18.46c-.214-2.557 0-7.446 0-7.446l16.128.58-.403 25.742-16.469 1.26z"/>
        <path fill="#71C0E8" fill-rule="nonzero" d="M1212.872 69.703s-1.462 6.477-2.08 9.412c-.617 2.936 3.541 8.631 3.541 8.631l.618-11.176-2.08-6.867z"/>
        <path fill="#6F9AD1" d="M988.92 200.44l12.574-4.334-78.888-99.237H897.04zM1149.708 212.184l12.575-4.334-95.344-111.41h-16.91zM1216.45 208.404l12.575-4.334-92.749-108.045h-18.635zM1274.965 133.762l12.574-4.335-30.34-32.558-21.937-.429z"/>
        <path fill="#6F9AD1" d="M1331.715 202.847l25.162 1.777-121.476-107.881-23.714-.718z"/>
        <path fill="#71C0E8" d="M1072.319 5.179a4.94 4.94 0 0 0 1.109 1.398 889.97 889.97 0 0 0 7.875 8.82c.352.403.315.542-.202.706a13.999 13.999 0 0 1-3.68.794c-.176 0-.453-.076-.503.163-.05.24.24.278.378.404a4.7 4.7 0 0 0 2.583 1.121c.705.126.806.479.806 1.096a21.924 21.924 0 0 1-1.411 6.149c-.202.643-.819 1.02-1.26 1.525a1.26 1.26 0 0 0-.365.97c.025.213.025.429 0 .642a2.948 2.948 0 0 0 1.159 2.835 7.56 7.56 0 0 0 2.52 1.134.428.428 0 0 0 .416-.126l1.373-1.07c.1-.089.227-.19.24-.29.113-1.26 1.159-1.979 1.902-2.86.958-1.135 1.94-2.23 2.91-3.34.145-.153.301-.297.467-.428 0 1.109-.101 2.092-.151 3.062-.076 1.461-.177 2.91-.227 4.36a3.276 3.276 0 0 1-.781 2.078c-2.155 2.621-4.272 5.28-6.401 7.926-.429.529-.403.567.252.768a27.72 27.72 0 0 0 7.459 1.147c1.89 0 3.78.24 5.657.378.13.02.256.054.378.1h2.092a1.26 1.26 0 0 1 1.096-1.095 23.31 23.31 0 0 0 5.683-2.344c.126-.088.34-.1.365-.315a.932.932 0 0 0-.63-.088h-2.154c-.303 0-.517-.076-.517-.429 0-.352.176-.378.454-.403 1.474-.126 2.96-.1 4.435-.113.26.03.51.121.73.264.52.346 1.078.63 1.664.845v-.252c-.146-.181-.28-.37-.403-.567a16.493 16.493 0 0 0-3.478-4.549 1.26 1.26 0 0 1-.139-1.928c.278.227.555.479.845.693.29.214.73.97 1.26.882.529-.088.529-.844.793-1.26a1.26 1.26 0 0 0 .19-1.134 8.29 8.29 0 0 0-2.105-3.78c-.201-.151-.214-.315 0-.542.441-.642.517-.667 1.26-.302.139.076.277.214.416.126.139-.088 0-.302 0-.454a2.104 2.104 0 0 0-1.184-1.625c-.882-.491-.845-.53-.177-1.26l1.802-1.903-.088-.138a5.292 5.292 0 0 0-1.008.353 2.192 2.192 0 0 1-2.91-.429.882.882 0 0 1-.366-.63c0-.516-.063-1.046-.101-1.575-.038-.529.113-.542.53-.39.686.203 1.352.468 1.99.793.214.114.53.303.567-.15 0-.681.164-1.387-.517-1.916a4.688 4.688 0 0 1-.819-.907 4.46 4.46 0 0 0-3.578-1.94 1.26 1.26 0 0 1-1.084-1.185.441.441 0 0 1 .378-.542c.542-.151 1.097-.214 1.651-.34-.769-.24-1.5-.781-2.331-.491a3.238 3.238 0 0 1-2.81-.215c-.378-.201-.806-.315-1.197-.504-.176-.088-.516-.088-.453-.352.063-.265.327-.34.58-.34h.906c.24.018.48.018.719 0 .201 0 .264-.114.126-.29a2.381 2.381 0 0 0-2.268-.668l-2.596.718c.088-.58.542-.882.617-1.336h-.441c-1.822.3-3.586.882-5.229 1.727-.831.466-1.726.806-2.52 1.26a.819.819 0 0 1-.995-.089c-2.28-1.688-4.586-3.364-6.88-5.04-1.55-1.096-3.112-2.192-4.674-3.313z"/>
        <path fill="#71C0E8" d="M1102.408 97.297l-1.386-30.328.138 30.731s-.088-43.255.177-46.544c.264-3.289 0-9.614 0-9.614l-20.261.756-.227 55h21.559z"/>
        <path fill="#71C0E8" fill-rule="nonzero" d="M1101.337 41.58s1.84 8.354 2.62 12.146c.782 3.793-4.397 11.101-4.397 11.101l-.832-14.427 2.609-8.82z"/>
        <path fill="#71C0E8" d="M1081.24 47.804l-14.528 5.04-16.468 2.306s-11.05.214-9.526.214c1.525 0-4.561 1.462-1.525 1.676 3.037.214 16.683.214 16.683.214l12.36-.428 12.79-2.936.214-6.086zM1025.22 1.399a4.574 4.574 0 0 1-1.096 1.398 913.384 913.384 0 0 1-7.875 8.82c-.366.403-.328.542.189.693 1.182.44 2.42.707 3.679.794.176 0 .454 0 .504.176.05.177-.24.278-.378.404a4.775 4.775 0 0 1-2.583 1.108c-.706.126-.806.48-.806 1.11.171 2.102.646 4.169 1.41 6.135.202.656.82 1.034 1.26 1.538.26.253.399.607.379.97a2.117 2.117 0 0 0 0 .63 2.974 2.974 0 0 1-1.147 2.847c-.77.517-1.622.9-2.52 1.134a.416.416 0 0 1-.416-.138l-1.373-1.071c-.1-.076-.227-.19-.24-.29-.113-1.26-1.159-1.978-1.902-2.86a239.788 239.788 0 0 0-2.91-3.34c-.101-.113-.24-.213-.454-.415 0 1.109.088 2.079.138 3.062.076 1.449.177 2.898.227 4.36.012.758.289 1.489.781 2.066 2.155 2.62 4.272 5.28 6.401 7.925.441.542.403.567-.252.769a28.174 28.174 0 0 1-7.459 1.159c-1.89 0-3.78.24-5.657.365a2.104 2.104 0 0 0-.378.101h-2.092a1.26 1.26 0 0 0-1.084-1.096 22.44 22.44 0 0 1-5.682-2.344c-.139-.075-.353-.088-.378-.315a.995.995 0 0 1 .63-.075h2.154c.303 0 .517-.076.517-.416 0-.34-.176-.39-.454-.403-1.474-.139-2.96-.114-4.435-.114-.255.03-.5.117-.718.252a8.303 8.303 0 0 1-1.663.857v-.252c.126-.189.277-.378.39-.58a16.38 16.38 0 0 1 3.478-4.535 1.323 1.323 0 0 0 .139-1.94c-.278.239-.555.478-.845.692-.29.214-.73.97-1.197.882-.466-.088-.529-.844-.78-1.26a1.147 1.147 0 0 1-.202-1.121 8.29 8.29 0 0 1 2.104-3.78.34.34 0 0 0 0-.542c-.441-.643-.517-.668-1.26-.302-.139 0-.277.201-.416.126-.139-.076 0-.315 0-.467a2.079 2.079 0 0 1 1.184-1.612c.882-.492.845-.53.177-1.26l-1.802-1.953.088-.139a5.04 5.04 0 0 1 1.008.365c.936.626 2.195.441 2.91-.428a.895.895 0 0 0 .366-.63c0-.53.063-1.058.101-1.575.038-.517-.113-.542-.53-.39-.683.204-1.35.465-1.99.78-.214.127-.53.303-.567-.138 0-.693-.164-1.399.517-1.928.314-.257.59-.559.819-.894a4.423 4.423 0 0 1 3.465-1.94 1.26 1.26 0 0 0 1.083-1.185.441.441 0 0 0-.378-.555c-.542-.15-1.083-.201-1.65-.34.768-.24 1.499-.781 2.33-.491a3.226 3.226 0 0 0 2.81-.202c.378-.214.807-.327 1.197-.516.177-.076.517-.076.454-.353-.063-.277-.328-.328-.58-.328h-.907c-.239.013-.479.013-.718 0-.202 0-.265-.1-.126-.277a2.369 2.369 0 0 1 2.331-.567l2.596.718c-.089-.592-.542-.882-.618-1.348h.126c.105-.012.21-.012.315 0 1.793.299 3.528.877 5.141 1.714.832.466 1.726.793 2.583 1.26.31.193.712.157.983-.089l6.88-5.04 4.674-3.376z"/>
        <path fill="#71C0E8" d="M995.169 93.53l1.386-30.328-.139 30.731s.089-43.256-.176-46.557c-.265-3.301 0-9.576 0-9.576l20.26.756.228 55.012-21.559-.038z"/>
        <path fill="#71C0E8" fill-rule="nonzero" d="M996.24 37.8s-1.827 8.354-2.62 12.146c-.795 3.793 4.447 11.139 4.447 11.139l.794-14.465-2.621-8.82z"/>
        <path fill="#71C0E8" d="M1012.544 45.499l14.528 5.04 16.468 2.305s11.05.215 9.526.215c-1.525 0 4.549 1.461 1.525 1.675-3.024.215-16.695.215-16.695.215l-12.348-.429-12.79-2.936-.214-6.085z"/>
        <path fill="#542511" d="M1002.313 40.837s-1.89 2.091-1.84 3.918c.051 1.827 1.991 6.162 1.991 6.162l8.82-6.93s1.26-.101 1.26-.303a3.289 3.289 0 0 0-1.726-2.028c-.894-.202-2.104-1.588-2.633-1.638-.53-.05-3.616-1.21-5.872.819z"/>
        <path fill="#F7B090" d="M1001.834 56.965l.48-6.464.365.516v-.516a4.31 4.31 0 0 1-.845-1.978c0-.87.945-1.424 1.008-.87.063.555.467.618.467.618s-.152-4.486-.101-4.688c.05-.201.264-.201 1.411-.1 1.147.1 6.212.453 6.577.15.366-.302 1.424 7.99.844 9.514-.58 1.524-1.474 1.94-2.205 1.688-.73-.252-.378 1.109-.378 1.109l-1.26 3.868-5.947-.806-.416-2.041z"/>
        <path fill="#FFFAFB" d="M998.634 88.364s-8.203 4.271-7.56 4.574c.643.302 8.82 7.434 14.2 8.442 3.026.52 5.92 1.628 8.518 3.263l25.54-14.452s-4.838-5.393-9.047-5.595c-4.208-.201-13.772-5.808-13.772-5.808l-17.879 9.576z"/>
        <path fill="#E3E2E2" d="M991.339 111.157l-.278-18.22 22.718 11.706-.353 18.245z"/>
        <path fill="#FFFAFB" d="M1039.332 90.19l-.668 18.586-25.238 14.112-.491-19.064z"/>
        <path fill="#120E0A" d="M999.327 93.379a7.56 7.56 0 0 0 7.22 5.493 95.395 95.395 0 0 1 14.666 2.848s-.075 5.695-.075 6.716c0 1.02 4.271 12.75 4.271 12.75l4.838.341s-.277-18.182-.277-19.946c0-1.764-.214-5.62-2.797-6.779-2.583-1.159-12.6-5.972-12.6-5.972s-14.956 4.612-15.246 4.549z"/>
        <path fill="#120E0A" d="M1031.936 114.887l-2.029-12.764-15.775-13.154 4.687-4.75s16.695 5.04 16.758 5.77c.063.731.983 24.142.983 24.142l-4.624.756z"/>
        <path fill="#943152" d="M1024.086 119.36h6.3l.139 1.827s-5.192.882-5.683.214a6.69 6.69 0 0 1-.756-2.041zM1031.369 113.463l5.62-.277v2.734s-5.822.806-5.759-.277c.063-1.084.139-2.18.139-2.18z"/>
        <path fill="#524C46" d="M1025.976 121.804l-.214 1.764 3.578 1.487 1.752-1.764-1.89-1.966z"/>
        <path fill="#F0EFEF" d="M1025.762 124.11s-.844 1.562.353 2.029c1.197.466 7.85 3.465 7.85 3.465s3.44-.48 3.3-1.16c-.138-.68-6.3-5.418-6.3-5.418-.386.5-.98.797-1.612.807-1.046 0-3.579-.265-3.579-.265l-.012.542z"/>
        <path fill="#524C46" d="M1032.566 116.31s-.076 1.349.567 1.424c.642.076 3.011 1.084 3.225.467.168-.44.38-.862.63-1.26l-1.474-1.084-2.948.454z"/>
        <path fill="#F0EFEF" d="M1036.207 121.804s-3.78-1.26-3.78-2.721c-.04-.634.011-1.27.151-1.89.81.31 1.658.514 2.52.604a6.06 6.06 0 0 0 1.827-.882c1.181.339 2.325.795 3.415 1.361.907.605 4.41 3.591 3.15 4.133-1.26.542-3.15 1.424-7.283-.605zM1001.86 55.994s-.29 1.638.907 2.243 5.115 1.764 5.254 1.084c.139-.68.983-3.327.983-3.327a6.943 6.943 0 0 1 1.688-1.55c.655-.403 1.332-.77 2.029-1.096a16.052 16.052 0 0 1 4.145 11c.063 7.12 1.815 20.16 1.815 20.16s-3.78 5.695-7.082 5.973a87.23 87.23 0 0 0-10.798 2.368c-.277.076-2.595 1.021-2.457-1.965.139-2.986.151-10.08.151-10.08s-3.3-6.3-3.44-8.14c-.138-1.84-1.537-6.653-1.474-8.417.063-1.764 4.914-7.37 8.279-8.253z"/>
        <path fill="#C8C8C8" d="M1000.587 66.793l2.255 12.814 10.723 9.223 1.121-.68-11.15-8.946z"/>
        <path fill="#F7B090" d="M1010.516 90.62c.821.64 1.55 1.39 2.167 2.23.504.881 2.52 3.351 3.78 3.351 1.26 0 4.347-.202 2.671-2.066l-1.663-1.853s.958.567.328-.252a4.347 4.347 0 0 0-1.538-1.26 18.51 18.51 0 0 1-1.675-1.738l-4.07 1.587z"/>
        <path fill="#F0EFEF" d="M1016.967 66.919l15.36 3.603-1.828 2.57-13.18-.944z"/>
        <path fill="#F7B090" d="M1006.723 53.084c1.08.69 2.208 1.3 3.377 1.827.378 0 1.99-.907 1.953-1.563-.038-.655-2.167-2.368-2.167-2.368l-3.188 1.94-4.46-2.306M1030.386 73.66a52.139 52.139 0 0 1 6.955-.48c2.104.165 7.12-2.658 7.12-2.658s-.328-1.713-3.403-1.562c-3.074.151 4.209-1.563 1.613-1.096-2.596.466-7.434 1.096-7.434 1.096l-2.91 1.6-1.941 3.1z"/>
        <path fill="#F0EFEF" d="M1040.58 68.342l-7.435 7.497a36.64 36.64 0 0 0 11.794-.932l8.568-1.726 2.91-7.031-15.838 2.192z"/>
        <path fill="#F7B090" d="M1040.58 68.342s-.328 1.084.642 1.399c.97.315.97.315.806-.932-.163-1.248-1.449-.467-1.449-.467z"/>
        <path fill="#020203" d="M1110.081 36.15a7.119 7.119 0 0 1 1.84 3.918c0 1.827-2.004 6.149-2.004 6.149l-8.82-6.918s-1.26-.1-1.26-.302c0-.202.844-1.84 1.739-2.041.895-.202 2.104-1.575 2.633-1.626.53-.05 3.617-1.222 5.872.82z"/>
        <path fill="#F7B090" d="M1110.56 52.277l-.479-6.463-.365.504v-.504a4.31 4.31 0 0 0 .844-1.991c0-.857-.958-1.424-1.008-.857a.592.592 0 0 1-.466.605s.15-4.473.1-4.675c-.05-.201-.264-.201-1.423-.1-1.16.1-6.2.453-6.565.15-.365-.302-1.424 7.989-.844 9.514.58 1.524 1.474 1.927 2.205 1.675.73-.252.365 1.122.365 1.122l1.323 3.868 5.935-.819.378-2.029z"/>
        <path fill="#FFFAFB" d="M1113.76 83.664s8.203 4.271 7.56 4.586c-.642.315-8.82 7.422-14.2 8.442a23.6 23.6 0 0 0-8.518 3.251l-25.502-14.44s4.838-5.405 9.047-5.606c4.208-.202 13.772-5.796 13.772-5.796l17.841 9.563z"/>
        <path fill="#E3E2E2" d="M1121.056 106.457l.277-18.207-22.718 11.693.353 18.258z"/>
        <path fill="#FFFAFB" d="M1073.062 85.504l.668 18.585 25.238 14.112.491-19.064z"/>
        <path fill="#020203" d="M1113.055 88.691s-1.046 5.04-7.22 5.494a93.82 93.82 0 0 0-14.654 2.835s.076 5.695.076 6.716c0 1.02-4.297 12.764-4.297 12.764l-4.838.34s.29-18.182.29-19.946c0-1.764.201-5.632 2.797-6.779 2.595-1.146 12.6-5.972 12.6-5.972s14.968 4.611 15.246 4.548z"/>
        <path fill="#020203" d="M1080.458 110.187l2.029-12.751L1098.3 84.28l-4.7-4.75s-16.72 5.09-16.72 5.758c0 .668-.983 24.155-.983 24.155l4.561.743z"/>
        <path fill="#B2DEEB" d="M1088.308 114.66h-6.3l-.088 1.84s5.191.882 5.683.201a6.665 6.665 0 0 0 .705-2.041zM1081.013 108.763l-5.607-.264v2.772s5.821.819 5.758-.265c-.063-1.084-.151-2.243-.151-2.243z"/>
        <path fill="#000" fill-rule="nonzero" d="M1086.418 117.104l.214 1.764-3.578 1.5-1.751-1.764 1.89-1.966z"/>
        <path fill="#000" fill-rule="nonzero" d="M1086.632 119.41s.832 1.563-.352 2.041c-1.185.48-7.863 3.465-7.863 3.465s-3.427-.478-3.288-1.159c.138-.68 6.3-5.43 6.3-5.43.382.507.977.81 1.612.819 1.046 0 3.579-.278 3.579-.278l.012.542zM1079.828 111.61s.063 1.362-.567 1.425c-.63.063-3.011 1.096-3.225.478a7.156 7.156 0 0 0-.63-1.26l1.474-1.083 2.948.44z"/>
        <path fill="#000" fill-rule="nonzero" d="M1076.174 117.104s3.717-1.26 3.717-2.709a7.46 7.46 0 0 0-.138-1.902c-.811.31-1.658.518-2.52.617a6.376 6.376 0 0 1-1.827-.882 18.03 18.03 0 0 0-3.364 1.361c-.908.605-4.41 3.591-3.15 4.133 1.26.542 3.15 1.424 7.282-.618z"/>
        <path fill="#020203" d="M1110.535 51.307s.277 1.626-.908 2.243c-1.184.617-5.115 1.764-5.266 1.084-.152-.68-.97-3.327-.97-3.327a7.144 7.144 0 0 0-1.689-1.562 21.52 21.52 0 0 0-2.029-1.084 16.04 16.04 0 0 0-4.145 10.987c-.063 7.132-1.814 20.16-1.814 20.16s3.78 5.696 7.08 5.96c3.647.588 7.253 1.4 10.799 2.432.277 0 2.583 1.02 2.444-1.966-.138-2.986-.138-10.08-.138-10.08s3.301-6.3 3.44-8.152c.138-1.852 1.537-6.64 1.474-8.404-.063-1.764-4.914-7.409-8.278-8.29z"/>
        <path fill="#1F1916" d="M1111.795 62.093l-2.243 12.827-10.723 9.223-1.121-.68 11.15-8.96z"/>
        <path fill="#F7B090" d="M1101.878 85.932a11.806 11.806 0 0 0-2.18 2.268c-.49.895-2.456 3.352-3.78 3.352-1.322 0-4.359-.252-2.658-2.092l1.676-1.865s-.958.567-.34-.24c.42-.525.949-.955 1.55-1.26a20.287 20.287 0 0 0 1.675-1.738l4.057 1.575zM1105.658 48.384c-1.074.695-2.199 1.31-3.364 1.84-.378 0-1.99-.92-1.965-1.563.025-.642 2.18-2.369 2.18-2.369l3.187 1.928 4.46-2.306"/>
        <path fill="#020203" d="M1098.93 50.4s-6.791 6.413-9.853 7.976c-3.062 1.562-12.134 5.48-12.134 5.48l-8.883.933.97 3.591s11.958.945 17.136-1.562a35.494 35.494 0 0 0 9.362-7.12l3.402-9.298z"/>
        <path fill="#F0EFEF" d="M1103.29 50.5l-1.777.165v6.88l2.734-2.42zM1111.051 51.446l-6.136 2.81v3.603l6.943-4.385z"/>
        <path fill="#F0EFEF" d="M1101.84 55.667l-3.88 23.776 6.791-22.68z"/>
        <path fill="#E0EEF8" d="M1151.485 185.396s-2.067 1.134-.643 3.642c1.424 2.507 3.503 3.137 5.582 5.783 2.079 2.646 8.165 3.629 9.727 2.886 1.562-.744 4.536-2.142 1.688-4.65-2.847-2.507-5.833-3.893-6.753-5.645-.92-1.751-1.815-1.386-1.815-1.386l-7.786-.63zM1168.482 177.874s-4.662 5.519-.907 6.401c3.755.882 3.893-.126 7.66.995 3.768 1.122 7.27 3.138 9.602 1.26 2.33-1.877 2.52-2.633.907-3.78a33.617 33.617 0 0 0-8.568-4.888l-8.694.012z"/>
        <path fill="#020203" d="M1168.482 177.874s-1.16-8.039-1.424-11.176c-.264-3.137-1.26-6.905-.516-11.176.43-2.199.732-4.42.907-6.653l7.396-30.24 10.08-5.519s1.688 3.39.39 10.66c-1.297 7.27-4.019 23.108-4.674 26.372-.655 3.263-3.112 2.381-2.596 5.77a15.51 15.51 0 0 1 .391 3.894l-.39 18.572s-5.28 3.629-9.564-.504z"/>
        <path fill="#E1A790" d="M1167.965 72.425s4.158 2.885 5.582 2.52a12.083 12.083 0 0 0 3.629-2.634l-4.8-.378-4.41.492z" opacity=".5"/>
        <path fill="#E0EEF8" d="M1164.072 72.299a104.453 104.453 0 0 0-8.82 7.648 36.54 36.54 0 0 0-6.224 8.669s7.648 3.515 7.912 5.04c.265 1.524 2.331-.366 2.331-.366s-2.205-2.52-.78 1.878c1.423 4.397 1.952 12.801 1.952 12.801l-.516 7.157c3.006.774 6.137.946 9.21.504 5.834-.63 15.561-4.145 15.561-4.145s-.642-20.84-.642-21.584c0-.743 2.52-3.78 2.52-3.78s.642 0 .907-3.641c.264-3.642-1.046-8.82-2.52-9.79-1.474-.97-5.708-2.017-7.006-1.135-1.298.882-4.41 3.894-9.21 1.512-4.801-2.381-4.675-.768-4.675-.768z"/>
        <path fill="#1F1916" d="M1159.662 116.235s-.643 8.908-.907 12.802c-.265 3.893-2.596 17.45-3.377 19.202-.781 1.751-5.04 6.3-4.284 13.936.756 7.635-.769 22.478-.769 22.478s9.602 4.133 9.854.995c.252-3.137 1.562-4.762 1.26-10.798-.303-6.035-.391-11.415.655-13.923 1.046-2.507 6.098-13.066 8.946-19.215 2.847-6.149 3.893-17.45 3.893-17.45s6.237-6.15 6.3-8.909c.063-2.76-.516-2.76-.516-2.76l-21.055 3.642z"/>
        <path fill="#E0EEF8" d="M1159.145 93.63s1.55-.39 2.155 5.91c.605 6.3-1.172 14.427-.517 15.12.656.693 1.689 3.78 6.615 3.263 4.927-.516 15.183-3.641 16.607-5.266 1.424-1.626.781-2.382.907-6.527a77.93 77.93 0 0 1 1.588-10.861l1.26-14.062s-1.436-9.79-5.582-10.42c-4.145-.63-21.546 2.52-22.314 5.28-.769 2.759-.719 17.564-.719 17.564z"/>
        <path fill="#F7B090" d="M1185.089 104.429c.346 2.58.476 5.185.39 7.787-.252 2.759-2.457 6.778 0 5.14s4.549 0 3.642-7.018a27.72 27.72 0 0 0-3.251-10.672l-.781 4.763zM1149.67 88.742a72.614 72.614 0 0 0-3.78 7.56c-1.26 3.263-3.515 9.916-1.827 10.66 1.689.743 10.647 5.279 13.104 6.413 2.457 1.134 5.847 2.52 6.49 3.88.642 1.361 1.26 3.642 1.814 4.65.554 1.008 1.436.756 1.045-1.008-.39-1.764.252 2.268 2.331 1.764 2.08-.504 2.596 0 1.424-3.78-1.172-3.78-.907-4.775-3.78-7.03-2.873-2.256-11.68-8.82-12.852-9.413-1.172-.592 3.377-7.157 3.503-7.66.126-.505-1.814-7.032-7.774-6.528"/>
        <path fill="#E1A790" d="M1168.356 65.772l-.756 4.788s-2.722-.126-1.172 1.26c1.55 1.386 7.27 4.523 9.223 2.633a3.982 3.982 0 0 0 1.55-3.515l-8.845-5.166z"/>
        <path fill="#000" fill-rule="nonzero" d="M1181.586 56.108l-4.927 4.259-8.303 5.909s-4.41-4.523-3.893-7.787c.516-3.263 1.814-7.03 5.19-7.409 3.378-.378 11.026 1.386 11.933 2.886.907 1.5 0 2.142 0 2.142z"/>
        <path fill="#F7B090" d="M1169.39 63.756c-.454-.1-2.206-2.885-2.848-1.877-.643 1.008-.202 2.381 1.814 3.893s5.582 5.519 7.132 5.77c1.55.253 4.674-.755 5.19-3.389.517-2.633-.251-9.412-.251-9.412l-8.694.252s-1.298 5.015-2.344 4.763z"/>
        <path fill="#E5E5E4" d="M1211.7 121.59h-47.464c15.74-2.15 31.699-2.15 47.439 0h.025z"/>
        <path fill="#FFF" fill-rule="nonzero" d="M1186.109 128.129h2.671v60.745h-2.671z"/>
        <path fill="#E5E5E4" d="M1220.785 121.59v3.629c0 2.898-14.705 5.241-32.836 5.241s-32.76-2.343-32.76-5.241v-3.629h65.596z"/>
        <ellipse cx="1187.949" cy="121.59" fill="#FFF" fill-rule="nonzero" rx="32.823" ry="5.242"/>
        <path fill="#FFF" fill-rule="nonzero" d="M1186.651 187.06l-15.006 6.728 14.464-4.914zM1188.39 188.483l-.542-1.814 14.994 6.728"/>
        <path fill="#E0EEF8" d="M1226.366 201.827a41.693 41.693 0 0 1-4.51-1.966c-.845-.567-7.308-1.134-5.935 1.462a10.08 10.08 0 0 0 5.355 4.863c1.625.441 3.39 2.155 4.435 2.596 1.046.441 4.448 2.016 4.776-.567a13.86 13.86 0 0 0-.076-4.372s-4.561-.19-4.045-2.016z"/>
        <path fill="#1F1916" d="M1208.399 150.318s.92 13.646 1.046 16.682c.126 3.037 2.091 9.866 2.62 12.134.53 2.268 2.873 14.163 2.735 16.557-.139 2.394.264 7.08.264 7.08s.53 1.777 5.494 1.525c.759-3.591 1.322-7.22 1.688-10.873 0-2.52.139-12.26-.642-15.297-.52-2.91-.74-5.865-.656-8.82 0 0 2.873 7.207 2.873 8.82 0 1.613 1.26 22.126 1.26 22.126s4.713 2.394 5.368 1.512c.655-.882 2.52-11.126 2.343-12.764-.176-1.638.139-10.08-.655-14.414-.794-4.335-.907-16.053-.907-16.053a12.953 12.953 0 0 0 2.092-4.044c.126-1.386.655-5.557.655-5.557s-19.694 3.793-25.578 1.386z"/>
        <path fill="#F7B8A0" d="M1215.72 203.654s-.517 1.965.125 2.028c.643.063 3.075 1.197 3.34 0 .264-1.197.655-1.386.655-1.386l-4.12-.642zM1226.366 200.945s-.264 2.079.391 2.205c.655.126 3.465 1.07 3.465 1.07v-2.393l-3.591-.82"/>
        <path fill="#E0EEF8" d="M1215.782 204.12a43.735 43.735 0 0 1-4.51-1.953c-.845-.567-7.308-1.134-5.935 1.449a10.08 10.08 0 0 0 5.355 4.876c1.625.441 3.39 2.142 4.435 2.583 1.046.441 4.448 2.029 4.776-.567a14.011 14.011 0 0 0 0-4.36s-4.637-.15-4.12-2.028z"/>
        <path fill="#120E0A" d="M1215.72 163.082a20.16 20.16 0 0 0 4.044-.945c.655-.441.39 1.26.328 3.918-.063 2.659 1.045 11.567 1.045 12.386 0 .82-1.108 14.478-1.108 14.478l-.265.945-1.046-.315s.718-6.2.718-7.775c0-1.575-2.52-6.892-2.608-9.16-.088-2.268-1.109-13.532-1.109-13.532zM1226.039 160.75a19.341 19.341 0 0 0 4.044-.957c.656-.44.404 1.26.328 3.919-.076 2.658 1.046 11.567 1.046 12.386 0 .819-1.109 14.477-1.109 14.477l-.265.945-1.033-.315s.718-6.187.718-7.774c0-1.588-2.52-6.88-2.62-9.16-.101-2.281-1.11-13.52-1.11-13.52z"/>
        <path fill="#F7B296" d="M1220.079 106.331a31.11 31.11 0 0 0 .693-4.888c-.088-1.172-3.314-1.097-4.7-1.097-1.386 0-1.575-2.268-1.398-4.888.176-2.621.693-7.75 1.398-9.513.706-1.764 10.357.075 10.357.075l1.827 16.519s2.092 3.88-7.837 3.88"/>
        <path fill="#6A3622" d="M1215.593 85.1s2.344 2.898 2.52 4.045c.177 1.147-1.184 13.86-1.184 13.86h7.711c2.218 0 7.32 0 7.56-4.8.24-4.801-1.5-23.638-16.607-13.105z"/>
        <path fill="#1F1916" d="M1219.373 106.457s-9.147 4.297-9.4 6.3c-.251 2.004-2.355 12.89-2.355 12.89l-7.712-5.821s-3.528.895-3.124 4.045c0 0 11.226 10.08 13.582 10.243 2.357.164 2.52-.378 2.52-.378a44.944 44.944 0 0 1-.78 4.675c-.265.504-4.449 8.82-3.667 11.882a25.981 25.981 0 0 0 14.238 2.91c8.82-.504 11.503-2.52 11.239-5.317-.265-2.797-.655-7.446-.781-12.26-.126-4.813 1.171-13.771 1.26-17.312.088-3.54 1.688-10.874.907-12.764-.781-1.89-2.873-5.304-6.136-2.784.012.025-2.205 5.468-9.79 3.691z"/>
        <path fill="#120E0A" d="M1212.847 133.762s4.7-17.502 4.7-18.9c0-1.399.327 2.028 0 4.36-.328 2.33-.202 4.296-.92 8.403-.719 4.108-1.26 8.921-1.953 9.425-.693.504-3.982 13.016-3.78 13.646l-2.672-.504c.111-2.143.505-4.26 1.172-6.3 1.046-2.898 3.2-4.864 3.327-6.565.126-1.7.126-3.565.126-3.565z"/>
        <path fill="#F7B8A0" d="M1199.566 120.23l-2.835 2.52a4.952 4.952 0 0 0-1.613-1.79c-1.083-.718-3.225-2.356-3.263-3.616-.038-1.26-.832-1.903.088-2.029.92-.126 2.004.718 2.785 1.399.246.244.564.403.907.453l.176.126 3.1 1.613c.176.24.315.416.353.454.13.279.231.57.302.87z"/>
        <path fill="#F7B8A0" d="M1198.911 118.894l-3.1-1.613-.176-.126c.252 0 .378-.114.315-.29s-.958-1.978-.214-1.512a5.972 5.972 0 0 1 1.688 1.424c.101.227.983 1.424 1.487 2.117z"/>
        <path fill="#FFF" d="M1206.748 114.723l-7.837 4.17c-.504-.692-1.386-1.89-1.487-2.116a5.972 5.972 0 0 0-1.688-1.424c-.744-.466.075 1.172.214 1.512.139.34-.063.315-.315.29l-8.82-6.023s1.613-2.86 4.133-3.415c2.52-.554 5.04-1.348 5.04-1.348l10.76 8.354z"/>
        <path fill="#000" fill-rule="nonzero" d="M1131.514 204.12s-2.092 3.2-.29 3.301c1.802.101 7.56.177 10.231.177 2.671 0 6.83-2.218 5.985-3.478-.844-1.26-3.226-1.65-5.116-1.562-1.89.088-10.81 1.562-10.81 1.562z"/>
        <path fill="#120E0A" d="M1134.84 146.06s.189 11.34-.29 14.3c-.479 2.961-5.871 11.34-5.493 18.157.378 6.816 2.079 18.345 2.079 18.345l4.939-.1s-.769-7.875-.58-9.526c.19-1.65 1.714-10.08 2.092-11.554.378-1.474 7.774-12.84 7.963-17.527.189-4.687 1.134-12.184 1.134-12.184l-7.484-14.125a2.885 2.885 0 0 0-2.659.92c-1.26 1.26-1.613 5.406-1.613 6.69 0 1.286-.088 6.603-.088 6.603z"/>
        <path fill="#F39872" d="M1131.98 197.14s-.088 4.573-.088 5.128c0 .554-1.336 2.76 3.024 2.52 4.36-.24 6.64-.366 7.106-.277.466.088 3.704-1.374 1.26-1.462a59.636 59.636 0 0 1-6.917-1.008l-1.046-5.14-3.34.239z"/>
        <path fill="#000" fill-rule="nonzero" d="M1156.147 209.236s-2.52 2.293-1.26 3.024c1.26.73 4.75 2.116 6.552 3.402 1.801 1.285 9.374 3.389 9.374 1.738 0-1.65-.189-2.205-4.259-4.309a66.981 66.981 0 0 0-10.407-3.855z"/>
        <path fill="#1F1916" d="M1138.242 132.124s-4.082 3.666.088 8.82c4.17 5.153 5.872 5.04 5.872 5.04l5.216 12.096s1.714 11.34 1.613 14.401c-.1 3.062-3.415 9.715 1.424 20.627 4.838 10.911 3.78 11.34 3.78 11.34l4.17-1.021s-3.036-24.205-2.746-27.229c.29-3.024 2.746-25.401 1.612-32.369s-1.713-9.538-1.713-9.538l-19.316-2.167z"/>
        <path fill="#F39872" d="M1157.104 204.284a10.546 10.546 0 0 1-.39 3.402c-.467 1.096-.504 2.96.73 3.137 1.235.177 9.035 3.68 9.224 3.301.189-.378 1.423-.58.29-1.26-1.135-.68-4.461-3.024-4.461-3.024l-2.457-6.564-2.52.831"/>
        <path fill="#F7B8A0" d="M1139.275 98.834l-.088-3.074s-3.893-9.35-.668-10.823c3.226-1.475 9.664-.366 9.664-.366s2.76 4.776 2.76 6.3c0 1.525-.958 6.06-3.226 6.3a1.625 1.625 0 0 0-1.537 2.117l.202 1.65-7.107-2.104z"/>
        <path fill="#530E1D" d="M1148.851 97.915s-8.152-1.26-10.71-3.213c-2.558-1.953-5.821-7.888-5.821-7.888l1.903-4.31c.567-1.26 2.368-3.842 5.203-3.78 2.835.064 13.659 1.26 13.18 6.603-.479 5.343-.29 3.579-.29 3.579a3.364 3.364 0 0 0-2.457.819c-.718.995-1.285 7.736-1.008 8.19z"/>
        <path fill="#FFF" d="M1134.349 100.661l3.603-3.389 8.72 2.381.377 2.294s6.83 4.775 7.775 6.048c.945 1.272 4.838 5.14 1.99 9.361-2.847 4.221-2.368 5.129-2.28 7.056.088 1.928 3.036 9.45 3.036 9.45s-5.594 4.763-12.222 2.105c-6.627-2.659-8.442-5.129-8.442-5.129s3.138-3.402 3.226-4.674c.088-1.273-5.216-11.466-5.216-11.466a42.511 42.511 0 0 0-3.024 4.586c.088.265 4.07 4.12 4.07 4.12s-3.314 5.595-3.78 5.683c-.467.088-9.665-4.31-9.766-6.3-.1-1.99 5.217-11.831 6.3-14.49 1.084-2.659 5.633-7.636 5.633-7.636z"/>
        <path fill="#E9E8E7" d="M1144.202 124.74c.1 2.293 2.192 12.02 2.192 12.02l6.628-1.108s1.424.378.29-4.12c-1.134-4.499-2.52-12.84-1.991-15.41a32.76 32.76 0 0 0 1.613-6.502c.088-2.192.277.643-1.802.378-2.08-.265-6.93-3.125-6.451 5.317.478 8.442-.48 9.425-.48 9.425z"/>
        <path fill="#F39872" d="M1150.842 142.292s2.747 2.028 2.848 4.133c-.003 1.9-.13 3.798-.378 5.682 0 0-1.903 4.221-.48 3.125a3.213 3.213 0 0 0 1.425-2.293s-.756 5.77 1.134 4.85a7.484 7.484 0 0 0 3.502-5.316 30.14 30.14 0 0 0-1.512-7.056c-1.045-3.125-2.658-7.157-2.658-7.157l-5.683.73 2.18 3.214M1132.837 128.268l4.737 1.373 3.125-3.477-5.027-2.029-2.558 3.768"/>
        <path fill="#FFF" d="M1145.915 127.348c.089 2.293 2.18 12.02 2.18 12.02l6.628-1.108s1.424.365.29-4.12c-1.134-4.486-2.52-12.84-1.991-15.41a32.76 32.76 0 0 0 1.613-6.514c.088-2.193 0-4.587-2.092-4.851-2.092-.265-6.728-.378-6.3 8.064.428 8.442-.328 11.92-.328 11.92z"/>
        <path fill="#000" fill-rule="nonzero" d="M1264.507 127.915s-1.588 2.52-.215 2.52c1.374 0 5.822.139 7.863.139 2.041 0 5.229-1.689 4.574-2.671-.656-.983-2.52-1.26-3.919-1.26s-8.303 1.272-8.303 1.272z"/>
        <path fill="#120E0A" d="M1267.064 83.374s.139 8.656-.226 10.975c-.366 2.318-4.511 8.732-4.221 13.935.29 5.204 1.6 14.075 1.6 14.075l3.78-.076s-.592-6.048-.441-7.32c.151-1.273 1.26-7.737 1.6-8.82.34-1.084 5.96-9.854 6.111-13.445.151-3.59.87-9.362.87-9.362L1270.39 72.5a2.23 2.23 0 0 0-2.041.706c-.945.983-1.26 4.158-1.26 5.14 0 .984-.026 5.028-.026 5.028z"/>
        <path fill="#F39872" d="M1264.872 122.573s-.063 3.515-.063 3.931c0 .416-1.02 2.117 2.318 1.978 3.34-.138 5.04-.29 5.456-.214.416.076 2.835-1.058.945-1.121a44.516 44.516 0 0 1-5.304-.782l-.807-3.943-2.545.15z"/>
        <path fill="#000" fill-rule="nonzero" d="M1283.42 131.859s-1.89 1.751-.946 2.318c.945.567 3.642 1.626 5.04 2.609 1.399.982 7.195 2.595 7.195 1.335 0-1.26-.151-1.688-3.276-3.314a50.816 50.816 0 0 0-8.014-2.948z"/>
        <path fill="#1F1916" d="M1269.66 72.677s-3.125 2.81.076 6.753c3.2 3.944 4.51 3.869 4.51 3.869l3.995 9.298s1.26 8.72 1.26 11.038c0 2.318-2.621 7.46 1.083 15.838 3.705 8.38 2.91 8.656 2.91 8.656l3.201-.78s-2.33-18.573-2.104-20.892c.227-2.318 2.104-19.492 1.26-24.847-.844-5.355-1.26-7.308-1.26-7.308l-14.931-1.625z"/>
        <path fill="#F39872" d="M1284.15 128.054c.047.88-.05 1.76-.29 2.608-.365.844-.39 2.268.555 2.42.945.15 6.93 2.809 7.08 2.52.152-.29 1.097-.454.215-1.009-.882-.554-3.415-2.33-3.415-2.33l-1.89-5.04-1.965.63"/>
        <path fill="#F7B8A0" d="M1270.479 47.137l-.076-2.394s-2.986-7.182-.504-8.304c2.483-1.121 7.41-.277 7.41-.277s2.116 3.654 2.116 4.775c0 1.122-.73 4.65-2.52 4.788a1.26 1.26 0 0 0-1.172 1.764l.151 1.26-5.405-1.612z"/>
        <path fill="#E8317C" d="M1266.699 48.548l2.76-2.608 6.69 1.827.29 1.764a56.083 56.083 0 0 1 5.96 4.649c.73.983 3.717 3.944 1.537 7.182-2.18 3.238-1.827 3.944-1.752 5.418a49.934 49.934 0 0 0 2.331 7.245s-4.296 3.667-9.387 1.625c-5.09-2.04-6.463-3.943-6.463-3.943s2.394-2.609 2.52-3.591c.126-.983-4.007-8.82-4.007-8.82a32.659 32.659 0 0 0-2.319 3.515c.063.214 3.125 3.175 3.125 3.175a34.965 34.965 0 0 1-2.91 4.36c-.366 0-7.422-3.314-7.56-4.864-.139-1.55 4.006-9.072 4.8-11.113.794-2.041 4.385-5.821 4.385-5.821z"/>
        <path fill="#E8317C" fill-rule="nonzero" d="M1274.259 67.045c.076 1.764 1.676 9.223 1.676 9.223l5.04-.844s1.083.277.214-3.163c-.87-3.44-1.84-9.853-1.449-11.781a25.036 25.036 0 0 0 1.26-5.04c.076-1.688.214.491-1.386.277-1.6-.214-5.305-2.394-4.94 4.083.366 6.476-.415 7.245-.415 7.245z"/>
        <path fill="#F39872" d="M1279.35 80.489s2.104 1.55 2.18 3.162a32.345 32.345 0 0 1-.29 4.373s-1.45 3.225-.366 2.381a2.444 2.444 0 0 0 1.096-1.751s-.58 4.435.87 3.78a5.821 5.821 0 0 0 2.696-4.083 23.65 23.65 0 0 0-1.172-5.418c-.794-2.394-2.028-5.493-2.028-5.493l-4.373.567 1.676 2.52M1265.527 69.728l3.642 1.046 2.394-2.671-3.856-1.55-1.953 2.886"/>
        <path fill="#E8317C" d="M1275.57 69.023c.075 1.751 1.675 9.21 1.675 9.21l5.04-.844s1.084.29.214-3.162c-.869-3.453-1.89-9.854-1.524-11.82a25.2 25.2 0 0 0 1.26-5.04c.075-1.688 0-3.515-1.6-3.78-1.6-.264-5.166-.276-4.801 6.2a35.494 35.494 0 0 1-.265 9.236z"/>
        <path fill="#530E1D" d="M1269.76 43.394s9.463-.428 7.56-7.232c-1.902-6.804-6.3-6.602-8.19-5.128-1.89 1.474-4.775 3.981-4.12 5.871.656 1.89.643 6.918 4.75 6.49z"/>
        <path fill="#530E1D" d="M1267.38 37.951s-5.847 2.092-5.419-1.26c.429-3.351 0-6.501 2.823-5.871a4.914 4.914 0 0 1 3.465 3.565l-.87 3.566z"/>
        <path fill="#282522" fill-rule="nonzero" d="M995.207 115.92s0-.328-2.28-.756l-12.777-2.293-22.012 2.52 14.994 4.196 22.075-3.667z"/>
        <path fill="#120E0A" fill-rule="nonzero" d="M994.854 117.18s.491-1.147.353-1.348c-.139-.202-22.264 3.679-22.264 3.679v1.336s20.286-3.579 21.911-3.667zM980.15 112.833l-4.196-14.188a.668.668 0 0 0-.592-.478c-.492 0-20.538-.567-20.538-.567s-.832-.152-.492 1.26c.34 1.41 3.995 16.38 3.995 16.38l21.823-2.407z"/>
        <path fill="#E0EEF8" fill-rule="nonzero" d="M979.356 112.644l-3.906-13.57a.617.617 0 0 0-.554-.454c-.454 0-19.127-.542-19.127-.542s-.781-.138-.454 1.134c.328 1.273 3.78 15.725 3.78 15.725l20.261-2.293z"/>
        <path fill="#000" fill-rule="nonzero" d="M1004.947 195.476s2.091 3.2.29 3.289c-1.802.088-7.56.189-10.22.189-2.658 0-6.816-2.205-5.972-3.478.845-1.272 3.226-1.65 5.116-1.562 1.89.088 10.786 1.562 10.786 1.562z"/>
        <path fill="#120E0A" d="M1001.633 137.504s-.19 11.264.29 14.288c.478 3.024 5.871 11.34 5.493 18.132-.378 6.791-2.091 18.307-2.091 18.307l-4.914-.088s.756-7.875.567-9.525c-.19-1.651-1.701-10.08-2.08-11.53-.377-1.448-7.761-12.826-7.95-17.5-.189-4.675-1.147-12.172-1.147-12.172l7.485-14.1c.98-.184 1.985.16 2.646.907 1.26 1.26 1.613 5.406 1.613 6.691 0 1.285.088 6.59.088 6.59z"/>
        <path fill="#F39872" d="M1004.48 188.509s.089 4.586.089 5.128c0 .542 1.335 2.747-3.024 2.52-4.36-.227-6.628-.366-7.094-.277-.466.088-3.692-1.374-1.26-1.462a59.22 59.22 0 0 0 6.905-1.008l1.045-5.128 3.34.227z"/>
        <path fill="#000" fill-rule="nonzero" d="M980.339 200.605s2.52 2.28 1.26 3.011c-1.26.73-4.738 2.117-6.527 3.39-1.79 1.272-9.374 3.389-9.374 1.75 0-1.637.189-2.204 4.258-4.308a65.974 65.974 0 0 1 10.383-3.843z"/>
        <path fill="#1F1916" d="M998.23 123.58s4.07 3.667-.1 8.82c-4.17 5.154-5.859 5.04-5.859 5.04l-5.204 12.084s-1.713 11.34-1.613 14.377c.101 3.036 3.402 9.714-1.423 20.613-4.826 10.9-3.78 11.252-3.78 11.252l-4.171-1.008s3.037-24.167 2.747-27.19c-.29-3.025-2.747-25.364-1.613-32.332s1.714-9.513 1.714-9.513l19.303-2.142z"/>
        <path fill="#F39872" d="M979.394 195.653a10.697 10.697 0 0 0 .378 3.39c.479 1.095.504 2.96-.718 3.15-1.223.188-9.035 3.653-9.224 3.288-.189-.366-1.41-.58-.277-1.26 1.134-.68 4.448-3.024 4.448-3.024l2.457-6.502 2.52.832"/>
        <path fill="#F7B8A0" d="M997.185 90.342l.1-3.112s3.882-9.337.656-10.811c-3.226-1.474-9.652-.365-9.652-.365s-2.746 4.762-2.746 6.3c0 1.537.957 6.035 3.225 6.224a1.613 1.613 0 0 1 1.512 2.28l-.189 1.651 7.094-2.167z"/>
        <path fill="#120E0A" d="M1002.112 92.169l-3.591-3.377-8.72 2.369-.378 2.293s-6.804 4.763-7.761 6.048c-.958 1.285-4.826 5.128-1.978 9.337 2.847 4.208 2.368 5.128 2.268 7.056-.101 1.928-3.024 9.425-3.024 9.425s5.581 4.762 12.209 2.116c6.628-2.646 8.417-5.128 8.417-5.128s-3.125-3.39-3.213-4.674c-.088-1.286 5.204-11.454 5.204-11.454a42.511 42.511 0 0 1 3.024 4.587c-.089.277-4.07 4.12-4.07 4.12s3.314 5.582 3.78 5.682c.466.101 9.651-4.309 9.74-6.3.088-1.99-5.204-11.818-6.237-14.464-1.034-2.646-5.67-7.636-5.67-7.636z"/>
        <path fill="#000" fill-rule="nonzero" d="M992.271 116.26c-.1 2.293-2.18 11.995-2.18 11.995l-6.627-1.096s-1.412.366-.278-4.12 2.457-12.827 1.979-15.385a32.206 32.206 0 0 1-1.6-6.501c-.101-2.205-.29.642 1.789.365 2.079-.277 6.917-3.112 6.438 5.305-.479 8.417.479 9.437.479 9.437z"/>
        <path fill="#F39872" d="M985.643 133.749s-2.746 2.016-2.835 4.12c-.004 1.9.123 3.8.378 5.683 0 0 1.89 4.208.467 3.112a3.2 3.2 0 0 1-1.412-2.293s.756 5.77-1.146 4.85a7.56 7.56 0 0 1-3.503-5.304 31.034 31.034 0 0 1 1.525-7.056c1.033-3.112 2.646-7.144 2.646-7.144l5.682.73-2.18 3.214M1003.624 119.738l-4.725 1.373-3.125-3.477 5.015-2.016 2.557 3.754"/>
        <path fill="#120E0A" d="M990.57 118.818c-.1 2.293-2.18 12.008-2.18 12.008l-6.627-1.109s-1.424.365-.29-4.12c1.134-4.486 2.52-12.814 1.99-15.385a32.596 32.596 0 0 1-1.612-6.501c-.088-2.193 0-4.574 2.091-4.851 2.092-.278 6.716-.366 6.237 8.064-.478 8.429.391 11.894.391 11.894z"/>
        <path fill="#530E1D" d="M998.117 85.478s-12.31-.567-9.828-9.424c2.483-8.858 8.14-8.581 10.673-6.666 2.532 1.915 6.199 5.179 5.355 7.636-.845 2.457-.845 9.009-6.2 8.454z"/>
        <path fill="#530E1D" d="M1001.28 78.385s7.56 2.734 7.056-1.638c-.504-4.373 0-8.455-3.667-7.636a6.376 6.376 0 0 0-4.51 4.637l1.121 4.637z"/>
    </g>
</svg>
