<svg xmlns="http://www.w3.org/2000/svg" width="1440" height="414" viewBox="0 0 1440 414">
    <defs>
        <linearGradient id="a" x1="0%" y1="50%" y2="50%">
            <stop offset="0%" stop-color="#C3E5F2"/>
            <stop offset="22%" stop-color="#C4DCED"/>
            <stop offset="58.269%" stop-color="#C5C4DF"/>
            <stop offset="100%" stop-color="#E7317B"/>
        </linearGradient>
    </defs>
    <g fill="none" fill-rule="evenodd" transform="translate(-752)">
        <path fill="url(#a)" fill-opacity=".5" fill-rule="nonzero" d="M.331 143.4C117.371 123.467 343.26 113.5 678 113.5c183.965 0 438.801 23.98 743.5 30 138.488 2.736 391.54-12.138 696.5-14 41.1-.251 95.711 4.382 163.831 13.9v254c169.446 17.733 114.836 22.267-163.831 13.6s-758.667-13.167-1440-13.5L.331 143.4z" opacity=".93"/>
        <path fill="#71C0E8" d="M1920.763.225a7.35 7.35 0 0 0 1.725 2.156A1585.85 1585.85 0 0 0 1934.73 16.2c.563.619.488.844-.3 1.088a21.319 21.319 0 0 1-5.625 1.218c-.281 0-.731 0-.787.282-.056.28.375.43.581.618a7.5 7.5 0 0 0 4.013 1.744c1.106.188 1.256.75 1.256 1.706a33.469 33.469 0 0 1-2.194 9.563c-.3.994-1.275 1.594-1.875 2.381-.39.406-.594.956-.563 1.519.029.324.029.65 0 .975a4.538 4.538 0 0 0 1.875 4.425 12.3 12.3 0 0 0 3.92 1.762c.224 0 .45 0 .637-.206.712-.563 1.443-1.106 2.137-1.669.15-.112.356-.3.375-.45.188-1.987 1.875-3.075 2.963-4.444 1.481-1.762 3-3.468 4.518-5.193.227-.23.465-.45.713-.656 0 1.724-.131 3.243-.206 4.762-.132 2.25-.3 4.519-.375 6.769a5.1 5.1 0 0 1-1.2 3.244c-3.375 4.068-6.657 8.193-9.975 12.318-.656.825-.619.881.412 1.2a43.125 43.125 0 0 0 11.588 1.782c2.944 0 5.869.374 8.812.58.197.04.39.09.582.15h3.262a1.875 1.875 0 0 1 1.688-1.687 34.725 34.725 0 0 0 8.587-3.731c.225-.112.544-.15.581-.487-.3-.154-.644-.2-.975-.132h-3.356c-.469 0-.787-.131-.806-.656-.019-.525.281-.6.712-.638 2.307-.206 4.594-.15 6.9-.168.4.042.786.177 1.125.394.808.542 1.676.99 2.588 1.33V55.5a9.582 9.582 0 0 1-.619-.9 25.969 25.969 0 0 0-5.4-7.069 2.025 2.025 0 0 1-.225-3c.431.357.862.75 1.313 1.069.45.319 1.125 1.519 1.875 1.387.75-.13.825-1.33 1.237-2.025a1.875 1.875 0 0 0 .3-1.743c-.862-2.081-1.35-4.369-3.281-5.888a.544.544 0 0 1 0-.844c.694-.993.806-1.03 2.006-.468.206.093.431.319.656.187.225-.131 0-.469 0-.712a3.206 3.206 0 0 0-1.875-2.513c-1.369-.769-1.312-.825-.281-1.875 1.031-1.05 1.875-2.006 2.813-3.019l-.132-.206a7.5 7.5 0 0 0-1.575.544 3.394 3.394 0 0 1-4.519-.656 1.387 1.387 0 0 1-.58-.994c0-.806 0-1.631-.15-2.438-.15-.806.168-.843.805-.618 1.073.318 2.115.732 3.113 1.237.319.188.825.469.881-.244 0-1.05.263-2.156-.787-2.98a6.6 6.6 0 0 1-1.294-1.407 6.919 6.919 0 0 0-5.381-3.019 1.988 1.988 0 0 1-1.688-1.875.675.675 0 0 1 .582-.843c.843-.244 1.706-.32 2.568-.525-1.2-.376-2.343-1.22-3.637-.77a4.987 4.987 0 0 1-4.294-.168c-.6-.338-1.256-.506-1.875-.806-.263-.132-.787-.132-.694-.544.094-.412.506-.525.9-.525h2.531c.375 0 .413-.169.188-.45a3.75 3.75 0 0 0-3.525-1.031l-4.05 1.106c.15-.9.863-1.35.975-2.063 0 0-.131-.112-.188-.112a2.325 2.325 0 0 0-.506 0 26.963 26.963 0 0 0-8.137 2.681c-1.275.732-2.681 1.238-3.994 1.875a1.275 1.275 0 0 1-1.556-.131c-3.544-2.644-7.125-5.231-10.688-7.838l-7.369-5.062z"/>
        <path fill="#71C0E8" d="M1967.563 143.512l-2.138-47.174.206 47.812s-.131-67.294.281-72.413c.413-5.118 0-15 0-15l-31.537 1.22-.338 85.555h33.525z"/>
        <path fill="#71C0E8" fill-rule="nonzero" d="M1965.912 56.775s2.85 12.994 4.07 18.9c1.218 5.906-6.92 17.325-6.92 17.325l-1.218-22.5 4.068-13.725z"/>
        <path fill="#71C0E8" d="M1654.269 55.069a5.625 5.625 0 0 0 1.293 1.65c3.076 3.487 6.163 6.968 9.263 10.443.431.47.375.638-.225.825-1.392.514-2.85.823-4.331.92-.207 0-.525 0-.582.206-.056.206.282.318.432.487a5.85 5.85 0 0 0 3.037 1.313c.844.13.957.562.957 1.293a25.125 25.125 0 0 1-1.67 7.219c-.224.769-.956 1.2-1.443 1.875a1.5 1.5 0 0 0-.431 1.144c.019.25.019.5 0 .75a3.412 3.412 0 0 0 1.35 3.337 9.263 9.263 0 0 0 2.943 1.331.525.525 0 0 0 .507-.15l1.612-1.256c.113 0 .263-.225.282-.356.13-1.5 1.35-2.325 2.23-3.356 1.126-1.332 2.27-2.625 3.413-3.919.131-.15.282-.263.544-.506 0 1.312 0 2.456-.15 3.6-.094 1.706-.225 3.412-.281 5.137a3.75 3.75 0 0 1-.919 2.438 468.817 468.817 0 0 0-7.5 9.375c-.506.637-.469.656.3.9 2.85.848 5.802 1.309 8.775 1.368 2.231 0 4.444.282 6.656.432.154.02.305.057.45.112h2.344a1.537 1.537 0 0 1 1.275-1.293 26.119 26.119 0 0 0 6.769-2.888c.168 0 .412 0 .431-.356.019-.357-.487-.094-.731-.113h-2.55c-.338 0-.582 0-.6-.487-.019-.488.225-.45.543-.488 1.726-.15 3.47-.112 5.213-.131.3.037.588.14.844.3a9.769 9.769 0 0 0 1.875 1.013v-.3a5.438 5.438 0 0 1-.469-.675 19.5 19.5 0 0 0-4.087-5.344 1.538 1.538 0 0 1-.17-2.269c.32.262.657.563.995.806.337.244.862 1.144 1.406 1.031.543-.112.619-.993.918-1.518a1.35 1.35 0 0 0 .244-1.331 9.731 9.731 0 0 0-2.494-4.444c-.225-.188-.243-.375 0-.638.525-.75.62-.787 1.52-.356.168 0 .318.244.487.15.168-.094 0-.356 0-.544-.1-.82-.618-1.53-1.369-1.875-1.05-.581-1.013-.637-.225-1.462l2.138-2.288-.113-.15c-.41.087-.807.225-1.181.413a2.588 2.588 0 0 1-3.432-.507 1.069 1.069 0 0 1-.43-.73c0-.62 0-1.238-.132-1.876-.131-.637.15-.637.638-.469.808.241 1.592.555 2.343.938.244.131.619.356.657-.188.037-.543.206-1.63-.6-2.25a5.213 5.213 0 0 1-.957-1.068 5.25 5.25 0 0 0-4.087-2.269 1.519 1.519 0 0 1-1.257-1.388.525.525 0 0 1 .432-.656c.637-.168 1.275-.243 1.875-.393-.919-.282-1.782-.92-2.756-.582a3.75 3.75 0 0 1-3.3-.243c-.45-.244-.938-.376-1.407-.6-.469-.225-.6 0-.543-.413a.694.694 0 0 1 .693-.394h1.069c.28.019.563.019.844 0 .244 0 .319-.131.15-.337a2.813 2.813 0 0 0-2.663-.788l-3.075.844c.113-.675.657-1.031.75-1.575h-.525a20.794 20.794 0 0 0-6.15 2.025c-.975.563-2.043.956-3.037 1.462a.956.956 0 0 1-1.163-.112c-2.681-1.987-5.4-3.956-8.1-5.925l-5.362-3.881z"/>
        <path fill="#71C0E8" d="M1687.662 143.512l.375-15.75.17 36.15s-.113-50.887.205-54.75c.32-3.862 0-11.25 0-11.25l-23.85.9.526 44.157 22.574.543z"/>
        <path fill="#71C0E8" fill-rule="nonzero" d="M1688.412 97.838s2.157 9.825 3.075 14.306c.92 4.481-5.23 13.125-5.23 13.125l-.92-16.969 3.075-10.462z"/>
        <path fill="#71C0E8" d="M1301.244 5.831a7.106 7.106 0 0 1-1.65 2.081 1667.484 1667.484 0 0 1-11.7 13.22c-.544.58-.488.787.281 1.03a20.119 20.119 0 0 0 5.475 1.182c.262 0 .675 0 .75.262.075.263-.356.394-.563.581a6.994 6.994 0 0 1-3.75 1.67c-1.05.187-1.2.712-1.2 1.65a32.644 32.644 0 0 0 2.1 9.13c.3.957 1.22 1.538 1.875 2.288.387.378.592.904.563 1.444a3.15 3.15 0 0 0 0 .937 4.406 4.406 0 0 1-1.706 4.219 11.438 11.438 0 0 1-3.75 1.688.637.637 0 0 1-.619-.188l-2.044-1.594c-.15-.112-.337-.281-.356-.431-.169-1.875-1.725-2.944-2.831-4.256-1.425-1.688-2.888-3.319-4.332-4.969a8.213 8.213 0 0 0-.675-.637c0 1.65.132 3.112.207 4.575.112 2.156.262 4.312.337 6.468a4.875 4.875 0 0 0 1.163 3.094c3.206 3.9 6.356 7.856 9.525 11.794.637.787.6.843-.375 1.143a41.25 41.25 0 0 1-11.1 1.707c-2.813 0-5.625.356-8.419.562-.192.033-.38.083-.563.15h-3.112a1.875 1.875 0 0 0-1.613-1.631 33.394 33.394 0 0 1-8.456-3.487c-.206-.113-.525-.132-.562-.47.3-.224.637-.112.937-.13h3.207c.45 0 .768-.113.768-.62 0-.505-.262-.58-.675-.618-2.194-.188-4.406-.15-6.6-.169a2.55 2.55 0 0 0-1.087.394c-.774.517-1.605.945-2.475 1.275v-.394c.216-.269.417-.55.6-.843a24.544 24.544 0 0 1 5.175-6.77 1.875 1.875 0 0 0 .206-2.868c-.413.338-.825.713-1.256 1.031-.431.319-1.088 1.444-1.782 1.313-.693-.131-.787-1.256-1.162-1.875a1.744 1.744 0 0 1-.3-1.688 12.338 12.338 0 0 1 3.131-5.625c.3-.225.319-.469 0-.806-.656-.938-.768-.994-1.875-.431-.206 0-.412.3-.618.169-.207-.132 0-.45 0-.675a3.15 3.15 0 0 1 1.762-2.42c1.313-.73 1.256-.787.263-1.874l-2.682-2.888.131-.206c.517.124 1.02.3 1.5.525a3.244 3.244 0 0 0 4.332-.619c.31-.225.509-.574.543-.956 0-.769.094-1.556.15-2.344.057-.787-.168-.787-.787-.581a17.419 17.419 0 0 0-2.962 1.181c-.32.188-.788.45-.844-.225 0-1.012-.244-2.062.769-2.85.467-.39.878-.845 1.218-1.35a6.637 6.637 0 0 1 5.157-2.887 1.875 1.875 0 0 0 1.612-1.744.656.656 0 0 0-.563-.825c-.806-.225-1.63-.319-2.456-.506 1.144-.356 2.232-1.163 3.469-.731a4.8 4.8 0 0 0 4.05-.32c.563-.318 1.2-.487 1.781-.768.263-.131.769-.131.675-.525-.093-.394-.487-.488-.862-.488h-1.35c-.356.02-.713.02-1.069 0-.3 0-.394-.15-.188-.43a3.544 3.544 0 0 1 3.375-.995l3.863 1.07c-.131-.863-.806-1.295-.919-1.988h.188c.155-.019.313-.019.469 0a25.8 25.8 0 0 1 7.78 2.55c1.238.694 2.57 1.2 3.75 1.875.464.311 1.081.257 1.482-.131 3.394-2.513 6.825-5.007 10.238-7.5l7.03-4.932z"/>
        <path fill="#71C0E8" d="M1256.469 142.912l2.062-45.13-.206 45.73s.131-64.368-.263-69.262c-.393-4.894 0-14.306 0-14.306l30.15 1.125.338 81.844h-32.081z"/>
        <path fill="#71C0E8" fill-rule="nonzero" d="M1258.063 60s-2.72 12.431-3.9 18.075c-1.182 5.644 6.618 16.575 6.618 16.575l1.163-21.525L1258.063 60z"/>
        <path fill="#71C0E8" d="M1882.888 0a7.5 7.5 0 0 1-1.632 2.175 2014.922 2014.922 0 0 1-11.7 13.837c-.543.62-.487.825.282 1.07a19.012 19.012 0 0 0 5.475 1.237c.262 0 .674 0 .73.281.057.281-.337.431-.543.619a6.956 6.956 0 0 1-3.844 1.743c-1.05.188-1.181.75-1.181 1.726.219 3.267.9 6.486 2.025 9.562.3 1.013 1.219 1.594 1.875 2.381.386.408.583.959.544 1.519a4.238 4.238 0 0 0 0 .975 4.763 4.763 0 0 1-1.707 4.444 11.625 11.625 0 0 1-3.75 1.762c-.225.094-.43 0-.618-.206l-1.969-1.669c-.131-.131-.338-.3-.338-.45-.187-2.006-1.725-3.093-2.83-4.462-1.426-1.763-2.87-3.469-4.313-5.194-.169-.188-.357-.356-.694-.675 0 1.744.131 3.262.206 4.781.113 2.269.282 4.519.338 6.788a5.287 5.287 0 0 0 1.162 3.243c3.207 4.07 6.357 8.213 9.525 12.338.638.825.582.881-.394 1.2a40.275 40.275 0 0 1-11.062 1.875c-2.813 0-5.625.375-8.419.581a2.081 2.081 0 0 0-.562.15h-3.113a1.875 1.875 0 0 0-1.612-1.706 32.7 32.7 0 0 1-8.438-3.75c-.206-.131-.525-.15-.543-.487.28-.226.618-.132.937-.132h3.188c.45 0 .768-.131.768-.656s-.262-.6-.675-.637c-2.194-.207-4.387-.17-6.6-.17a2.25 2.25 0 0 0-1.068.394 12.6 12.6 0 0 1-2.476 1.332v-.394c.218-.288.418-.589.6-.9a24.937 24.937 0 0 1 5.157-7.069 2.138 2.138 0 0 0 .225-3.019c-.432.357-.825.75-1.275 1.07-.45.318-1.069 1.518-1.763 1.387s-.787-1.313-1.181-2.025a1.875 1.875 0 0 1-.375-1.744c.844-2.081 1.294-4.35 3.15-5.888.3-.243.3-.487 0-.843-.656-.994-.769-1.032-1.875-.469-.188.113-.394.338-.619.188-.225-.15 0-.47 0-.694a3.187 3.187 0 0 1 1.744-2.531c1.313-.77 1.275-.825.281-1.875l-2.681-3.094a.769.769 0 0 0 .131-.207 8.156 8.156 0 0 1 1.519.563c1.383.98 3.295.68 4.313-.675.311-.233.509-.587.543-.975 0-.825 0-1.631.169-2.456s-.169-.844-.787-.619c-1.026.315-2.018.73-2.963 1.238-.319.187-.806.468-.844-.226 0-1.068-.243-2.175.75-3 .474-.405.885-.879 1.219-1.406a6.544 6.544 0 0 1 5.156-3.018 1.875 1.875 0 0 0 1.594-1.876c0-.468 0-.712-.544-.843-.806-.244-1.612-.338-2.456-.544 1.144-.375 2.231-1.219 3.469-.769a4.631 4.631 0 0 0 4.181-.319c.544-.318 1.181-.506 1.763-.787.262-.131.768-.131.675-.563-.094-.43-.47-.506-.863-.506h-1.35c-.356.019-.713.019-1.069 0-.3 0-.393-.15-.168-.431a3.394 3.394 0 0 1 3.356-1.05l3.862 1.125c-.131-.919-.806-1.369-.918-2.081 0 0 .13-.113.187-.113.156-.018.313-.018.469 0a24.956 24.956 0 0 1 7.781 2.869c1.237.731 2.569 1.256 3.75 1.875a1.163 1.163 0 0 0 1.481-.15c3.4-2.625 6.807-5.237 10.219-7.837L1882.888 0z"/>
        <path fill="#71C0E8" d="M1838.188 143.512l2.062-47.25-.206 47.888s.131-67.406-.263-72.525c-.393-5.119 0-15 0-15l30.113 1.181.319 85.688-32.025.018z"/>
        <path fill="#71C0E8" fill-rule="nonzero" d="M1839.781 56.644s-2.718 13.012-3.881 18.919c-1.163 5.906 6.6 17.362 6.6 17.362l1.162-22.5-3.88-13.781z"/>
        <path fill="#71C0E8" d="M1598.469 52.913a5.944 5.944 0 0 1-1.407 1.875 1523.223 1523.223 0 0 1-10.03 11.868c-.47.544-.413.713.243.938 1.504.571 3.083.925 4.688 1.05.225 0 .58 0 .637.243.056.244-.3.357-.469.525a6 6 0 0 1-3.3 1.5c-.9.17-1.012.638-1.012 1.463a30 30 0 0 0 1.781 8.213c.263.862 1.05 1.368 1.575 2.043.33.347.501.816.469 1.294a4.2 4.2 0 0 0 0 .844 4.069 4.069 0 0 1-1.463 3.75 9.675 9.675 0 0 1-3.206 1.518c-.206 0-.375 0-.544-.187l-1.744-1.425c-.13 0-.3-.244-.3-.394-.15-1.706-1.48-2.644-2.437-3.75-1.2-1.519-2.456-2.981-3.75-4.462a6.15 6.15 0 0 0-.6-.582c0 1.5.131 2.794.188 4.107.093 1.875.243 3.881.3 5.812a4.312 4.312 0 0 0 .993 2.775c2.757 3.507 5.438 7.05 8.157 10.594.543.712.506.769-.32 1.031a34.05 34.05 0 0 1-9.505 1.538c-2.4 0-4.82.319-7.22.506a1.575 1.575 0 0 0-.487.131h-2.662a1.631 1.631 0 0 0-1.388-1.462 28.481 28.481 0 0 1-7.237-3.132c-.169-.112-.432-.13-.469-.43.244-.188.544-.094.806-.113h2.738c.394 0 .656-.113.656-.563 0-.45-.225-.506-.581-.544-1.875-.168-3.75-.13-5.625-.15-.327.045-.64.16-.919.338-.658.464-1.37.848-2.119 1.144v-.338c.18-.245.343-.501.488-.768a22.144 22.144 0 0 1 4.444-6.075 1.875 1.875 0 0 0 .187-2.57l-1.088.92c-.524.393-.918 1.293-1.518 1.18-.6-.112-.675-1.143-1.013-1.743a1.612 1.612 0 0 1-.244-1.5 11.25 11.25 0 0 1 2.682-5.044c.262-.225.262-.431 0-.731-.582-.863-.675-.9-1.65-.394-.169 0-.356.263-.544.15-.188-.112 0-.394 0-.6.1-.932.665-1.75 1.5-2.175 1.125-.656 1.087-.712.244-1.65a213.629 213.629 0 0 1-2.306-2.606l.112-.169c.442.105.87.263 1.275.469a2.7 2.7 0 0 0 3.75-.563c.27-.201.44-.508.469-.843 0-.713 0-1.407.131-2.119.131-.713-.131-.713-.675-.525a16.5 16.5 0 0 0-2.531 1.069c-.281.15-.675.412-.713-.207 0-.9-.225-1.874.638-2.568.403-.35.756-.754 1.05-1.2a5.625 5.625 0 0 1 4.425-2.588 1.706 1.706 0 0 0 1.369-1.575c0-.412 0-.618-.488-.731-.488-.112-1.388-.281-2.1-.469.994-.319 1.875-1.031 2.981-.656a3.956 3.956 0 0 0 3.582-.263c.468-.28 1.012-.45 1.518-.693.225-.113.656-.113.582-.469a.712.712 0 0 0-.75-.45h-1.144a7.687 7.687 0 0 1-.919 0c-.263 0-.338-.15-.15-.375a2.925 2.925 0 0 1 2.869-.9l3.319.956c-.113-.769-.694-1.162-.788-1.781 0 0 .112-.094.15-.094.137-.02.276-.02.413 0a21.675 21.675 0 0 1 6.675 2.288c1.05.637 2.193 1.087 3.262 1.669.402.265.935.21 1.275-.132 2.906-2.269 5.831-4.5 8.775-6.731 2.044-1.35 4.031-2.85 6.019-4.313z"/>
        <path fill="#71C0E8" d="M1562.544 143.512l-.657-8.024.657 8.024s-.732-24.768-1.05-29.156c-.319-4.387 0-12.862 0-12.862l25.819 1.012.393 41.006h-25.162z"/>
        <path fill="#71C0E8" fill-rule="nonzero" d="M1561.494 101.494s-2.344 11.156-3.338 16.237c-.994 5.082 5.625 14.888 5.625 14.888l.994-19.275-3.281-11.85z"/>
        <path fill="#71C0E8" d="M1839.219 61.875a5.119 5.119 0 0 1-1.294 1.612 889.708 889.708 0 0 1-9.375 10.238c-.431.469-.394.619.225.806 1.4.506 2.865.809 4.35.9.206 0 .544 0 .6.207.056.206-.281.318-.45.468a5.813 5.813 0 0 1-3.056 1.294c-.825.131-.957.544-.957 1.256a24.375 24.375 0 0 0 1.688 7.088c.225.75.956 1.181 1.444 1.762.305.293.47.703.45 1.125a3.188 3.188 0 0 0 0 .731 3.394 3.394 0 0 1-1.369 3.282 9.094 9.094 0 0 1-2.962 1.293.525.525 0 0 1-.507-.15l-1.631-1.237c-.112 0-.263-.206-.281-.337-.131-1.463-1.369-2.27-2.25-3.282-1.125-1.312-2.288-2.569-3.432-3.862l-.543-.488c0 1.275 0 2.419.15 3.544.093 1.669.225 3.338.281 5.025.007.879.333 1.725.919 2.381 2.568 3.019 5.062 6.094 7.593 9.131.507.62.47.657-.3.9a34.237 34.237 0 0 1-8.83 1.332c-2.25 0-4.482.262-6.713.431-.154.02-.305.057-.45.112h-2.475a1.481 1.481 0 0 0-1.275-1.275 26.625 26.625 0 0 1-6.732-2.7c-.168 0-.412 0-.45-.356.233-.114.497-.147.75-.093H1805c.356 0 .6 0 .619-.488.019-.488-.225-.45-.544-.469-1.744-.15-3.506-.131-5.25-.131a1.969 1.969 0 0 0-.862.3c-.62.395-1.28.722-1.97.975v-.3a5.85 5.85 0 0 0 .47-.656 18.75 18.75 0 0 1 4.125-5.231 1.5 1.5 0 0 0 .168-2.232c-.337.263-.656.544-1.012.788-.356.243-.863 1.125-1.406 1.031-.544-.094-.638-.975-.938-1.5a1.331 1.331 0 0 1-.244-1.294 9.375 9.375 0 0 1 2.513-4.368c.225-.17.243-.357 0-.62-.525-.75-.619-.768-1.538-.355-.15 0-.319.243-.487.15-.169-.094 0-.357 0-.525a2.4 2.4 0 0 1 1.387-1.875c1.05-.563 1.013-.62.225-1.425l-2.175-2.288.113-.15c.413.095.815.233 1.2.413a2.644 2.644 0 0 0 3.45-.488c.235-.177.39-.44.431-.731 0-.6 0-1.219.131-1.875.131-.656-.15-.619-.637-.45-.81.236-1.6.537-2.363.9-.244.15-.619.356-.656-.15-.037-.506-.206-1.613.6-2.231.37-.292.693-.64.956-1.032a5.306 5.306 0 0 1 4.125-2.231 1.537 1.537 0 0 0 1.275-1.369c0-.337 0-.525-.45-.637-.45-.113-1.293-.244-1.875-.394.9-.263 1.875-.9 2.756-.563a3.919 3.919 0 0 0 3.338-.243c.431-.225.938-.375 1.406-.582.469-.206.619-.093.544-.412-.075-.319-.394-.375-.694-.375h-1.931c-.244 0-.319-.131-.131-.338a2.85 2.85 0 0 1 2.681-.768l3.075.825c-.112-.656-.656-1.013-.731-1.538h.525a21.712 21.712 0 0 1 6.187 1.988c.975.543 2.044.918 3.038 1.425a.994.994 0 0 0 1.181-.113c2.7-1.875 5.419-3.862 8.156-5.793 1.744-1.22 3.6-2.494 5.438-3.713z"/>
        <path fill="#71C0E8" d="M1803.763 144.769l1.48-11.719.45 9.225s-.505-23.663-.824-27.469c-.319-3.806 0-11.081 0-11.081l24 .863-.6 38.306-24.506 1.875z"/>
        <path fill="#71C0E8" fill-rule="nonzero" d="M1804.869 103.725s-2.175 9.638-3.094 14.006c-.919 4.369 5.269 12.844 5.269 12.844l.918-16.631-3.093-10.219z"/>
        <path fill="#6F9AD1" d="M1344.556 299.512l18.694-6.45-114.15-149.55-32.25.638zM1471.606 298.275l18.713-6.45-117.394-147.675h-38.044zM1710.875 315.75l18.713-6.45-141.882-165.788h-25.162zM1810.194 310.125l18.712-6.45-138.018-160.781h-27.732zM1897.269 199.05l18.712-6.45-45.15-48.45-32.643-.638zM1971.162 173.869l18.694-6.45-24.225-23.269-34.181-.638z"/>
        <path fill="#6F9AD1" d="M1981.719 301.856l37.443 2.644-180.768-160.537-35.288-1.07z"/>
        <path fill="#71C0E8" d="M1595.713 7.706a7.35 7.35 0 0 0 1.65 2.081 1324.36 1324.36 0 0 0 11.718 13.126c.525.6.469.806-.3 1.05a20.831 20.831 0 0 1-5.475 1.18c-.262 0-.675-.112-.75.244-.075.357.356.413.563.6a6.994 6.994 0 0 0 3.844 1.67c1.05.187 1.2.712 1.2 1.63a32.625 32.625 0 0 1-2.1 9.15c-.3.957-1.22 1.52-1.876 2.27-.38.38-.578.906-.543 1.443.037.318.037.639 0 .956a4.388 4.388 0 0 0 1.725 4.219 11.25 11.25 0 0 0 3.75 1.688.637.637 0 0 0 .619-.188l2.043-1.594c.15-.131.338-.281.357-.431.168-1.875 1.725-2.944 2.83-4.256 1.426-1.688 2.888-3.319 4.332-4.969.216-.229.447-.442.694-.638 0 1.65-.15 3.113-.225 4.557-.113 2.175-.263 4.331-.338 6.487a4.875 4.875 0 0 1-1.162 3.094c-3.207 3.9-6.357 7.856-9.525 11.794-.638.787-.6.843.375 1.144a41.25 41.25 0 0 0 11.1 1.706c2.812 0 5.625.356 8.418.562.193.03.381.08.563.15h3.112a1.875 1.875 0 0 1 1.632-1.631 34.687 34.687 0 0 0 8.456-3.487c.188-.132.506-.15.544-.47a1.388 1.388 0 0 0-.938-.13h-3.206c-.45 0-.769-.113-.769-.638s.263-.563.675-.6c2.194-.188 4.407-.15 6.6-.169.388.046.76.181 1.088.394.773.515 1.603.936 2.475 1.256v-.375a8.624 8.624 0 0 1-.6-.844 24.544 24.544 0 0 0-5.175-6.768 1.875 1.875 0 0 1-.207-2.869c.413.337.826.712 1.257 1.031.431.319 1.087 1.444 1.875 1.313.787-.132.787-1.257 1.181-1.875.36-.485.465-1.113.281-1.688a12.338 12.338 0 0 0-3.131-5.625c-.3-.225-.319-.468 0-.806.656-.956.769-.994 1.875-.45.206.112.413.319.619.188.206-.132 0-.45 0-.675a3.131 3.131 0 0 0-1.763-2.42c-1.312-.73-1.256-.787-.262-1.874l2.681-2.831-.131-.207c-.517.124-1.02.3-1.5.525a3.263 3.263 0 0 1-4.332-.637 1.312 1.312 0 0 1-.543-.938c0-.769-.094-1.556-.15-2.343-.057-.788.168-.807.787-.582 1.022.303 2.013.698 2.963 1.181.318.17.787.45.843-.224 0-1.013.244-2.063-.768-2.85a6.975 6.975 0 0 1-1.219-1.35 6.637 6.637 0 0 0-5.325-2.888 1.875 1.875 0 0 1-1.612-1.762.656.656 0 0 1 .562-.807c.806-.225 1.631-.319 2.456-.506-1.143-.356-2.231-1.163-3.468-.731-1.37.537-2.91.42-4.182-.319-.562-.3-1.2-.469-1.781-.75-.262-.131-.769-.131-.675-.525.094-.394.487-.506.862-.506h1.35c.356.028.714.028 1.07 0 .3 0 .393-.169.187-.431a3.544 3.544 0 0 0-3.375-.994l-3.863 1.069c.131-.863.807-1.313.919-1.988h-.656a26.381 26.381 0 0 0-7.782 2.569c-1.237.694-2.568 1.2-3.75 1.875a1.219 1.219 0 0 1-1.48-.131c-3.394-2.513-6.826-5.007-10.238-7.5-2.307-1.632-4.632-3.263-6.957-4.932z"/>
        <path fill="#71C0E8" d="M1640.487 144.787l-2.062-45.13.206 45.73s-.131-64.368.263-69.262c.393-4.894 0-14.306 0-14.306l-30.15 1.125-.338 81.844h32.082z"/>
        <path fill="#71C0E8" fill-rule="nonzero" d="M1638.894 61.875s2.737 12.431 3.9 18.075c1.162 5.644-6.544 16.519-6.544 16.519L1635.013 75l3.88-13.125z"/>
        <path fill="#71C0E8" d="M1608.987 71.138l-21.618 7.5-24.506 3.43s-16.444.32-14.176.32c2.27 0-6.787 2.174-2.268 2.493 4.518.319 24.825.319 24.825.319l18.394-.638 19.03-4.368.32-9.056zM1333.831 5.006a7.106 7.106 0 0 0 1.65 2.082c3.888 4.412 7.788 8.787 11.7 13.124.544.6.488.807-.281 1.05a20.831 20.831 0 0 1-5.475 1.182c-.263 0-.675 0-.75.262-.075.263.356.394.563.582a6.994 6.994 0 0 0 3.75 1.668c1.05.188 1.2.713 1.2 1.631a32.625 32.625 0 0 1-2.1 9.15c-.3.957-1.22 1.52-1.875 2.27a1.969 1.969 0 0 0-.563 1.462c.047.31.047.626 0 .937a4.388 4.388 0 0 0 1.725 4.219 11.25 11.25 0 0 0 3.75 1.688.637.637 0 0 0 .619-.188l2.043-1.594c.15-.112.338-.281.357-.431.168-1.875 1.725-2.944 2.831-4.256 1.425-1.688 2.888-3.319 4.331-4.969.216-.229.448-.442.694-.638-.094 1.65-.15 3.113-.225 4.575-.113 2.157-.263 4.313-.338 6.47a4.875 4.875 0 0 1-1.162 3.093c-3.206 3.9-6.356 7.856-9.525 11.794-.638.787-.6.844.375 1.144a41.25 41.25 0 0 0 11.1 1.706c2.813 0 5.625.356 8.419.562.191.033.38.083.562.15h3.113a1.875 1.875 0 0 1 1.612-1.631 33.75 33.75 0 0 0 8.475-3.488c.188-.112.506-.13.544-.468-.3-.225-.638-.113-.938-.131h-3.206c-.45 0-.769-.113-.769-.638s.263-.563.676-.6c2.193-.188 4.406-.15 6.6-.169.387.046.76.181 1.087.394.774.517 1.605.945 2.475 1.275v-.394a8.624 8.624 0 0 1-.6-.843 24.544 24.544 0 0 0-5.025-6.694 1.875 1.875 0 0 1-.206-2.869c.412.337.825.712 1.256 1.031.431.319 1.088 1.444 1.781 1.313.694-.132.788-1.257 1.182-1.875.36-.485.464-1.113.28-1.688a12.338 12.338 0 0 0-3.13-5.625c-.3-.225-.32-.468 0-.806.656-.956.768-.994 1.874-.431.207.093.413.3.62.169.206-.132 0-.45 0-.675a3.15 3.15 0 0 0-1.763-2.42c-1.313-.73-1.256-.787-.263-1.874l2.681-2.888-.13-.206c-.517.124-1.02.3-1.5.525a3.225 3.225 0 0 1-4.332-.637 1.256 1.256 0 0 1-.544-.938c0-.769-.093-1.556-.15-2.344-.056-.787.169-.787.788-.581 1.021.302 2.013.698 2.962 1.181.319.169.788.45.844-.225 0-1.012.244-2.062-.769-2.85a6.975 6.975 0 0 1-1.218-1.35 6.637 6.637 0 0 0-5.157-2.887 1.875 1.875 0 0 1-1.612-1.763.656.656 0 0 1 .562-.806c.806-.225 1.631-.319 2.457-.506-1.144-.357-2.232-1.163-3.47-.732a4.744 4.744 0 0 1-4.293-.337c-.563-.3-1.2-.469-1.875-.75-.263-.131-.769-.131-.675-.525.094-.394.487-.487.862-.487h1.35c.356.018.713.018 1.07 0 .3 0 .393-.15.187-.432a3.544 3.544 0 0 0-3.375-.993l-3.863 1.068c.131-.862.806-1.293.919-1.987 0 0-.131-.094-.188-.094h-.468a26.381 26.381 0 0 0-7.782 2.569c-1.237.694-2.568 1.2-3.75 1.875a1.219 1.219 0 0 1-1.48-.131c-3.395-2.513-6.826-5.007-10.238-7.5-2.213-1.557-4.444-3.188-6.863-4.857z"/>
        <path fill="#71C0E8" d="M1378.606 142.088l-2.062-45.132.206 45.731s-.131-64.368.263-69.262c.393-4.894 0-14.306 0-14.306l-30.15 1.125-.338 81.844h32.081z"/>
        <path fill="#71C0E8" fill-rule="nonzero" d="M1377.013 59.119s2.737 12.431 3.9 18.075c1.162 5.644-6.62 16.556-6.62 16.556l-1.162-21.469 3.881-13.162z"/>
        <path fill="#71C0E8" d="M1372.25 67.819l-21.6 7.5-24.506 3.431s-16.444.319-14.194.319c2.25 0-6.769 2.175-2.25 2.493 4.519.32 24.825.3 24.825.3l18.375-.618 18.975-4.369.375-9.056zM1525.625 2.081a6.806 6.806 0 0 1-1.631 2.081c-3.9 4.426-7.806 8.8-11.719 13.126-.544.6-.488.806.281 1.03a19.575 19.575 0 0 0 5.475 1.182c.263 0 .675 0 .75.262.075.263-.356.413-.562.6a7.106 7.106 0 0 1-3.844 1.65c-1.05.188-1.2.713-1.2 1.65.255 3.13.963 6.205 2.1 9.132.3.975 1.219 1.537 1.875 2.287.387.378.592.904.563 1.444a3.15 3.15 0 0 0 0 .938 4.425 4.425 0 0 1-1.707 4.237 12.281 12.281 0 0 1-3.75 1.688.619.619 0 0 1-.619-.207l-2.043-1.593c-.15-.113-.338-.282-.357-.432-.168-1.875-1.725-2.944-2.83-4.256a356.827 356.827 0 0 0-4.332-4.969c-.15-.169-.356-.319-.675-.619 0 1.65.131 3.094.206 4.557.113 2.156.263 4.312.338 6.487a4.856 4.856 0 0 0 1.162 3.075c3.207 3.9 6.357 7.857 9.525 11.794.656.806.6.844-.375 1.144a41.925 41.925 0 0 1-11.1 1.725c-2.812 0-5.625.356-8.418.544-.192.032-.38.082-.563.15h-3.112a1.875 1.875 0 0 0-1.613-1.632 33.394 33.394 0 0 1-8.456-3.487c-.207-.113-.525-.131-.563-.469.292-.139.621-.178.938-.113h3.206c.45 0 .769-.112.769-.618 0-.507-.263-.581-.675-.6-2.194-.206-4.407-.169-6.6-.169-.38.045-.745.173-1.069.375-.774.517-1.605.945-2.475 1.275v-.375c.188-.281.412-.563.581-.863a24.375 24.375 0 0 1 5.175-6.75 1.969 1.969 0 0 0 .207-2.887c-.413.356-.826.712-1.257 1.031-.431.319-1.087 1.444-1.781 1.313-.694-.132-.788-1.257-1.163-1.875a1.706 1.706 0 0 1-.3-1.669 12.338 12.338 0 0 1 3.132-5.625.506.506 0 0 0 0-.806c-.656-.956-.769-.994-1.875-.45-.207 0-.413.3-.619.187-.206-.112 0-.469 0-.694a3.094 3.094 0 0 1 1.763-2.4c1.312-.73 1.256-.787.262-1.875l-2.681-2.906.131-.206a7.5 7.5 0 0 1 1.5.544 3.263 3.263 0 0 0 4.331-.638c.306-.221.504-.562.544-.937 0-.788.094-1.575.15-2.344.056-.769-.169-.806-.787-.581-1.019.304-2.01.693-2.963 1.162-.319.188-.787.45-.844-.206 0-1.031-.244-2.081.769-2.869a6.319 6.319 0 0 0 1.219-1.331 6.581 6.581 0 0 1 5.156-2.887 1.875 1.875 0 0 0 1.612-1.763.656.656 0 0 0-.562-.825c-.806-.225-1.612-.3-2.456-.506 1.143-.357 2.231-1.163 3.468-.732a4.8 4.8 0 0 0 4.182-.3c.562-.318 1.2-.487 1.781-.768.263-.113.769-.113.675-.525-.094-.413-.487-.488-.862-.488h-1.35c-.357.019-.713.019-1.07 0-.3 0-.393-.15-.187-.412a3.525 3.525 0 0 1 3.469-.844l3.862 1.069c-.13-.882-.806-1.313-.918-2.007h.187c.156-.018.313-.018.469 0a25.838 25.838 0 0 1 7.65 2.55c1.237.694 2.569 1.182 3.844 1.876a1.219 1.219 0 0 0 1.462-.132l10.238-7.5 6.956-5.025z"/>
        <path fill="#71C0E8" d="M1480.906 139.181l2.063-45.131-.207 45.731s.132-64.369-.262-69.281c-.394-4.912 0-14.25 0-14.25l30.15 1.125.337 81.863-32.08-.057z"/>
        <path fill="#71C0E8" fill-rule="nonzero" d="M1482.5 56.25s-2.719 12.431-3.9 18.075 6.619 16.575 6.619 16.575l1.181-21.525-3.9-13.125z"/>
        <path fill="#71C0E8" d="M1506.763 67.706l21.618 7.5 24.506 3.431s16.444.32 14.176.32c-2.27 0 6.768 2.174 2.268 2.493-4.5.319-24.843.319-24.843.319l-18.376-.638-19.03-4.368-.32-9.057zM1260.612 28.294a7.106 7.106 0 0 1-1.65 2.081 1667.484 1667.484 0 0 1-11.7 13.219c-.543.581-.487.787.282 1.031a20.119 20.119 0 0 0 5.475 1.181c.262 0 .675-.093.75.263.075.356-.357.393-.563.6a7.106 7.106 0 0 1-3.843 1.65c-1.05.187-1.2.712-1.2 1.65.255 3.129.962 6.205 2.1 9.131.3.956 1.218 1.538 1.875 2.288.386.377.591.903.562 1.443a3.15 3.15 0 0 0 0 .938 4.406 4.406 0 0 1-1.706 4.218 11.887 11.887 0 0 1-3.75 1.707.712.712 0 0 1-.619-.207l-2.044-1.593c-.15-.113-.337-.282-.356-.431-.169-1.875-1.725-2.944-2.831-4.257-1.425-1.687-2.888-3.319-4.332-4.969-.15-.187-.356-.318-.674-.637 0 1.65.13 3.112.206 4.575.112 2.156.262 4.313.337 6.469a4.875 4.875 0 0 0 1.163 3.093c3.206 3.9 6.356 7.857 9.525 11.794.637.788.6.844-.375 1.144a41.925 41.925 0 0 1-11.1 1.725c-2.813 0-5.625.356-8.419.544-.192.032-.38.082-.563.15h-3.112a1.875 1.875 0 0 0-1.612-1.631 33.394 33.394 0 0 1-8.457-3.488c-.206-.112-.525-.131-.562-.469.292-.139.62-.178.937-.112h3.207c.45 0 .768-.113.768-.619s-.262-.581-.675-.619c-2.193-.187-4.406-.15-6.6-.169a2.55 2.55 0 0 0-1.087.394c-.774.517-1.605.945-2.475 1.275v-.375c.206-.3.431-.562.6-.862a24.825 24.825 0 0 1 5.175-6.769 1.875 1.875 0 0 0 .206-2.869c-.412.356-.825.713-1.256 1.031-.432.32-1.088 1.444-1.875 1.313-.788-.131-.788-1.256-1.163-1.875a1.706 1.706 0 0 1-.3-1.669c.825-2.006 1.294-4.181 3.131-5.625.3-.244.32-.487 0-.825-.656-.937-.768-.993-1.874-.431-.207.094-.413.3-.62.169-.206-.132 0-.45 0-.675a3.15 3.15 0 0 1 1.763-2.419c1.313-.731 1.256-.788.263-1.875l-2.682-2.887.132-.207c.516.124 1.019.3 1.5.525a3.244 3.244 0 0 0 4.331-.619c.306-.22.504-.562.544-.937 0-.788.094-1.575.15-2.362.056-.788-.169-.788-.788-.582-1.018.31-2.01.706-2.962 1.181-.319.188-.788.45-.844-.224 0-1.013-.244-2.063.769-2.85.468-.39.878-.845 1.218-1.35a6.637 6.637 0 0 1 5.213-2.925 1.875 1.875 0 0 0 1.612-1.744.656.656 0 0 0-.562-.825c-.806-.225-1.631-.3-2.456-.507 1.143-.356 2.231-1.162 3.468-.73a4.8 4.8 0 0 0 4.182-.3c.562-.32 1.2-.488 1.781-.77.262-.13.769-.13.675-.524-.094-.394-.487-.488-.862-.488h-1.35c-.357.019-.713.019-1.07 0-.3 0-.393-.15-.187-.431a3.6 3.6 0 0 1 3.375-.994l3.863 1.069c-.131-.863-.807-1.294-.919-1.988h.188c.155-.018.313-.018.468 0a26.25 26.25 0 0 1 7.782 2.55c1.237.694 2.568 1.2 3.75 1.875.47.293 1.078.231 1.48-.15 3.394-2.512 6.826-5.006 10.238-7.5l7.032-4.912z"/>
        <path fill="#71C0E8" d="M1216.85 144.15l1.05-23.888-1.05 23.888s.975-42.544.581-47.438c-.394-4.893 0-14.306 0-14.306l30.15 1.125 1.519 60-32.25.619z"/>
        <path fill="#71C0E8" fill-rule="nonzero" d="M1217.431 82.5s-2.718 12.431-3.9 18.075c-1.181 5.644 6.619 16.575 6.619 16.575l1.162-21.525-3.88-13.125z"/>
        <path fill="#71C0E8" d="M1241.694 93.919l21.6 7.5 24.525 3.431s16.444.319 14.175.319c-2.269 0 6.769 2.175 2.269 2.493-4.5.32-24.844.3-24.844.3l-18.375-.618-19.032-4.369-.318-9.056z"/>
        <path fill="#542511" d="M1491.537 60.769s-2.812 3.112-2.737 5.831c.075 2.719 2.963 9.169 2.963 9.169l13.125-10.313s1.875-.15 1.875-.45a4.894 4.894 0 0 0-2.57-3.019c-1.33-.3-3.13-2.362-3.918-2.437-.788-.075-5.381-1.8-8.738 1.219z"/>
        <path fill="#F7B090" d="M1490.825 84.769l.712-9.619.544.769v-.769a6.412 6.412 0 0 1-1.256-2.944c0-1.294 1.406-2.118 1.5-1.294.094.825.694.92.694.92s-.225-6.676-.15-6.976c.075-.3.394-.3 2.1-.15s9.244.675 9.787.225c.544-.45 2.119 11.888 1.256 14.157-.862 2.268-2.193 2.887-3.28 2.512-1.088-.375-.563 1.65-.563 1.65l-1.875 5.756-8.85-1.2-.619-3.037z"/>
        <path fill="#FFFAFB" d="M1486.063 131.494s-12.207 6.356-11.25 6.806c.956.45 13.124 11.063 21.13 12.563a34.912 34.912 0 0 1 12.676 4.856l38.006-21.506s-7.2-8.025-13.463-8.325c-6.262-.3-20.493-8.644-20.493-8.644l-26.607 14.25z"/>
        <path fill="#E3E2E2" d="M1475.206 165.412l-.412-27.112 33.806 17.419-.525 27.15z"/>
        <path fill="#FFFAFB" d="M1546.625 134.213l-.994 27.656-37.556 21-.731-28.369z"/>
        <path fill="#120E0A" d="M1487.094 138.956a11.25 11.25 0 0 0 10.744 8.175c7.374.84 14.671 2.257 21.824 4.238 0 0-.112 8.475-.112 9.994 0 1.518 6.356 18.975 6.356 18.975l7.2.506s-.412-27.056-.412-29.681c0-2.626-.319-8.363-4.163-10.088-3.843-1.725-18.75-8.887-18.75-8.887s-22.256 6.862-22.687 6.768z"/>
        <path fill="#120E0A" d="M1535.619 170.963l-3.019-18.994-23.475-19.575 6.975-7.069s24.844 7.5 24.938 8.587c.093 1.088 1.462 35.925 1.462 35.925l-6.881 1.126z"/>
        <path fill="#943152" d="M1523.938 177.619h9.374l.207 2.719s-7.725 1.312-8.457.318a9.956 9.956 0 0 1-1.124-3.037zM1534.775 168.844l8.362-.413v4.069s-8.662 1.2-8.568-.412c.093-1.613.206-3.244.206-3.244z"/>
        <path fill="#524C46" d="M1526.75 181.256l-.319 2.625 5.325 2.213 2.606-2.625-2.812-2.925z"/>
        <path fill="#F0EFEF" d="M1526.431 184.688s-1.256 2.325.525 3.018c1.782.694 11.682 5.157 11.682 5.157s5.118-.713 4.912-1.726c-.206-1.012-9.375-8.062-9.375-8.062a3.094 3.094 0 0 1-2.4 1.2c-1.556 0-5.325-.394-5.325-.394l-.019.806z"/>
        <path fill="#524C46" d="M1536.556 173.081s-.112 2.007.844 2.119c.956.113 4.481 1.613 4.8.694.25-.655.564-1.283.938-1.875l-2.194-1.613-4.388.675z"/>
        <path fill="#F0EFEF" d="M1541.975 181.256s-5.625-1.875-5.625-4.05c-.06-.943.017-1.89.225-2.812 1.205.463 2.466.766 3.75.9a9.019 9.019 0 0 0 2.719-1.313 27.356 27.356 0 0 1 5.081 2.025c1.35.9 6.563 5.344 4.688 6.15-1.876.806-4.688 2.119-10.838-.9zM1490.862 83.325s-.43 2.438 1.35 3.337c1.782.9 7.613 2.625 7.82 1.613.206-1.013 1.462-4.95 1.462-4.95a10.331 10.331 0 0 1 2.512-2.306 29.832 29.832 0 0 1 3.019-1.632 23.888 23.888 0 0 1 6.169 16.37c.093 10.593 2.7 30 2.7 30s-5.625 8.474-10.538 8.887a129.806 129.806 0 0 0-16.069 3.525c-.412.112-3.862 1.518-3.656-2.925.207-4.444.225-15 .225-15s-4.912-9.375-5.119-12.113c-.206-2.737-2.287-9.9-2.193-12.525.093-2.625 7.312-10.968 12.318-12.281z"/>
        <path fill="#C8C8C8" d="M1488.969 99.394l3.356 19.069 15.956 13.725 1.669-1.013-16.594-13.313z"/>
        <path fill="#F7B090" d="M1503.744 134.85a16.875 16.875 0 0 1 3.225 3.319c.75 1.312 3.75 4.987 5.625 4.987s6.468-.3 3.975-3.075l-2.475-2.756s1.425.844.487-.375a6.469 6.469 0 0 0-2.287-1.875 27.544 27.544 0 0 1-2.494-2.587l-6.056 2.362z"/>
        <path fill="#F0EFEF" d="M1513.344 99.581l22.856 5.363-2.719 3.825-19.612-1.407z"/>
        <path fill="#F7B090" d="M1498.1 78.994a39.206 39.206 0 0 0 5.025 2.719c.563 0 2.963-1.35 2.906-2.325-.056-.976-3.225-3.526-3.225-3.526l-4.744 2.888-6.637-3.431M1533.313 109.612a77.588 77.588 0 0 1 10.35-.712c3.13.244 10.593-3.956 10.593-3.956s-.487-2.55-5.062-2.325c-4.575.225 6.262-2.325 2.4-1.632-3.863.694-11.063 1.632-11.063 1.632L1536.2 105l-2.888 4.612z"/>
        <path fill="#F0EFEF" d="M1548.481 101.7l-11.062 11.156a54.525 54.525 0 0 0 17.55-1.387l12.75-2.569 4.331-10.463-23.569 3.263z"/>
        <path fill="#F7B090" d="M1548.481 101.7s-.487 1.612.957 2.081c1.443.469 1.443.469 1.2-1.387-.244-1.857-2.157-.694-2.157-.694z"/>
        <path fill="#020203" d="M1651.906 53.794a10.594 10.594 0 0 1 2.738 5.831c0 2.719-2.982 9.15-2.982 9.15l-13.125-10.294s-1.875-.15-1.875-.45c0-.3 1.257-2.737 2.588-3.037 1.331-.3 3.131-2.344 3.919-2.419.787-.075 5.381-1.819 8.737 1.219z"/>
        <path fill="#F7B090" d="M1652.619 77.794l-.713-9.619-.543.75v-.75a6.413 6.413 0 0 0 1.256-2.962c0-1.275-1.425-2.12-1.5-1.275a.881.881 0 0 1-.694.9s.225-6.657.15-6.957c-.075-.3-.394-.3-2.119-.15s-9.225.675-9.768.225c-.544-.45-2.12 11.888-1.257 14.156.863 2.27 2.194 2.87 3.282 2.494 1.087-.375.543 1.669.543 1.669l1.969 5.756 8.831-1.219.563-3.018z"/>
        <path fill="#FFFAFB" d="M1657.381 124.5s12.207 6.356 11.25 6.825c-.956.469-13.125 11.044-21.131 12.563a35.119 35.119 0 0 0-12.675 4.837l-37.95-21.487s7.2-8.044 13.463-8.344c6.262-.3 20.493-8.625 20.493-8.625l26.55 14.231z"/>
        <path fill="#E3E2E2" d="M1668.237 158.419l.413-27.094-33.806 17.4.525 27.169z"/>
        <path fill="#FFFAFB" d="M1596.819 127.237l.994 27.657 37.556 21 .731-28.369z"/>
        <path fill="#020203" d="M1656.331 131.981s-1.556 7.5-10.743 8.175a139.613 139.613 0 0 0-21.807 4.219s.113 8.475.113 9.994c0 1.518-6.394 18.994-6.394 18.994l-7.2.506s.431-27.056.431-29.681.3-8.382 4.163-10.088c3.862-1.706 18.75-8.887 18.75-8.887s22.275 6.862 22.687 6.768z"/>
        <path fill="#020203" d="M1607.825 163.969l3.019-18.975 23.531-19.575-6.994-7.069s-24.881 7.575-24.881 8.569c0 .993-1.463 35.944-1.463 35.944l6.788 1.106z"/>
        <path fill="#B2DEEB" d="M1619.506 170.625h-9.375l-.131 2.738s7.725 1.312 8.456.3a9.919 9.919 0 0 0 1.05-3.038zM1608.65 161.85l-8.344-.394v4.125s8.663 1.219 8.569-.393c-.094-1.613-.225-3.338-.225-3.338z"/>
        <path fill="#000" fill-rule="nonzero" d="M1616.694 174.262l.319 2.625-5.325 2.232-2.607-2.625 2.813-2.925z"/>
        <path fill="#000" fill-rule="nonzero" d="M1617.013 177.694s1.237 2.325-.525 3.037c-1.763.713-11.7 5.156-11.7 5.156s-5.1-.712-4.894-1.725c.206-1.012 9.375-8.08 9.375-8.08a3.056 3.056 0 0 0 2.4 1.218c1.556 0 5.325-.413 5.325-.413l.019.807zM1606.888 166.088s.093 2.025-.844 2.118c-.938.094-4.482 1.632-4.8.713a10.65 10.65 0 0 0-.938-1.875l2.194-1.613 4.388.656z"/>
        <path fill="#000" fill-rule="nonzero" d="M1601.45 174.262s5.531-1.875 5.531-4.03a11.1 11.1 0 0 0-.206-2.832c-1.207.462-2.466.77-3.75.919a9.488 9.488 0 0 1-2.719-1.313 26.831 26.831 0 0 0-5.006 2.025c-1.35.9-6.563 5.344-4.688 6.15s4.688 2.119 10.838-.919z"/>
        <path fill="#020203" d="M1652.581 76.35s.413 2.419-1.35 3.338c-1.762.918-7.612 2.624-7.837 1.612-.225-1.013-1.444-4.95-1.444-4.95a10.631 10.631 0 0 0-2.513-2.325 32.025 32.025 0 0 0-3.018-1.613 23.869 23.869 0 0 0-6.169 16.35c-.094 10.613-2.7 30-2.7 30s5.625 8.475 10.538 8.87a133.37 133.37 0 0 1 16.068 3.618c.413 0 3.844 1.519 3.638-2.925-.207-4.444-.207-15-.207-15s4.913-9.375 5.12-12.131c.205-2.757 2.287-9.882 2.193-12.507-.094-2.624-7.313-11.025-12.319-12.337z"/>
        <path fill="#1F1916" d="M1654.456 92.4l-3.337 19.087-15.957 13.726-1.668-1.013 16.594-13.331z"/>
        <path fill="#F7B090" d="M1639.7 127.875a17.569 17.569 0 0 0-3.244 3.375c-.731 1.331-3.656 4.988-5.625 4.988-1.968 0-6.487-.375-3.956-3.113l2.494-2.775s-1.425.844-.506-.356a7.013 7.013 0 0 1 2.306-1.875 30.187 30.187 0 0 0 2.493-2.588l6.038 2.344zM1645.325 72a38.794 38.794 0 0 1-5.006 2.737c-.563 0-2.963-1.368-2.925-2.325.037-.956 3.244-3.525 3.244-3.525l4.743 2.87 6.638-3.432"/>
        <path fill="#020203" d="M1635.313 75s-10.107 9.544-14.663 11.869c-4.556 2.325-18.056 8.156-18.056 8.156l-13.219 1.387 1.444 5.344s17.793 1.406 25.5-2.325a52.819 52.819 0 0 0 13.931-10.593L1635.313 75z"/>
        <path fill="#F0EFEF" d="M1641.8 75.15l-2.644.244V85.63l4.069-3.6zM1653.35 76.556l-9.131 4.181V86.1l10.331-6.525z"/>
        <path fill="#F0EFEF" d="M1639.644 82.838l-5.775 35.38 10.106-33.75z"/>
        <path fill="#E0EEF8" d="M1713.519 275.887s-3.075 1.688-.957 5.42c2.12 3.73 5.213 4.668 8.307 8.606 3.094 3.937 12.15 5.4 14.475 4.293 2.325-1.106 6.75-3.187 2.512-6.918-4.237-3.732-8.681-5.794-10.05-8.4-1.369-2.607-2.7-2.063-2.7-2.063l-11.587-.938zM1738.813 264.694s-6.938 8.212-1.35 9.525c5.587 1.312 5.793-.188 11.4 1.481 5.606 1.669 10.818 4.669 14.287 1.875 3.469-2.794 3.75-3.919 1.35-5.625a50.025 50.025 0 0 0-12.75-7.275l-12.938.019z"/>
        <path fill="#020203" d="M1738.813 264.694s-1.726-11.963-2.12-16.632c-.393-4.668-1.874-10.275-.768-16.63a87.001 87.001 0 0 0 1.35-9.9l11.006-45 15-8.213s2.513 5.044.582 15.862c-1.932 10.819-5.982 34.388-6.957 39.244-.975 4.856-4.631 3.544-3.862 8.587.437 1.9.633 3.846.581 5.794l-.581 27.638s-7.857 5.4-14.232-.75z"/>
        <path fill="#E1A790" d="M1738.044 107.775s6.187 4.294 8.306 3.75a17.981 17.981 0 0 0 5.4-3.919l-7.144-.562-6.562.731z" opacity=".5"/>
        <path fill="#E0EEF8" d="M1732.25 107.588a155.437 155.437 0 0 0-13.125 11.38 54.375 54.375 0 0 0-9.263 12.9s11.382 5.232 11.775 7.5c.394 2.27 3.47-.543 3.47-.543s-3.282-3.75-1.163 2.794c2.119 6.543 2.906 19.05 2.906 19.05l-.769 10.65a35.006 35.006 0 0 0 13.707.75c8.68-.938 23.156-6.169 23.156-6.169s-.957-31.013-.957-32.119c0-1.106 3.75-5.625 3.75-5.625s.957 0 1.35-5.419c.394-5.418-1.556-13.124-3.75-14.568-2.193-1.444-8.493-3-10.425-1.688-1.93 1.313-6.562 5.794-13.706 2.25-7.143-3.543-6.956-1.143-6.956-1.143z"/>
        <path fill="#1F1916" d="M1725.688 172.969s-.957 13.256-1.35 19.05c-.394 5.793-3.863 25.969-5.025 28.575-1.163 2.606-7.5 9.375-6.376 20.737 1.126 11.363-1.143 33.45-1.143 33.45s14.287 6.15 14.662 1.481c.375-4.668 2.325-7.087 1.875-16.068-.45-8.982-.581-16.988.975-20.719 1.556-3.731 9.075-19.444 13.313-28.594 4.237-9.15 5.793-25.969 5.793-25.969s9.282-9.15 9.375-13.256c.094-4.106-.768-4.106-.768-4.106l-31.332 5.419z"/>
        <path fill="#E0EEF8" d="M1724.919 139.331s2.306-.581 3.206 8.794c.9 9.375-1.744 21.469-.769 22.5.975 1.031 2.513 5.625 9.844 4.856 7.331-.768 22.594-5.418 24.712-7.837 2.12-2.419 1.163-3.544 1.35-9.713a115.968 115.968 0 0 1 2.363-16.162l1.875-20.925s-2.138-14.569-8.306-15.506c-6.169-.938-32.063 3.75-33.207 7.856-1.143 4.106-1.068 26.137-1.068 26.137z"/>
        <path fill="#F7B090" d="M1763.525 155.4c.515 3.84.71 7.716.581 11.588-.375 4.106-3.656 10.087 0 7.65 3.657-2.438 6.769 0 5.419-10.444a41.25 41.25 0 0 0-4.838-15.881l-1.162 7.087zM1710.819 132.056a108.055 108.055 0 0 0-5.625 11.25c-1.875 4.856-5.231 14.756-2.719 15.863 2.513 1.106 15.844 7.856 19.5 9.543 3.656 1.688 8.7 3.75 9.656 5.776.957 2.024 1.875 5.418 2.7 6.918.825 1.5 2.138 1.125 1.557-1.5-.582-2.625.375 3.375 3.468 2.625 3.094-.75 3.863 0 2.119-5.625-1.744-5.625-1.35-7.106-5.625-10.462s-17.381-13.125-19.125-14.006c-1.744-.882 5.025-10.65 5.213-11.4.187-.75-2.7-10.463-11.57-9.713"/>
        <path fill="#E1A790" d="M1738.625 97.875L1737.5 105s-4.05-.188-1.744 1.875 10.819 6.731 13.725 3.919a5.925 5.925 0 0 0 2.306-5.231l-13.162-7.688z"/>
        <path fill="#000" fill-rule="nonzero" d="M1758.313 83.494l-7.332 6.337-12.356 8.794s-6.563-6.731-5.794-11.588c.769-4.856 2.7-10.462 7.725-11.025 5.025-.562 16.407 2.063 17.756 4.294 1.35 2.231 0 3.188 0 3.188z"/>
        <path fill="#F7B090" d="M1740.162 94.875c-.675-.15-3.28-4.294-4.237-2.794-.956 1.5-.3 3.544 2.7 5.794 3 2.25 8.306 8.213 10.612 8.588 2.307.375 6.957-1.125 7.726-5.044.768-3.919-.375-14.007-.375-14.007l-12.938.375s-1.931 7.463-3.488 7.088zM1963.831 74.138s-9.937 5.212-11.7 5.774c-1.762.563-5.025 1.125-6.206 1.37-1.181.243-4.331 2.024-1.406 2.587 2.24.272 4.512.08 6.675-.563a53.775 53.775 0 0 0 5.381-.9c1.65-.45 7.031-2.156 7.031-2.156l2.213-4.744-1.988-1.368z"/>
        <path fill="#030404" d="M1984.55 169.369s2.813 3.168 1.631 5.1c-1.181 1.931-3.862 2.831-6.075 4.293-2.212 1.463-6.787 3.62-7.256 1.257-.469-2.363 4.088-5.625 4.088-5.625l7.612-5.025zM1975.419 167.325s2.456 1.031 1.293 3.056a16.35 16.35 0 0 1-5.85 5.1c-1.65.788-7.03 3.75-6.918 1.125.112-2.625.6-2.493 2.7-4.518s8.775-4.763 8.775-4.763zM1975.306 119.55s3.75 23.438 3.282 26.494c-.47 3.056-1.407 14.043-1.52 16.069-.112 2.024-1.874 2.606-3.993 2.156-2.119-.45-3.263-.788-3.038-3.957.226-3.168-1.162-9.75-1.518-13.125-.357-3.375-1.875-11.25-2.813-16.068-.937-4.819-3.15-17.55-3.506-20.382-.356-2.83-.581-6.337-.581-6.337l12.131 9.975 1.556 5.175z"/>
        <path fill="#F7B090" d="M1981.981 58.856l-4.687 4.894-8.663-2.025 2.006-4.669.338-.768.825-1.613.581-1.106c-.236.269-.493.52-.769.75-.637.525-1.575 1.05-2.268.375a23.362 23.362 0 0 1-3.432-4.275 7.95 7.95 0 0 1-.787-1.613 52.5 52.5 0 0 1-1.406-8.606 2.606 2.606 0 0 0-.244-.825.956.956 0 0 0 .356.094s.638-1.875 2.982-1.069c2.343.806 6.562 1.575 8.137 3.563.49.584.832 1.279.994 2.024a2.738 2.738 0 0 1 2.4-1.443l1.462 1.594.769.825-.394 3.75-.244 2.4-.3 3.075 1.332 2.643 1.012 2.025z"/>
        <path fill="#A87816" d="M1984.7 46.2a8.962 8.962 0 0 1-.375 1.969 4.013 4.013 0 0 1-4.388 2.962l.244-2.4.394-3.75-.769-.825c-.093-.731-.319-1.294-.881-1.5a1.875 1.875 0 0 0-.581 0 2.738 2.738 0 0 0-2.4 1.444 4.706 4.706 0 0 0-.994-2.025c-1.575-1.988-5.794-2.775-8.138-3.563-2.343-.787-2.98 1.07-2.98 1.07a.956.956 0 0 1-.357-.095c-.412-.168-1.012-.675-.806-2.175a8.325 8.325 0 0 1 4.65-5.437c.769-1.125 10.481-1.331 10.481-1.331l-.112-1.125c-.188-1.294 2.324-1.556 5.437 2.456 3.112 4.013.15 2.888 0 2.85A25.125 25.125 0 0 1 1984.7 46.2z"/>
        <path fill="#72371A" d="M1975.888 44.25a.769.769 0 0 1 0-.3c.206.712-.038 1.05 0 .3z"/>
        <path fill="#EBF3F8" d="M1988.169 60.319l-6.788-2.494s-2.681 4.2-4.312 4.425c-1.631.225-6.919-1.35-7.032-2.831a3.75 3.75 0 0 1 .582-2.381s-1.631-.9-2.681 1.143c-1.05 2.044-7.388 8.944-5.626 12.45 1.763 3.507 2.457 3.957 2.1 5.625-.356 1.669-4.087 23.663-3.75 25.594.338 1.931 6.075 14.025 18.375 11.55 12.3-2.475 9.938-8.606 9.938-8.606s-2.681-5.775-4.087-9.525c-1.407-3.75-2.232-19.013-2.232-19.013a60.412 60.412 0 0 0 8.082-1.875c.243-.581 1.537-12.243-2.57-14.062z"/>
        <path fill="#CAD9DE" d="M1975.775 75.731a11.081 11.081 0 0 1-4.8-1.143c-1.294-1.013-5.025-.225-6.206-.788-1.181-.563 0 1.875 0 1.875l4.218-.225c2.251.285 4.522.379 6.788.281z"/>
        <path fill="#151518" d="M1986.875 110.494s-2.231 6.562-3.056 9.375a57.862 57.862 0 0 0-.338 13.462 32.081 32.081 0 0 1 3.038 11.25c.112 3.975-.113 23.325-.113 23.325s-4.931.582-5.85-.562c-.918-1.144-1.406-7.125-1.65-10.988a52.5 52.5 0 0 0-2.681-11.25c-1.181-4.087-4.688-17.681-4.931-20.85-.244-3.168-1.988-12.225-1.988-12.225l17.569-2.006"/>
        <path fill="#F7B090" d="M1984.662 167.662l.338 2.963a7.106 7.106 0 0 1-2.925 3.975c-2.456 1.688-7.388 2.831-5.513.787 1.876-2.043 3.994-4.312 3.994-4.312l1.275-3.281 2.832-.132zM1975.419 164.156v3.169a19.669 19.669 0 0 1-4.088 3.844c-2.456 1.706-5.737 1.706-3.637-.338 2.1-2.043 3.75-3.75 3.75-3.75l.581-3.056 3.394.131zM1950.144 80.362a10.031 10.031 0 0 0-2.644-1.612c-1.069-.338-.713.338.112 1.463s.357 1.875.357 1.875l2.1-1.032M1982.675 76.181s.356 9.375.506 10.669c.15 1.294.938 5.738 1.088 6.356.15.619-.619 12.675-.938 14.494-.318 1.819-3.75 4.819-3.75 4.819l4.2 1.875s3.9-2.869 3.9-3.938.169-5.269.169-5.269 2.175-10.275 2.325-12.693c.15-2.419-.769-17.813-.769-17.813l-6.731 1.5z"/>
        <path fill="#72371A" d="M1980.181 48.75l-.244 2.4a5.831 5.831 0 0 1-1.443-.281l1.519-1.875.168-.244z"/>
        <path fill="#A87816" d="M1978.494 50.85l.356-2.719a3.506 3.506 0 0 0 1.294-2.606 21.037 21.037 0 0 0-1.538-5.887l3.75 7.03-.937 2.138-2.925 2.044z"/>
        <path fill="#E0EEF8" d="M1267.044 160.519a2.456 2.456 0 0 0-.657 3.637c1.426 2.513 3.507 3.15 5.626 5.794 2.118 2.644 8.175 3.638 9.73 2.888 1.557-.75 4.538-2.138 1.688-4.65-2.85-2.513-5.85-3.9-6.75-5.625-.9-1.725-1.875-1.37-1.875-1.37l-7.762-.674zM1284.031 152.981s-4.668 5.625-.9 6.413c3.769.787 3.9-.132 7.65.993 3.75 1.125 7.275 3.15 9.619 1.275 2.344-1.875 2.456-2.643.9-3.75a33.75 33.75 0 0 0-8.569-4.912l-8.7-.019z"/>
        <path fill="#020203" d="M1284.031 152.981s-1.162-8.025-1.425-11.25c-.262-3.225-1.293-6.9-.506-11.25.422-2.2.723-4.422.9-6.656l7.5-30.281 10.125-5.419s1.688 3.394.394 10.669-4.032 23.118-4.688 26.381c-.656 3.263-3.112 2.381-2.587 5.775a18 18 0 0 1 .394 3.9l-.394 18.581s-5.419 3.694-9.713-.45z"/>
        <path fill="#E1A790" d="M1283.525 47.475s4.144 2.906 5.625 2.512a11.85 11.85 0 0 0 3.637-2.625l-4.8-.375-4.462.488z" opacity=".5"/>
        <path fill="#E0EEF8" d="M1279.625 47.362a105 105 0 0 0-8.831 7.65 36.45 36.45 0 0 0-6.225 8.738s7.65 3.506 7.912 5.025c.263 1.519 2.344-.394 2.344-.394s-2.213-2.512-.788 1.875a69.712 69.712 0 0 1 1.875 12.806l-.524 7.163a23.85 23.85 0 0 0 9.225.506 90.675 90.675 0 0 0 15.58-4.143s-.656-20.85-.656-21.6 2.476-3.75 2.476-3.75.637 0 .9-3.75c.262-3.75-.957-8.738-2.288-9.75-1.331-1.013-5.625-2.007-7.013-1.126-1.387.882-4.425 3.882-9.225 1.5-4.8-2.38-4.762-.75-4.762-.75z"/>
        <path fill="#1F1916" d="M1275.219 91.313s-.657 8.924-.919 12.825a142.106 142.106 0 0 1-3.375 19.2c-.769 1.762-5.063 6.28-4.275 13.95.787 7.668-.788 22.5-.788 22.5s9.62 4.143 9.863 1.012c.244-3.131 1.556-4.781 1.313-10.8-.244-6.019-.394-11.438.637-13.95 1.031-2.513 6.112-13.125 8.963-19.219 2.85-6.094 3.9-17.456 3.9-17.456s6.225-6.15 6.356-8.925c.131-2.775-.525-2.756-.525-2.756l-21.15 3.618z"/>
        <path fill="#E0EEF8" d="M1274.694 68.719s1.556-.394 2.212 5.887c.657 6.282-1.181 14.457-.525 15A6.169 6.169 0 0 0 1283 92.87c4.931-.488 15.188-3.638 16.612-5.269 1.425-1.631.788-2.381.92-6.525.27-3.631.79-7.24 1.556-10.8l1.293-14.081s-1.425-9.788-5.625-10.425c-4.2-.638-21.506 2.587-22.293 5.362-.788 2.775-.77 17.588-.77 17.588z"/>
        <path fill="#F7B090" d="M1300.625 79.519c.337 2.579.462 5.181.375 7.781-.244 2.756-2.456 6.788 0 5.156 2.456-1.631 4.556 0 3.638-7.05a27.619 27.619 0 0 0-3.244-10.669l-.769 4.782zM1265.206 63.75a72.412 72.412 0 0 0-3.75 7.5c-1.312 3.263-3.506 9.919-1.875 10.688 1.632.768 10.65 5.268 13.125 6.393 2.475 1.125 5.85 2.513 6.488 3.9.637 1.388 1.293 3.638 1.875 4.65.581 1.013 1.425.75 1.05-1.012-.375-1.763.244 2.269 2.325 1.762 2.081-.506 2.606 0 1.425-3.75-1.181-3.75-.9-4.781-3.75-7.031s-11.7-8.794-12.863-9.375c-1.162-.581 3.375-7.144 3.506-7.65.132-.506-1.874-7.031-7.78-6.544"/>
        <path fill="#E1A790" d="M1283.9 40.819l-.769 4.781s-2.737-.131-1.162 1.256c1.575 1.388 7.256 4.519 9.206 2.644a3.994 3.994 0 0 0 1.556-3.525l-8.831-5.156z"/>
        <path fill="#530E1D" d="M1297.156 31.163l-4.931 4.256-8.325 5.831s-4.406-4.519-3.881-7.781c.525-3.263 1.875-7.032 5.194-7.5 3.318-.469 11.024 1.368 11.943 2.887.919 1.519 0 2.306 0 2.306z"/>
        <path fill="#F7B090" d="M1284.95 38.813c-.45-.113-2.213-2.888-2.869-1.876-.656 1.013-.243 2.382 1.875 3.882 2.119 1.5 5.625 5.531 7.144 5.793a4.837 4.837 0 0 0 5.194-3.393 47.55 47.55 0 0 0-.263-9.375l-8.7.262s-1.35 4.969-2.381 4.706z"/>
        <path fill="#E5E5E4" d="M1352.581 104.513h-47.456a175.387 175.387 0 0 1 47.456 0z"/>
        <path fill="#FFF" fill-rule="nonzero" d="M1327.006 111.056h2.681v60.769h-2.681z"/>
        <path fill="#E5E5E4" d="M1361.694 104.513v3.637c0 2.887-14.7 5.231-32.85 5.231-18.15 0-32.832-2.344-32.832-5.231v-3.638h65.682z"/>
        <path fill="#FFF" d="M1361.694 104.513c0 2.906-14.7 5.25-32.832 5.25-18.13 0-32.85-2.344-32.85-5.25 0-2.907 14.7-5.25 32.85-5.25 18.15 0 32.832 2.362 32.832 5.25z"/>
        <path fill="#FFF" fill-rule="nonzero" d="M1327.55 170.006l-15.019 6.75 14.475-4.931zM1329.275 171.431l-.525-1.8 15 6.732"/>
        <path fill="#E5E5E4" d="M1803.125 180.938h-70.631c23.422-3.2 47.171-3.2 70.594 0h.037z"/>
        <path fill="#FFF" fill-rule="nonzero" d="M1765.044 190.669h3.975v90.394h-3.975z"/>
        <path fill="#E5E5E4" d="M1816.644 180.938v5.4c0 4.312-21.881 7.8-48.863 7.8-26.981 0-48.75-3.488-48.75-7.8v-5.4h97.613z"/>
        <ellipse cx="1767.781" cy="180.938" fill="#FFF" fill-rule="nonzero" rx="48.844" ry="7.8"/>
        <path fill="#FFF" fill-rule="nonzero" d="M1765.85 278.363l-22.331 10.012 21.525-7.313zM1768.438 280.481l-.807-2.7 22.313 10.013"/>
        <path fill="#E0EEF8" d="M1824.95 300.337a62.044 62.044 0 0 1-6.713-2.924c-1.256-.844-10.875-1.688-8.83 2.174a15 15 0 0 0 7.968 7.238c2.419.656 5.044 3.206 6.6 3.863 1.556.656 6.619 3 7.106-.844a20.625 20.625 0 0 0-.112-6.507s-6.788-.28-6.019-3z"/>
        <path fill="#1F1916" d="M1798.213 223.688s1.368 20.306 1.556 24.825c.187 4.518 3.112 14.68 3.9 18.056.787 3.375 4.275 21.075 4.068 24.637-.206 3.563.394 10.538.394 10.538s.788 2.643 8.175 2.268a150.993 150.993 0 0 0 2.513-16.18c0-3.75.206-18.245-.957-22.763a64.275 64.275 0 0 1-.975-13.125s4.275 10.725 4.275 13.125c0 2.4 1.875 32.925 1.875 32.925s7.013 3.562 7.988 2.25c.975-1.313 3.75-16.557 3.487-18.994-.262-2.438.207-15-.975-21.45-1.18-6.45-1.35-23.888-1.35-23.888a19.275 19.275 0 0 0 3.113-6.018c.188-2.063.975-8.269.975-8.269s-29.306 5.644-38.063 2.063z"/>
        <path fill="#F7B8A0" d="M1809.106 303.056s-.768 2.925.188 3.019c.956.094 4.575 1.781 4.968 0 .394-1.781.976-2.063.976-2.063l-6.132-.956zM1824.95 299.025s-.394 3.094.581 3.281c.975.188 5.157 1.594 5.157 1.594v-3.563l-5.344-1.218"/>
        <path fill="#E0EEF8" d="M1809.2 303.75a65.082 65.082 0 0 1-6.713-2.906c-1.256-.844-10.875-1.688-8.83 2.156a15 15 0 0 0 7.968 7.256c2.419.657 5.044 3.188 6.6 3.844 1.556.656 6.619 3.019 7.106-.844a20.85 20.85 0 0 0 0-6.487s-6.9-.225-6.131-3.019z"/>
        <path fill="#120E0A" d="M1809.106 242.681a30 30 0 0 0 6.019-1.406c.975-.656.581 1.875.487 5.831-.093 3.957 1.557 17.213 1.557 18.432 0 1.218-1.65 21.543-1.65 21.543l-.394 1.406-1.556-.468s1.069-9.225 1.069-11.569c0-2.344-3.75-10.256-3.882-13.631-.131-3.375-1.65-20.138-1.65-20.138zM1824.463 239.213a28.781 28.781 0 0 0 6.018-1.425c.975-.657.6 1.874.488 5.83-.113 3.957 1.556 17.213 1.556 18.432 0 1.219-1.65 21.544-1.65 21.544l-.394 1.406-1.537-.469s1.069-9.206 1.069-11.569c0-2.362-3.75-10.237-3.9-13.63-.15-3.394-1.65-20.12-1.65-20.12z"/>
        <path fill="#F7B296" d="M1815.594 158.231c.536-2.394.88-4.826 1.031-7.275-.131-1.743-4.931-1.631-6.994-1.631-2.062 0-2.344-3.375-2.081-7.275.263-3.9 1.031-11.531 2.081-14.156s15.413.112 15.413.112l2.718 24.582s3.113 5.775-11.662 5.775"/>
        <path fill="#6A3622" d="M1808.919 126.638s3.487 4.312 3.75 6.018c.262 1.707-1.763 20.625-1.763 20.625h11.475c3.3 0 10.894 0 11.25-7.144.356-7.143-2.231-35.174-24.712-19.5z"/>
        <path fill="#1F1916" d="M1814.544 158.419s-13.613 6.393-13.988 9.375c-.375 2.981-3.506 19.181-3.506 19.181l-11.475-8.662s-5.25 1.33-4.65 6.018c0 0 16.706 15 20.213 15.244 3.506.244 3.75-.563 3.75-.563a66.883 66.883 0 0 1-1.163 6.957c-.394.75-6.619 13.125-5.456 17.681a38.662 38.662 0 0 0 21.187 4.331c13.125-.75 17.119-3.75 16.725-7.912-.394-4.163-.975-11.081-1.162-18.244-.188-7.162 1.744-20.494 1.875-25.762.131-5.27 2.512-16.182 1.35-18.994-1.163-2.813-4.275-7.894-9.131-4.144.018.037-3.282 8.137-14.57 5.494z"/>
        <path fill="#120E0A" d="M1804.831 199.05s6.994-26.044 6.994-28.125c0-2.081.487 3.019 0 6.487-.487 3.47-.3 6.394-1.369 12.507-1.068 6.112-1.875 13.275-2.906 14.025-1.031.75-5.925 19.369-5.625 20.306l-3.975-.75c.165-3.188.751-6.34 1.744-9.375 1.556-4.313 4.762-7.238 4.95-9.769.187-2.531.187-5.306.187-5.306z"/>
        <path fill="#F7B8A0" d="M1785.069 178.912l-4.219 3.75a7.369 7.369 0 0 0-2.4-2.662c-1.612-1.069-4.8-3.506-4.856-5.381-.057-1.875-1.238-2.832.131-3.019 1.369-.188 2.981 1.069 4.144 2.081.366.363.84.6 1.35.675l.262.188 4.613 2.4c.262.356.468.619.525.675.193.415.344.848.45 1.293z"/>
        <path fill="#F7B8A0" d="M1784.094 176.925l-4.613-2.4-.262-.188c.375 0 .562-.168.468-.43-.093-.263-1.424-2.945-.318-2.25a8.888 8.888 0 0 1 2.512 2.118c.15.338 1.463 2.119 2.213 3.15z"/>
        <path fill="#FFF" d="M1795.756 170.719l-11.662 6.206c-.75-1.031-2.063-2.813-2.213-3.15a8.888 8.888 0 0 0-2.512-2.119c-1.106-.694.112 1.744.319 2.25.206.506-.094.469-.47.431l-13.124-8.962s2.4-4.256 6.15-5.081c3.75-.825 7.5-2.007 7.5-2.007l16.012 12.432z"/>
        <path fill="#000" fill-rule="nonzero" d="M1683.8 303.75s-3.112 4.762-.431 4.913c2.681.15 11.25.262 15.225.262 3.975 0 10.162-3.3 8.906-5.175-1.256-1.875-4.8-2.456-7.612-2.325-2.813.131-16.088 2.325-16.088 2.325z"/>
        <path fill="#120E0A" d="M1688.75 217.35s.281 16.875-.431 21.281c-.713 4.406-8.738 16.875-8.175 27.019.562 10.144 3.093 27.3 3.093 27.3l7.35-.15s-1.143-11.719-.862-14.175c.281-2.456 2.55-15 3.113-17.194.562-2.193 11.568-19.106 11.85-26.081.28-6.975 1.687-18.131 1.687-18.131l-11.138-21.019a4.294 4.294 0 0 0-3.956 1.369c-1.875 1.875-2.4 8.044-2.4 9.956 0 1.912-.131 9.825-.131 9.825z"/>
        <path fill="#F39872" d="M1684.494 293.363s-.131 6.806-.131 7.63c0 .826-1.988 4.107 4.5 3.75 6.487-.356 9.88-.543 10.574-.412.694.131 5.513-2.043 1.876-2.175a88.744 88.744 0 0 1-10.294-1.5l-1.556-7.65-4.97.357z"/>
        <path fill="#000" fill-rule="nonzero" d="M1720.456 311.363s-3.75 3.412-1.875 4.5c1.875 1.087 7.069 3.15 9.75 5.062 2.682 1.912 13.95 5.044 13.95 2.587 0-2.456-.281-3.28-6.337-6.412a99.675 99.675 0 0 0-15.488-5.738z"/>
        <path fill="#1F1916" d="M1693.813 196.613s-6.076 5.456.13 13.125c6.207 7.668 8.738 7.5 8.738 7.5l7.763 18s2.55 16.875 2.4 21.43c-.15 4.557-5.082 14.457 2.119 30.695 7.2 16.237 5.625 16.875 5.625 16.875l6.206-1.52s-4.519-36.018-4.088-40.518c.432-4.5 4.088-37.8 2.4-48.169-1.687-10.369-2.55-14.194-2.55-14.194l-28.744-3.224z"/>
        <path fill="#F39872" d="M1721.881 303.994a15.694 15.694 0 0 1-.581 5.062c-.694 1.632-.75 4.406 1.088 4.669 1.837.262 13.443 5.475 13.725 4.912.28-.562 2.118-.862.43-1.875-1.687-1.012-6.637-4.5-6.637-4.5l-3.656-9.768-3.75 1.237"/>
        <path fill="#F7B8A0" d="M1695.35 147.075l-.131-4.575s-5.794-13.912-.994-16.106c4.8-2.194 14.381-.544 14.381-.544s4.107 7.106 4.107 9.375-1.426 9.019-4.8 9.375a2.419 2.419 0 0 0-2.288 3.15l.3 2.456-10.575-3.131z"/>
        <path fill="#530E1D" d="M1709.6 145.706s-12.131-1.875-15.938-4.781c-3.806-2.906-8.662-11.738-8.662-11.738l2.831-6.412c.844-1.875 3.525-5.719 7.744-5.625 4.219.094 20.325 1.875 19.612 9.825-.712 7.95-.43 5.325-.43 5.325a5.006 5.006 0 0 0-3.657 1.219c-1.069 1.481-1.912 11.512-1.5 12.187z"/>
        <path fill="#FFF" d="M1688.019 149.794l5.362-5.044 12.975 3.544.563 3.412s10.162 7.107 11.568 9c1.407 1.894 7.2 7.65 2.963 13.931-4.237 6.282-3.525 7.632-3.394 10.5.131 2.87 4.519 14.063 4.519 14.063s-8.325 7.088-18.188 3.131c-9.862-3.956-12.562-7.631-12.562-7.631s4.669-5.063 4.8-6.956c.131-1.894-7.763-17.063-7.763-17.063a63.263 63.263 0 0 0-4.5 6.825c.132.394 6.057 6.131 6.057 6.131s-4.932 8.326-5.625 8.457c-.694.131-14.382-6.413-14.532-9.375-.15-2.963 7.763-17.606 9.376-21.563 1.612-3.956 8.38-11.362 8.38-11.362z"/>
        <path fill="#E9E8E7" d="M1702.681 185.625c.15 3.412 3.263 17.887 3.263 17.887l9.862-1.65s2.119.563.431-6.13c-1.687-6.695-3.75-19.107-2.962-22.932a48.75 48.75 0 0 0 2.4-9.675c.131-3.262.413.956-2.681.563-3.094-.394-10.313-4.65-9.6 7.912.712 12.563-.713 14.025-.713 14.025z"/>
        <path fill="#F39872" d="M1712.563 211.744s4.087 3.018 4.237 6.15a65.362 65.362 0 0 1-.563 8.456s-2.83 6.281-.712 4.65a4.781 4.781 0 0 0 2.119-3.412s-1.125 8.587 1.687 7.218a11.137 11.137 0 0 0 5.213-7.912 44.85 44.85 0 0 0-2.25-10.5c-1.557-4.65-3.957-10.65-3.957-10.65l-8.456 1.087 3.244 4.782M1685.769 190.875l7.05 2.044 4.65-5.175-7.482-3.019-3.806 5.606"/>
        <path fill="#FFF" d="M1705.231 189.506c.131 3.413 3.244 17.888 3.244 17.888l9.863-1.65s2.118.543.43-6.131c-1.687-6.675-3.75-19.107-2.962-22.932a48.75 48.75 0 0 0 2.4-9.694c.132-3.262 0-6.825-3.112-7.218-3.113-.394-10.013-.563-9.375 12 .637 12.562-.488 17.737-.488 17.737z"/>
        <path fill="#000" fill-rule="nonzero" d="M1881.706 190.35s-2.362 3.75-.318 3.75c2.043 0 8.662.206 11.7.206 3.037 0 7.78-2.512 6.806-3.975-.975-1.462-3.75-1.875-5.832-1.875-2.08 0-12.356 1.894-12.356 1.894z"/>
        <path fill="#120E0A" d="M1885.513 124.069s.206 12.881-.338 16.331c-.544 3.45-6.712 12.994-6.281 20.737.431 7.744 2.381 20.944 2.381 20.944l5.625-.112s-.881-9-.656-10.894c.225-1.894 1.875-11.512 2.381-13.125.506-1.612 8.869-14.662 9.094-20.006.225-5.344 1.293-13.931 1.293-13.931l-8.55-16.126a3.319 3.319 0 0 0-3.037 1.05c-1.406 1.463-1.875 6.188-1.875 7.65 0 1.463-.037 7.482-.037 7.482z"/>
        <path fill="#F39872" d="M1882.25 182.4s-.094 5.231-.094 5.85c0 .619-1.518 3.15 3.45 2.944 4.969-.206 7.5-.431 8.119-.319.619.113 4.219-1.575 1.406-1.669a66.243 66.243 0 0 1-7.894-1.162l-1.2-5.869-3.787.225z"/>
        <path fill="#000" fill-rule="nonzero" d="M1909.85 196.219s-2.813 2.606-1.406 3.45c1.406.843 5.418 2.418 7.5 3.881 2.081 1.462 10.706 3.862 10.706 1.987s-.225-2.512-4.875-4.93a75.619 75.619 0 0 0-11.925-4.388z"/>
        <path fill="#1F1916" d="M1889.375 108.15s-4.65 4.181.112 10.05c4.763 5.869 6.713 5.756 6.713 5.756l5.944 13.838s1.875 12.975 1.875 16.425c0 3.45-3.9 11.1 1.612 23.569 5.513 12.468 4.332 12.88 4.332 12.88l4.762-1.162s-3.469-27.637-3.131-31.087c.337-3.45 3.131-29.007 1.875-36.975-1.256-7.969-1.875-10.875-1.875-10.875l-22.219-2.419z"/>
        <path fill="#F39872" d="M1910.938 190.556c.07 1.309-.076 2.62-.432 3.881-.543 1.257-.581 3.375.825 3.6 1.407.225 10.313 4.182 10.538 3.75.225-.43 1.631-.674.319-1.5-1.313-.825-5.082-3.468-5.082-3.468l-2.812-7.5-2.925.937"/>
        <path fill="#F7B8A0" d="M1890.594 70.144l-.113-3.563s-4.444-10.687-.75-12.356c3.694-1.669 11.025-.413 11.025-.413s3.15 5.438 3.15 7.107c0 1.669-1.087 6.919-3.75 7.125a1.875 1.875 0 0 0-1.744 2.625l.226 1.875-8.044-2.4z"/>
        <path fill="#E8317C" d="M1884.969 72.244l4.106-3.882 9.956 2.72.432 2.624a83.456 83.456 0 0 1 8.868 6.919c1.088 1.463 5.532 5.869 2.288 10.688-3.244 4.818-2.719 5.868-2.606 8.062a74.306 74.306 0 0 0 3.468 10.781s-6.393 5.456-13.968 2.419c-7.575-3.038-9.62-5.869-9.62-5.869s3.563-3.881 3.75-5.344c.188-1.462-5.962-13.124-5.962-13.124a48.6 48.6 0 0 0-3.45 5.23c.094.32 4.65 4.726 4.65 4.726a52.032 52.032 0 0 1-4.331 6.487c-.544 0-11.044-4.931-11.25-7.237-.206-2.306 5.963-13.5 7.144-16.538 1.181-3.037 6.525-8.662 6.525-8.662z"/>
        <path fill="#E8317C" fill-rule="nonzero" d="M1896.219 99.769c.112 2.625 2.494 13.725 2.494 13.725l7.5-1.257s1.612.413.318-4.706c-1.293-5.119-2.737-14.662-2.156-17.531a37.257 37.257 0 0 0 1.875-7.5c.112-2.513.319.731-2.063.412-2.38-.318-7.893-3.562-7.35 6.075.544 9.638-.618 10.782-.618 10.782z"/>
        <path fill="#F39872" d="M1903.794 119.775s3.131 2.306 3.243 4.706a48.13 48.13 0 0 1-.43 6.507s-2.157 4.8-.544 3.543a3.637 3.637 0 0 0 1.63-2.606s-.862 6.6 1.294 5.625a8.663 8.663 0 0 0 4.013-6.075 35.194 35.194 0 0 0-1.744-8.063c-1.181-3.562-3.019-8.175-3.019-8.175l-6.506.844 2.494 3.75M1883.225 103.763l5.419 1.556 3.562-3.975-5.737-2.306-2.907 4.293"/>
        <path fill="#E8317C" d="M1898.169 102.713c.112 2.606 2.493 13.706 2.493 13.706l7.5-1.257s1.613.432.32-4.706c-1.294-5.137-2.813-14.662-2.27-17.587a37.5 37.5 0 0 0 1.876-7.5c.112-2.513 0-5.231-2.382-5.625-2.381-.394-7.687-.413-7.143 9.225.468 4.579.335 9.199-.394 13.744z"/>
        <path fill="#530E1D" d="M1889.525 64.575s14.081-.638 11.25-10.763c-2.831-10.124-9.375-9.825-12.188-7.63-2.812 2.193-7.106 5.924-6.13 8.737.974 2.812.955 10.294 7.068 9.656z"/>
        <path fill="#530E1D" d="M1885.981 56.475s-8.7 3.112-8.062-1.875c.637-4.988 0-9.675 4.2-8.738a7.312 7.312 0 0 1 5.156 5.307l-1.294 5.306z"/>
        <path fill="#F7B090" d="M1371.763 158.512s14.287 7.5 16.875 8.288c2.587.787 7.218 1.631 8.906 1.875 1.687.244 6.206 2.925 2.006 3.75a24.037 24.037 0 0 1-9.581-.825 75.281 75.281 0 0 1-7.725-1.294c-2.344-.656-10.088-3.094-10.088-3.094l-3.187-6.825 2.793-1.875z"/>
        <path fill="#030404" d="M1342.025 295.256s-4.031 4.557-2.363 7.313c1.67 2.756 5.625 4.068 8.738 6.187 3.112 2.119 9.75 5.194 10.425 1.875.675-3.318-5.888-7.968-5.888-7.968l-10.912-7.407zM1355.131 292.331s-3.525 1.463-1.875 4.388a23.306 23.306 0 0 0 8.419 7.312c2.344 1.144 10.069 5.382 9.9 1.632-.169-3.75-.825-3.582-3.862-6.507-3.038-2.925-12.582-6.825-12.582-6.825zM1355.3 223.706s-5.381 33.657-4.706 38.063c.675 4.406 2.025 20.156 2.175 23.081.15 2.925 2.7 3.75 5.718 3.094 3.02-.656 4.707-1.144 4.37-5.625-.338-4.482 1.687-13.988 2.193-18.75.506-4.763 2.681-16.257 4.031-23.082 1.35-6.825 4.538-25.218 5.044-29.268.506-4.05.844-9.113.844-9.113l-17.325 14.138-2.344 7.462z"/>
        <path fill="#F7B090" d="M1345.719 136.556l6.712 6.994 12.45-2.925-2.887-6.694-.488-1.106-1.181-2.306-.825-1.613c.334.39.697.754 1.088 1.088.937.768 2.287 1.518 3.28.543a34.875 34.875 0 0 0 4.932-6.15c.446-.731.823-1.503 1.125-2.306a80.756 80.756 0 0 0 1.95-12.356c.064-.406.177-.803.338-1.181-.159.077-.33.122-.507.131a3.075 3.075 0 0 0-4.275-1.556c-3.356 1.144-9.375 2.287-11.681 5.137a7.031 7.031 0 0 0-1.444 2.888 3.919 3.919 0 0 0-3.431-2.063l-2.1 2.288-1.088 1.181.544 5.456.357 3.469.43 4.406-1.874 3.75-1.425 2.925z"/>
        <path fill="#A87816" d="M1341.875 118.406c.078.956.267 1.9.563 2.813a5.719 5.719 0 0 0 6.28 4.256l-.356-3.469-.543-5.456 1.087-1.181c.131-1.05.469-1.875 1.256-2.138.271-.098.556-.149.844-.15a3.919 3.919 0 0 1 3.431 2.063 7.031 7.031 0 0 1 1.444-2.888c2.269-2.85 8.325-3.993 11.681-5.137a3.075 3.075 0 0 1 4.276 1.556c.175-.01.348-.054.506-.131.6-.263 1.462-.994 1.181-3.132a11.963 11.963 0 0 0-6.675-7.706c-1.125-1.612-15-1.875-15-1.875l.169-1.631c.168-1.612-3.357-2.1-7.894 3.75s-.206 4.144 0 4.069a36.581 36.581 0 0 0-2.25 16.387z"/>
        <path fill="#72371A" d="M1354.456 115.575a1.2 1.2 0 0 0 0-.431c-.281 1.106.057 1.406 0 .431z"/>
        <path fill="#E8317C" d="M1336.813 138.75l9.75-3.581s3.862 6.018 6.206 6.337c2.343.319 9.918-1.875 10.087-4.069a5.231 5.231 0 0 0-.843-3.412 2.794 2.794 0 0 1 3.88 1.631c1.5 2.925 10.576 12.844 8.063 17.888-2.512 5.043-3.525 5.625-3.018 7.968.506 2.344 5.868 33.976 5.362 36.75-.506 2.775-8.737 20.157-26.381 16.576-17.644-3.582-14.288-12.357-14.288-12.357s3.863-8.287 5.888-13.65c2.025-5.362 3.187-27.319 3.187-27.319s-11.25-2.118-11.587-2.774c-.338-.657-2.194-17.457 3.694-19.988z"/>
        <path fill="#E8317C" fill-opacity=".835" d="M1354.625 160.781s5.044-.15 6.9-1.631c1.856-1.481 7.219-.319 8.906-1.125 1.688-.806 0 2.756 0 2.756l-6.056-.319a57.619 57.619 0 0 1-9.75.32z"/>
        <path fill="#151518" d="M1338.819 210.713s3.206 9.375 4.387 13.48c1.182 4.107.9 18.394.488 19.35a46.256 46.256 0 0 0-4.369 16.257c-.169 5.625.169 33.506.169 33.506s7.069.807 8.418-.806c1.35-1.613 2.007-10.256 2.344-15.788.338-5.53 2.194-10.406 3.863-16.256 1.668-5.85 6.731-25.369 7.069-30 .337-4.631 2.85-17.55 2.85-17.55l-25.22-2.906"/>
        <path fill="#F7B090" d="M1341.875 292.819l-.338 4.219a10.162 10.162 0 0 0 4.2 5.625c3.525 2.437 10.594 4.068 7.894 1.143l-5.625-6.187-1.875-4.707-4.256-.093zM1355.131 287.775v4.556a28.425 28.425 0 0 0 5.888 5.625c3.525 2.438 8.231 2.438 5.212-.487-3.018-2.925-5.381-5.363-5.381-5.363l-.844-4.406-4.875.075zM1391.431 167.456c1.118-1 2.383-1.822 3.75-2.437 1.519-.488 1.013.487-.168 2.1-1.182 1.612-.507 2.606-.507 2.606l-3.019-1.463M1344.706 161.438s-.487 13.387-.712 15.337c-.225 1.95-1.35 8.231-1.575 9.094-.225.862.9 18.225 1.35 20.812.45 2.588 5.381 6.938 5.381 6.938l-6.056 2.606s-5.625-4.106-5.625-5.625c0-1.519-.225-7.5-.225-7.5s-3.131-14.737-3.356-18.206c-.226-3.469 1.125-25.594 1.125-25.594l9.693 2.137z"/>
        <path fill="#72371A" d="M1348.287 122.006l.357 3.469a8.456 8.456 0 0 0 2.062-.412l-2.175-2.607-.244-.45z"/>
        <path fill="#A87816" d="M1350.706 125.063l-.506-3.9a4.987 4.987 0 0 1-1.875-3.75c-.169-2.607 2.175-8.457 2.175-8.457l-5.362 10.069 1.33 3.094 4.238 2.944z"/>
        <path fill="#120E0A" d="M1965.912 285s8.176 8.7 11.438 4.744c3.263-3.957 3.75-10.013 6.263-16.35a244.8 244.8 0 0 1 15.806-30.844c7.368-12.394 15.825-17.025 19.912-48.938l-31.35 4.894s-2.175 25.05-3 29.269c-.825 4.219-7.35 16.875-10.087 24-2.738 7.125-8.982 20.287-8.982 33.225z"/>
        <path fill="#1F1916" d="M1983.256 169.575s2.175-.525 3.094 8.25-1.631 20.231-.731 21.094c.9.862 2.362 5.287 9.262 4.575 6.9-.713 21.263-5.1 23.269-7.388 2.006-2.287 1.087-3.337 1.256-9.131a110.195 110.195 0 0 1 2.194-15.112l1.875-19.688s-2.006-13.725-7.819-14.606c-5.812-.881-30.168 3.525-31.256 7.387-1.088 3.863-1.144 24.619-1.144 24.619z"/>
        <path fill="#E1A790" d="M1996.25 130.537l-1.088 6.694s-3.75-.187-1.63 1.744c2.118 1.931 10.162 6.338 12.9 3.75a5.625 5.625 0 0 0 2.174-4.912l-12.356-7.275z"/>
        <path fill="#120E0A" d="M1995.425 133.012s-14.719 8.25-10.162 10.538c4.556 2.287 16.706 3.169 17.25 3.337.543.17 5.08 2.813 8.362-1.406a36.3 36.3 0 0 0 4.725-7.912l-4.912-1.575a23.119 23.119 0 0 1-3.638 7.031 5.625 5.625 0 0 1-8.175 1.237c-2.531-1.93-5.081-9.843-3.45-11.25zM1984.344 144.956s.187 2.644-4.538 5.457a46.388 46.388 0 0 0-17.437 20.624c-3.75 9.844-3.638 14.063-3.638 14.063l14.532-.713-.188-5.268 10.537-11.419s9.094-2.644 7.632-8.438c-1.463-5.793-6.9-14.306-6.9-14.306zM2017.963 138.094c0 .543 6.712 10.2 5.08 19.35-1.63 9.15-3.75 17.925-3.75 17.925s.17 3 1.088 3.337c.919.338 5.625-8.606 6.169-9.375.777-1.953.966-4.09.544-6.15-.357-2.981-3.263-22.669-8.719-24.375"/>
        <path fill="#1F1916" d="M2027.225 168.694l7.275 7.031-8.175 9.675-7.463-7.219z"/>
        <path fill="#E1A790" d="M2052.05 185.081c0 .207-.431.544-1.556 1.032a35.268 35.268 0 0 1-3.375 1.274c-.82.277-1.66.49-2.513.638a4.125 4.125 0 0 0 0 .544l-7.275 3.412c-4.2-4.05-9.375-8.681-9.375-8.681l6.075-6.6a50.944 50.944 0 0 1 6.394 6.056c2.869 3.357 3.263 3.225 6.45 2.531 2.344-.506 5.137-.73 5.175-.206z"/>
        <path fill="#E1A790" d="M2050.475 198.262a45 45 0 0 1-5.156.77 2.55 2.55 0 0 1-.9-.226 9.562 9.562 0 0 1-2.494-2.25c-.994-1.087-2.7-2.775-4.575-4.575l7.275-3.412a5.006 5.006 0 0 0 3.056 4.237 73.688 73.688 0 0 0 7.182 2.606s1.2 2.082-4.388 2.85z"/>
        <path fill="#1F1916" d="M1958.75 185.044s-5.456-2.813-3.45 1.218c2.006 4.032 2.906 10.557 4.35 10.388 1.444-.169 8.719-1.238 11.081-1.763 2.363-.524 2.738-1.762 3.094-5.98.356-4.22 1.987-7.388-15.075-3.863z"/>
        <path fill="#E1A790" d="M1961.994 196.65s.543 3.15 1.087 8.438c.544 5.287 1.65 6.674-.168 9.487-1.82 2.813-4.182 10.538-1.463 5.794 2.719-4.744 5.1-5.438 3.994-1.875 0 0-5.082 7.912-1.088 6.15 3.994-1.763 7.088-4.388 7.088-7.031a46.594 46.594 0 0 0-1.088-8.607c-.543-2.643-1.275-13.537-1.275-13.537l-6.712.525"/>
        <path fill="#1F1916" d="M1985.806 197.438s-3 4.48.806 16.087c3.807 11.606 16.875 34.012 16.875 37.969 0 3.956-5.625 13.125-1.087 23.456a653043.77 653043.77 0 0 1 14.475 32.963s10.35-.788 13.35-3.15c3-2.363-1.087-8.982-3.544-16.35-2.456-7.37-5.456-7.388-6.543-23.738-1.088-16.35 1.63-21.356-1.875-31.65-3.507-10.294-8.438-17.4-7.894-22.144.543-4.744 4.912-12.918 4.912-12.918s-18.581 5.793-29.475-.525z"/>
        <path fill="#E0EEF8" d="M1962.088 289.725s-2.176 3.169 4.087 5.531c6.263 2.363 9.544 5.288 15.544 6.6 6 1.313 13.125 2.1 8.981-2.644a121.538 121.538 0 0 0-12.263-11.343L1965.914 285l-3.825 4.725zM2017.681 306.863s-1.875 4.743 4.088 5.793c5.962 1.05 2.194.281 8.737 1.594 6.544 1.313 14.7-.788 15-3.75.3-2.962 1.631-2.906-6.543-5.269l-8.176-2.381-13.912 5.063"/>
        <path fill="#B8954A" d="M2014.681 117l-6.9 5.981-11.531 8.269s-6.169-6.338-5.456-10.894c.712-4.556 2.55-9.862 7.275-10.387 4.725-.525 15.45 1.875 16.706 4.05 1.256 2.175-.094 2.981-.094 2.981z"/>
        <path fill="#F7B090" d="M1997.619 127.725c-.638-.15-3.094-4.031-4.013-2.625-.918 1.406-.356 3.338 2.55 5.438 2.907 2.1 7.819 7.743 9.994 8.1 2.175.356 6.544-1.07 7.275-4.763.731-3.694-.375-13.125-.375-13.125l-12.169.356s-1.819 6.975-3.262 6.619z"/>
        <path fill="#282522" fill-rule="nonzero" d="M1480.963 172.5s0-.488-3.394-1.125l-19.013-3.412-32.756 3.75 22.313 6.243 32.85-5.456z"/>
        <path fill="#120E0A" fill-rule="nonzero" d="M1480.438 174.375s.73-1.706.524-2.006c-.206-.3-33.13 5.475-33.13 5.475v1.987s30.187-5.325 32.605-5.456z"/>
        <path fill="#49453F" fill-rule="nonzero" d="M1425.856 171.45a8.662 8.662 0 0 0 .15 1.875c.15.206 22.181 6.394 22.181 6.394v-1.875l-22.33-6.394z"/>
        <path fill="#120E0A" fill-rule="nonzero" d="M1458.556 167.906l-6.244-21.112a.994.994 0 0 0-.88-.713c-.732 0-30.563-.843-30.563-.843s-1.238-.226-.731 1.875c.506 2.1 5.943 24.375 5.943 24.375l32.475-3.582z"/>
        <path fill="#E0EEF8" fill-rule="nonzero" d="M1457.375 167.625l-5.813-20.194a.919.919 0 0 0-.824-.675c-.676 0-28.463-.806-28.463-.806s-1.163-.206-.675 1.688c.488 1.893 5.625 23.4 5.625 23.4l30.15-3.413z"/>
        <path fill="#C33A63" fill-rule="nonzero" d="M1438.606 156.394a4.913 4.913 0 1 0 4.913-5.1 5.006 5.006 0 0 0-4.913 5.1z"/>
        <path fill="#282522" fill-rule="nonzero" d="M1433.412 153.637a4.613 4.613 0 1 0 4.613-4.8 4.706 4.706 0 0 0-4.613 4.8z" opacity=".5"/>
        <path fill="#C33A63" fill-rule="nonzero" d="M1433.75 160.406a4.5 4.5 0 1 0 4.481-4.687 4.575 4.575 0 0 0-4.481 4.687z" opacity=".5"/>
        <path fill="#000" fill-rule="nonzero" d="M1495.456 290.887s3.113 4.763.432 4.894c-2.682.132-11.25.281-15.207.281-3.956 0-10.144-3.28-8.887-5.175 1.256-1.893 4.8-2.456 7.612-2.325 2.813.132 16.05 2.325 16.05 2.325z"/>
        <path fill="#120E0A" d="M1490.525 204.619s-.281 16.762.431 21.262c.713 4.5 8.738 16.875 8.175 26.982-.562 10.106-3.112 27.243-3.112 27.243l-7.313-.131s1.125-11.719.844-14.175c-.281-2.456-2.531-15-3.094-17.156-.562-2.156-11.55-19.088-11.831-26.044-.281-6.956-1.706-18.112-1.706-18.112l11.137-20.982a4.219 4.219 0 0 1 3.938 1.35c1.875 1.875 2.4 8.044 2.4 9.957 0 1.912.131 9.806.131 9.806z"/>
        <path fill="#F39872" d="M1494.763 280.519s.13 6.825.13 7.631 1.988 4.088-4.5 3.75c-6.487-.337-9.862-.544-10.555-.412-.694.13-5.494-2.044-1.875-2.175a88.125 88.125 0 0 0 10.274-1.5l1.557-7.632 4.968.338z"/>
        <path fill="#000" fill-rule="nonzero" d="M1458.838 298.519s3.75 3.394 1.875 4.481c-1.875 1.087-7.05 3.15-9.713 5.044-2.662 1.894-13.95 5.043-13.95 2.606 0-2.438.281-3.281 6.338-6.412a98.175 98.175 0 0 1 15.45-5.72z"/>
        <path fill="#1F1916" d="M1485.463 183.9s6.056 5.456-.15 13.125c-6.207 7.669-8.72 7.5-8.72 7.5l-7.743 17.981s-2.55 16.875-2.4 21.394c.15 4.519 5.063 14.456-2.119 30.675-7.181 16.219-5.625 16.744-5.625 16.744l-6.206-1.5s4.519-35.963 4.088-40.463c-.432-4.5-4.088-37.743-2.4-48.112 1.687-10.369 2.55-14.156 2.55-14.156l28.725-3.188z"/>
        <path fill="#F39872" d="M1457.431 291.15c-.083 1.7.107 3.403.563 5.044.712 1.631.75 4.406-1.069 4.687-1.819.282-13.444 5.438-13.725 4.894-.281-.544-2.1-.862-.413-1.875 1.688-1.012 6.62-4.5 6.62-4.5l3.656-9.675 3.75 1.237"/>
        <path fill="#F7B8A0" d="M1483.906 134.438l.15-4.632s5.775-13.894.975-16.087c-4.8-2.194-14.362-.544-14.362-.544s-4.088 7.088-4.088 9.375c0 2.288 1.425 8.981 4.8 9.263a2.4 2.4 0 0 1 2.25 3.393l-.281 2.457 10.556-3.226z"/>
        <path fill="#120E0A" d="M1491.237 137.156l-5.343-5.025-12.975 3.525-.563 3.413s-10.125 7.087-11.55 9c-1.425 1.912-7.181 7.631-2.944 13.894 4.238 6.262 3.525 7.63 3.375 10.5-.15 2.868-4.5 14.025-4.5 14.025s8.307 7.087 18.17 3.15c9.862-3.938 12.524-7.632 12.524-7.632s-4.65-5.043-4.781-6.956c-.131-1.913 7.744-17.044 7.744-17.044a63.263 63.263 0 0 1 4.5 6.825c-.131.413-6.056 6.132-6.056 6.132s4.93 8.306 5.625 8.456c.693.15 14.362-6.413 14.493-9.375.132-2.963-7.743-17.588-9.281-21.525-1.537-3.938-8.438-11.363-8.438-11.363z"/>
        <path fill="#000" fill-rule="nonzero" d="M1476.594 173.006c-.15 3.413-3.244 17.85-3.244 17.85l-9.862-1.631s-2.1.544-.413-6.131c1.688-6.675 3.656-19.088 2.944-22.894a47.925 47.925 0 0 1-2.381-9.675c-.15-3.281-.432.956 2.662.544 3.094-.413 10.294-4.631 9.581 7.894-.712 12.525.713 14.043.713 14.043z"/>
        <path fill="#F39872" d="M1466.731 199.031s-4.087 3-4.218 6.131a61.874 61.874 0 0 0 .562 8.457s2.813 6.262.694 4.631a4.762 4.762 0 0 1-2.1-3.412s1.125 8.587-1.707 7.218a11.25 11.25 0 0 1-5.212-7.894 46.181 46.181 0 0 1 2.269-10.5c1.537-4.63 3.937-10.63 3.937-10.63l8.457 1.087-3.244 4.781M1493.487 178.181l-7.03 2.044-4.65-5.175 7.462-3 3.806 5.587"/>
        <path fill="#120E0A" d="M1474.063 176.813c-.15 3.412-3.244 17.868-3.244 17.868l-9.863-1.65s-2.118.544-.431-6.131c1.688-6.675 3.75-19.069 2.962-22.894a48.506 48.506 0 0 1-2.4-9.675c-.13-3.262 0-6.806 3.113-7.218 3.112-.413 9.994-.544 9.281 12-.712 12.543.582 17.7.582 17.7z"/>
        <path fill="#530E1D" d="M1485.294 127.2s-18.319-.844-14.625-14.025c3.693-13.181 12.112-12.769 15.881-9.919 3.769 2.85 9.225 7.707 7.969 11.363-1.256 3.656-1.256 13.406-9.225 12.581z"/>
        <path fill="#530E1D" d="M1490 116.644s11.25 4.069 10.5-2.438c-.75-6.506 0-12.581-5.456-11.362a9.487 9.487 0 0 0-6.713 6.9l1.669 6.9z"/>
    </g>
</svg>
