<svg xmlns="http://www.w3.org/2000/svg" width="373" height="467" viewBox="0 0 373 467">
    <defs>
        <linearGradient id="a" x1="44.964%" x2="67.689%" y1="50.756%" y2="-8.562%">
            <stop offset="0%" stop-color="#FFF"/>
            <stop offset="32%" stop-color="#F0F0F0"/>
            <stop offset="33%" stop-color="#EDEFF0"/>
            <stop offset="43%" stop-color="#DAEBF1"/>
            <stop offset="55%" stop-color="#CDE7F2"/>
            <stop offset="71%" stop-color="#C5E6F2"/>
            <stop offset="100%" stop-color="#C3E5F2"/>
        </linearGradient>
    </defs>
    <g fill="none" fill-rule="nonzero">
        <path fill="url(#a)" d="M371 260.208L229.633 466.542 0 467l.02-169.27L215.422 244z"/>
        <path fill="#F3B8AE" d="M223.652 44.44c.209 3.903-1.34 2.896-2.45 3.336a39.875 39.875 0 0 1-7.436 0c-1.655 0-1.215 5.224-1.215 5.224L199 50.671v-4.195l.377-.63c2.094-.986 3.917-2.538 3.958-4.196.053-1.34.285-2.666.692-3.944.211-.371.36-.775.44-1.196 0-1.153 5.78-5.16 6.283-5.832.502-.671 0-1.678 0-2.895s1.11-1.783 2.45-1.993c1.34-.21 2.095 2.266 2.849 2.329.125 0 .335-.168.586-.462A73.44 73.44 0 0 0 221.6 20s.524 1.343 1.131 3.21c.335 1.09.712 2.37 1.005 3.692.733 3.525-.314 13.657-.083 17.539z"/>
        <path fill="#5E3A21" d="M223 23.711c-.605-1.84-1.126-3.163-1.126-3.163a72.307 72.307 0 0 1-4.92 7.547l-.625.455c-.854 0-1.522-2.523-2.835-2.295-1.313.227-2.439.765-2.439 1.964 0 1.2.459 2.192 0 2.854-.458.661-6.254 4.61-6.254 5.748-.167.385-.313.778-.437 1.179a14.595 14.595 0 0 0-.667 3.784c0 1.716-1.877 3.246-3.94 4.135-1.023.515-2.12.871-3.252 1.055-2.877.434-7.505-4.611-7.505-9.202 0-4.59 5.42-4.714 5.42-4.714-3.92-21.608 13.863-19.996 21.159-17.928 4.083.97 7.077 4.43 7.421 8.581z" opacity=".95"/>
        <path fill="#FFF" d="M265.041 113.56l-23.443-2.836s0 .766.542 3.498 2.084 13.495 0 11.86a12.521 12.521 0 0 0-3.084-1.822 24.405 24.405 0 0 0-9.502-1.47c-7.398 0-26.173 6.21-28.173 6.21s-1.647-9.645-1.647-16.558-5.313-17.014-5.855-23.927c-.542-6.913-2.98-14.261-2.876-22.375.104-8.113 4.98-10.1 4.98-10.1l.772-5.257c.375-2.588 15.795 2.07 15.795 2.07s7.168 5.712 11.357 7.14c4.188 1.428 8.335 9.004 9.627 13.93 1.292 4.926 5.751 18.628 6.856 18.628 1.104 0 25.61 6.375 25.61 6.375l-.959 14.633z"/>
        <path fill="#E0DEDF" d="M215 82s6.828 11.364 9.828 15.815A105.93 105.93 0 0 0 236 110l-9.372-12.862L215 82z"/>
        <path fill="#222323" d="M251.986 192.704c-.188-9.528-13.097-50.393-13.097-58.191v-10.008a24.506 24.506 0 0 0-9.556-1.48c-7.44 0-26.321 6.255-28.333 6.255 0 0 6.014 38.863 6.014 48.975 0 10.112-.985 35.215 0 43.972a120.13 120.13 0 0 0 4.192 18.89l-2.557 2.918L219.798 252h9.786l-2.347-15.178s14.271-22.56 17.415-28.398c3.143-5.837 7.628-6.192 7.334-15.72zM222.46 212.51a93.527 93.527 0 0 0 4.191-11.009c.357-2.251 0-16.158 0-16.158s-.733-7.402 0-5.775c.734 1.626 5.7 15.282 5.7 17.305 0 2.022-9.43 14.949-9.89 15.637z" opacity=".95"/>
        <path fill="#020202" d="M213 239s6.733-12.917 7.13-15.667c.396-2.75 1.87-8.333 1.87-8.333s-2.663.75-4.511 7.146C215.641 228.542 213 239 213 239z" opacity=".95"/>
        <path fill="#FFF" d="M228.354 252s0 3.671 2.78 3.914c2.778.242 9.171 3.893 12.807 3.893 3.635 0 3.385 3.752 2.507 4.962-.877 1.21-15.315 1.231-18.094 1.231-2.779 0-13.685-.988-15.816-2.562-2.131-1.573 2.758-10.086 2.758-10.086l4.638-1.251 8.42-.101z"/>
        <path fill="#FFF" d="M209.53 244s-4.622 2.566-6.648 3.839c-2.026 1.272-5.465 5.132-3.06 7.51 2.406 2.378 12.45 12.934 13.463 15.563 1.013 2.628 3.799 9.784 7.998 9.033 4.2-.75 2.279-2.879 2.279-5.633 0-2.753-2.28-11.056-2.28-13.81 0-2.754 1.668-5.904 1.014-7.907-.654-2.003 0-1.69-2.68-1.418-2.68.27-10.087-7.177-10.087-7.177z"/>
        <path fill="#F3B8AE" d="M265.806 100a16.592 16.592 0 0 0 4.494 2.233 23.41 23.41 0 0 1 6.7 4.135 17.576 17.576 0 0 1-1.102 5.458c-.467.496-10.898-.227-10.898-.227l.806-11.599z"/>
        <path fill="#E2A293" d="M275.47 100l-7.47 1.51 1.145 3.88 6.534.454 2.247 2.156s.375-4.313-.562-4.787c-.936-.474-1.893-3.213-1.893-3.213zM266 111.742s1.885 2.628 3.263 3.026a4.98 4.98 0 0 0 4.257-.597c.608-.797 2.027-2.986 1.256-3.106-.77-.12-.932-.995-1.297-.995-.365 0-.648-.677-1.783-.916-1.135-.238-.892-1.154-2.27-1.154-1.379 0-3.426 3.742-3.426 3.742z"/>
        <path fill="#E94575" d="M269.5 110.78l1-1.56-1 1.56z" opacity=".54"/>
        <path fill="#222323" d="M365.996 89.062c.186-6.476-5.538-19.158-5.538-25.406 0-6.248-6.928-11.77-7.446-16.108-.519-4.338-5.352-7.098-13.15-8.302-7.799-1.204-5.185-2.782-10.723-3.218-5.538-.435-22.152 4.256-23.541 6.227-1.39 1.972-12.3 6.228-15.577 9.341-3.277 3.114-2.074 5.729-2.074 11.956 0 6.227-3.132 19.574-3.132 23.912 0 4.338-1.39 4.857-2.593 6.746A33.193 33.193 0 0 1 276 99.586l1.7 4.151c1.722 4.152-.248 9.237 1.826 9.237s14.705-11.437 16.8-12.309c0 0 4.148-6.746 4.314-8.49.166-1.743-1.39-11.644-1.39-11.644s2.262 7.306 3.299 11.479c1.037 4.172-1.577 13.637-1.577 13.637-.103 6.933-.477 17.311-.332 18.058.618.186 1.266.25 1.909.187h1.659c5.807 0 18.003-.54 28.146-.955 7.529-.311 13.917-.54 15.68-.498h.373c.691.036 1.383.036 2.074 0 2.074-.228 1.307-.892 1.97-1.287.664-.394 4.937 2.076 7.613 3.363a9.62 9.62 0 0 0 1.057.436c2.427.872 3.112-10.047 4.149-15.236s.56-14.094.726-20.653zm-18.336 1.62c-.186-5.709-1.223-16.108-1.223-16.108a96.407 96.407 0 0 1 3.982 12.828c.353 3.113 1.742 16.46 1.742 16.46s-4.397-7.369-4.397-13.098l-.104-.083z" opacity=".95"/>
        <path fill="#020202" d="M300.33 106v-2.893c0-6.384-2.406-2.913-4.33-2.066 0 0 3.849-6.715 4.002-8.45.154-1.736-1.289-11.591-1.289-11.591s2.098 7.273 3.06 11.426c.962 4.153-1.443 13.574-1.443 13.574z" opacity=".95"/>
        <path fill="#EDBBB7" d="M323 36.469c-.508.456-.969.963-1.375 1.512a20.632 20.632 0 0 0-2.083 3.257 8.087 8.087 0 0 1-6.959 3.76c-1.083 0-5.125-3.382-5.125-3.382s-3.562-.105-5.541 0c-1.98.105-1.959-2.878-1.959-4.727a6.602 6.602 0 0 0-2.791-4.37 7.483 7.483 0 0 1-1.354-4.79A20.549 20.549 0 0 0 295 24.03c0-1.03.542-10.505.688-11.157.145-.651 5.687-4.874 8.687-4.874 3 0 3.938.903 4.48 2.752.54 1.85-1.626 4.202-.21 5.337 1.418 1.134 3.334 6.429 4.168 6.975.833.547 3.125-3.824 4.062-4.202a2.482 2.482 0 0 1 2.317-.223 2.516 2.516 0 0 1 1.495 1.799c.344 1.059.526 2.164.542 3.278v4.202c.075.705.186 1.407.334 2.1.458 2.648 1.437 6.45 1.437 6.45z"/>
        <path fill="#222323" d="M323.997 17.474a41.16 41.16 0 0 1-2.261 10.438c-.436 1.316-.747 2.088-.747 2.088a20.326 20.326 0 0 1-.332-2.088c-.104-1.231 0-2.693 0-4.175a11.044 11.044 0 0 0-.54-3.257 2.501 2.501 0 0 0-1.509-1.83 2.476 2.476 0 0 0-2.349.264c-.934.418-3.236 4.76-4.045 4.176-.81-.585-2.697-5.846-4.15-6.931-1.452-1.086.747-3.487.208-5.303-.54-1.816-1.494-2.735-4.46-2.735-2.967 0-8.527 4.175-8.652 4.844-2.074-2.088-.747-2.86-.684-4.844.062-1.983 2.697-4.635 2.697-4.635S305.263 0 309.039 0s7.116 1.775 10.56 2.589c3.444.814 4.46 10.208 4.398 14.885z" opacity=".95"/>
        <path fill="#E0AEA8" d="M323 36.386c-.498.438-.95.925-1.35 1.453-1.431 0-3.067.161-3.783.161A16.482 16.482 0 0 1 313 35.983s3.129-4.277 3.129-5.79V27.35s2.74.403 3.476-1.11A9.099 9.099 0 0 1 321.2 24v4.035c.074.677.183 1.35.328 2.017.51 2.683 1.472 6.334 1.472 6.334zM316 21.546s0-.595 1.217-.543c1.217.053 1.85-.14 1.777 1.455-.073 1.594-.194-.824-.852-.93a13.136 13.136 0 0 0-2.142.018z"/>
        <path fill="#222323" d="M294.608 22.578s1-.26 1.04 0c.04.26-.84.48-1.04.72l-.2.24s-.22-.88.2-.96zM298.22 20.76s-.686.96.365.94c1.051-.02 1.91-.72 2.96-.72 1.052 0 3.455-.22 3.455-.22s-3.218-.46-3.883-.46c-.974.104-1.941.257-2.897.46z" opacity=".95"/>
        <path fill="#060707" d="M370 244.905c0 3.918-6.87 1.25-10.41 1.25s-3.894-8.128-6.871-19.362c-2.977-11.234-7.641-27.97-7.954-33.91-.312-5.94-12.804-26.74-12.804-26.74s.312 17.674.312 22.113c0 4.44.791 6.961 1.104 13.36.312 6.398 1.395 48.916 1.707 49.708.312.792-13.575 1.396-13.742-1.25-.166-2.648-3.435-36.578-3.58-39.6-.147-3.022-2.978-15.007-2.978-17.966 0-2.96-9.349-27.511-9.827-35.952-.48-8.441-2.957-32.118-2.957-32.118l29.753-.938 16.115-.5h2.082a81.9 81.9 0 0 1 5.621 15.36c.209.96.354 1.897.48 2.793.936 7.65 3.58 39.85 3.58 42.664s3.27 6.398 5.934 15.631c2.665 9.233 4.435 41.56 4.435 45.457z" opacity=".95"/>
        <path fill="#E2A293" d="M360 124.464a79.648 79.648 0 0 1-1.497 9.095 18.474 18.474 0 0 1-2.82 4.441A82.333 82.333 0 0 0 350 122.36c2.17-.233 1.367-.913 2.06-1.317.695-.404 5.033 2.146 7.94 3.421z"/>
        <path fill="#FFF" d="M321.87 253.929s-.798-3.929 2.244-3.929c3.041 0 5.328 3.784 6.607 4.611 1.28.827 3.293-.89 4.195-.951.902-.062 3.041.165 3.083 5.79.042 5.624-1.971 6.781-5.81 7.257-3.838.476-10.005 2.254-14.326 3.205-4.32.951-10.487 1.675-11.998.414-1.51-1.262-.734-4.301 0-5.314.735-1.014 8.055-3.888 9.817-4.839a41.095 41.095 0 0 0 6.187-6.244zM358.49 249.455s-.747-5.259 1.473-5.423c2.219-.165 7.425.267 7.694 2.3.27 2.034.622 3.904 1.265 3.123.643-.78.892-3.698 2.074-2.342 1.183 1.356 1.328 6.163 1.805 8.505a5.146 5.146 0 0 1-1.597 5.32c-1.265.678-4.148 6.841-8.172 7.355-4.023.514-13.896 1.52-13.958-.514-.062-2.033-.519-4.601 1.908-6.163a21.374 21.374 0 0 0 6.471-8.217 25.89 25.89 0 0 1 1.037-3.944z"/>
    </g>
</svg>
